<svg width="33" height="32" viewBox="0 0 33 32" fill="none" xmlns="http://www.w3.org/2000/svg">
<g clip-path="url(#clip0_382_189)">
<path d="M8.32399 20.7773C6.91777 19.4784 5.84517 17.8598 5.19694 16.0586C4.54872 14.2574 4.34396 12.3265 4.59999 10.4293C4.85314 8.50569 5.56897 6.67211 6.6861 5.08576C7.80324 3.4994 9.28838 2.20759 11.0142 1.32103C12.7401 0.434479 14.6551 -0.0203757 16.5953 -0.0045443C18.5355 0.0112871 20.4429 0.497332 22.154 1.41193C23.8652 2.32653 25.329 3.64241 26.4201 5.24678C27.5112 6.85115 28.1971 8.69617 28.4188 10.6237C28.6405 12.5512 28.3916 14.5038 27.6932 16.314C26.9949 18.1242 25.8681 19.7381 24.4093 21.0173C23.47 21.8249 22.7406 22.8485 22.284 24H17.8333V14.4213C18.6105 14.1466 19.2839 13.6384 19.7612 12.9663C20.2385 12.2942 20.4966 11.491 20.5 10.6667C20.5 10.3131 20.3595 9.97391 20.1095 9.72386C19.8594 9.47382 19.5203 9.33334 19.1667 9.33334C18.813 9.33334 18.4739 9.47382 18.2238 9.72386C17.9738 9.97391 17.8333 10.3131 17.8333 10.6667C17.8333 11.0203 17.6928 11.3594 17.4428 11.6095C17.1927 11.8595 16.8536 12 16.5 12C16.1464 12 15.8072 11.8595 15.5572 11.6095C15.3071 11.3594 15.1667 11.0203 15.1667 10.6667C15.1667 10.3131 15.0262 9.97391 14.7761 9.72386C14.5261 9.47382 14.1869 9.33334 13.8333 9.33334C13.4797 9.33334 13.1406 9.47382 12.8905 9.72386C12.6405 9.97391 12.5 10.3131 12.5 10.6667C12.5034 11.491 12.7614 12.2942 13.2388 12.9663C13.7161 13.6384 14.3894 14.1466 15.1667 14.4213V24H10.584C10.0742 22.7741 9.30295 21.6742 8.32399 20.7773ZM11.1667 26.6667V27.08C11.1681 28.3844 11.6869 29.635 12.6092 30.5574C13.5316 31.4798 14.7822 31.9986 16.0867 32H16.9133C18.2178 31.9986 19.4684 31.4798 20.3907 30.5574C21.3131 29.635 21.8319 28.3844 21.8333 27.08V26.6667H11.1667Z" fill="#F5EBE0"/>
</g>
<defs>
<clipPath id="clip0_382_189">
<rect width="32" height="32" fill="white" transform="translate(0.5)"/>
</clipPath>
</defs>
</svg>
