<svg width="12" height="24" viewBox="0 0 12 24" fill="none" xmlns="http://www.w3.org/2000/svg">
<path d="M11.921 1.505C11.9207 1.90269 11.7624 2.28396 11.481 2.565L3.80901 10.237C3.57679 10.4692 3.39258 10.7448 3.26691 11.0481C3.14123 11.3515 3.07654 11.6766 3.07654 12.005C3.07654 12.3334 3.14123 12.6585 3.26691 12.9619C3.39258 13.2652 3.57679 13.5408 3.80901 13.773L11.471 21.435C11.7442 21.7179 11.8954 22.0968 11.892 22.4901C11.8886 22.8834 11.7308 23.2596 11.4527 23.5377C11.1746 23.8158 10.7984 23.9736 10.4051 23.977C10.0118 23.9804 9.63291 23.8292 9.35001 23.556L1.68801 15.9C0.657772 14.8677 0.0791626 13.4689 0.0791626 12.0105C0.0791626 10.5521 0.657772 9.15326 1.68801 8.121L9.36001 0.443999C9.56979 0.234083 9.83712 0.0911123 10.1282 0.0331782C10.4192 -0.0247559 10.721 0.00495023 10.9951 0.118538C11.2693 0.232125 11.5036 0.424489 11.6684 0.671288C11.8332 0.918086 11.9211 1.20823 11.921 1.505Z" fill="#F5EBE0"/>
</svg>
