<svg width="32" height="32" viewBox="0 0 32 32" fill="none" xmlns="http://www.w3.org/2000/svg">
<g clip-path="url(#clip0_94_2518)">
<path d="M7.82399 20.7773C6.41777 19.4784 5.34517 17.8598 4.69694 16.0586C4.04872 14.2574 3.84396 12.3265 4.09999 10.4293C4.35314 8.50569 5.06897 6.67211 6.1861 5.08576C7.30324 3.4994 8.78838 2.20759 10.5142 1.32103C12.2401 0.434479 14.1551 -0.0203757 16.0953 -0.0045443C18.0355 0.0112871 19.9429 0.497332 21.654 1.41193C23.3652 2.32653 24.829 3.64241 25.9201 5.24678C27.0112 6.85115 27.6971 8.69617 27.9188 10.6237C28.1405 12.5512 27.8916 14.5038 27.1932 16.314C26.4949 18.1242 25.3681 19.7381 23.9093 21.0173C22.97 21.8249 22.2406 22.8485 21.784 24H17.3333V14.4213C18.1105 14.1466 18.7839 13.6384 19.2612 12.9663C19.7385 12.2942 19.9966 11.491 20 10.6667C20 10.3131 19.8595 9.97391 19.6095 9.72386C19.3594 9.47382 19.0203 9.33334 18.6667 9.33334C18.313 9.33334 17.9739 9.47382 17.7238 9.72386C17.4738 9.97391 17.3333 10.3131 17.3333 10.6667C17.3333 11.0203 17.1928 11.3594 16.9428 11.6095C16.6927 11.8595 16.3536 12 16 12C15.6464 12 15.3072 11.8595 15.0572 11.6095C14.8071 11.3594 14.6667 11.0203 14.6667 10.6667C14.6667 10.3131 14.5262 9.97391 14.2761 9.72386C14.0261 9.47382 13.6869 9.33334 13.3333 9.33334C12.9797 9.33334 12.6406 9.47382 12.3905 9.72386C12.1405 9.97391 12 10.3131 12 10.6667C12.0034 11.491 12.2614 12.2942 12.7388 12.9663C13.2161 13.6384 13.8894 14.1466 14.6667 14.4213V24H10.084C9.57425 22.7741 8.80295 21.6742 7.82399 20.7773ZM10.6667 26.6667V27.08C10.6681 28.3844 11.1869 29.635 12.1092 30.5574C13.0316 31.4798 14.2822 31.9986 15.5867 32H16.4133C17.7178 31.9986 18.9684 31.4798 19.8907 30.5574C20.8131 29.635 21.3319 28.3844 21.3333 27.08V26.6667H10.6667Z" fill="#F5EBE0"/>
</g>
<defs>
<clipPath id="clip0_94_2518">
<rect width="32" height="32" fill="white"/>
</clipPath>
</defs>
</svg>
