<svg width="33" height="32" viewBox="0 0 33 32" fill="none" xmlns="http://www.w3.org/2000/svg">
<g clip-path="url(#clip0_382_256)">
<path d="M25.4507 16H19.1667C17.694 16 16.5 14.8061 16.5 13.3333V7.032C16.5037 5.78888 15.9292 4.61463 14.9454 3.85469C14.0131 3.11644 12.7907 2.85331 11.6374 3.14269C3.79798 5.08869 -0.979578 13.0214 0.966484 20.8608C2.33755 26.3841 6.78805 30.6105 12.3747 31.6947C20.0066 33.1555 27.4533 28.4105 29.3534 20.876C29.6439 19.7211 29.3812 18.4969 28.6427 17.5627C27.874 16.5806 26.6979 16.0048 25.4507 16Z" fill="#F5EBE0"/>
<path d="M32.0347 9.92799C31.7304 8.79662 31.277 7.71068 30.6867 6.69868C28.9111 3.65256 26.0106 1.42524 22.6094 0.495994C22.3854 0.435556 21.884 0.399994 21.884 0.399994C21.7049 0.400056 20.9334 0.399994 20.3227 0.894681C19.4252 1.60099 19.284 2.40399 19.2707 2.46668C19.2242 2.66331 19.2 2.86462 19.1987 3.06668V9.33337C19.1987 11.5425 20.9896 13.3334 23.1987 13.3334H29.4907C30.3255 13.3357 31.1112 12.9394 31.6054 12.2667C31.9709 11.7739 32.1589 11.1719 32.1387 10.5587C32.1281 10.3452 32.0932 10.1336 32.0347 9.92799Z" fill="#F5EBE0"/>
</g>
<defs>
<clipPath id="clip0_382_256">
<rect width="32" height="32" fill="white" transform="translate(0.5)"/>
</clipPath>
</defs>
</svg>
