<svg width="32" height="32" viewBox="0 0 32 32" fill="none" xmlns="http://www.w3.org/2000/svg">
<g clip-path="url(#clip0_94_2474)">
<path d="M2.66667 26.6667H16C16.7072 26.6667 17.3855 26.9476 17.8856 27.4477C18.3857 27.9478 18.6667 28.6261 18.6667 29.3333C18.6667 30.0406 18.3857 30.7189 17.8856 31.219C17.3855 31.719 16.7072 32 16 32H2.66667C1.95942 32 1.28115 31.719 0.781049 31.219C0.280952 30.7189 0 30.0406 0 29.3333C0 28.6261 0.280952 27.9478 0.781049 27.4477C1.28115 26.9476 1.95942 26.6667 2.66667 26.6667ZM15.6693 7.60933C15.644 7.664 14.2973 9.74267 14.2973 9.74267C14.4787 9.93134 14.6005 10.1692 14.6476 10.4266C14.6947 10.6841 14.6651 10.9496 14.5623 11.1903C14.4595 11.431 14.2882 11.6361 14.0696 11.7801C13.8511 11.9241 13.595 12.0005 13.3333 12H5.33333C5.07201 12 4.81645 11.9233 4.59839 11.7792C4.38034 11.6352 4.20941 11.4303 4.10685 11.19C4.00429 10.9496 3.97461 10.6844 4.02152 10.4273C4.06842 10.1703 4.18983 9.93265 4.37067 9.744C4.37067 9.744 3.02667 7.664 3 7.60933C2.75151 7.08125 2.64036 6.49897 2.67687 5.91648C2.71338 5.334 2.89636 4.77015 3.20884 4.27723C3.52133 3.7843 3.9532 3.37824 4.46443 3.0967C4.97567 2.81516 5.5497 2.66724 6.13333 2.66667H8.01333V1.33333C8.01333 0.979711 8.15381 0.640573 8.40386 0.390524C8.65391 0.140476 8.99305 0 9.34667 0C9.70029 0 10.0394 0.140476 10.2895 0.390524C10.5395 0.640573 10.68 0.979711 10.68 1.33333V2.66667H12.5333C13.1172 2.66679 13.6916 2.81438 14.2031 3.09574C14.7147 3.37709 15.147 3.7831 15.4598 4.2761C15.7726 4.7691 15.9558 5.33311 15.9924 5.91582C16.0291 6.49852 15.9179 7.08104 15.6693 7.60933ZM29.3333 26.6667H20.6173C21.0863 27.4771 21.3333 28.3969 21.3333 29.3333C21.3333 30.2697 21.0863 31.1895 20.6173 32H29.3333C30.0406 32 30.7189 31.719 31.219 31.219C31.7191 30.7189 32 30.0406 32 29.3333C32.0088 28.9807 31.9458 28.6301 31.8149 28.3025C31.684 27.975 31.4879 27.6776 31.2385 27.4282C30.9891 27.1788 30.6916 26.9827 30.3641 26.8518C30.0366 26.7209 29.6859 26.6579 29.3333 26.6667ZM15.6493 24C14.7331 20.9456 14.0529 17.8253 13.6147 14.6667H5.05467C4.61838 17.8257 3.93767 20.9462 3.01867 24H15.6493ZM18.6667 14.308V24H29.3333V14.308C29.7385 14.0741 30.075 13.7377 30.3091 13.3325C30.5431 12.9274 30.6664 12.4679 30.6667 12V10.6667C30.6667 10.313 30.5262 9.97391 30.2761 9.72386C30.0261 9.47381 29.687 9.33333 29.3333 9.33333C28.9797 9.33333 28.6406 9.47381 28.3905 9.72386C28.1405 9.97391 28 10.313 28 10.6667V12H25.3333V10.6667C25.3333 10.313 25.1929 9.97391 24.9428 9.72386C24.6928 9.47381 24.3536 9.33333 24 9.33333C23.6464 9.33333 23.3072 9.47381 23.0572 9.72386C22.8071 9.97391 22.6667 10.313 22.6667 10.6667V12H20V10.6667C20 10.313 19.8595 9.97391 19.6095 9.72386C19.3594 9.47381 19.0203 9.33333 18.6667 9.33333C18.313 9.33333 17.9739 9.47381 17.7239 9.72386C17.4738 9.97391 17.3333 10.313 17.3333 10.6667V12C17.3336 12.4679 17.4569 12.9274 17.691 13.3325C17.925 13.7377 18.2615 14.0741 18.6667 14.308Z" fill="#F5EBE0"/>
</g>
<defs>
<clipPath id="clip0_94_2474">
<rect width="32" height="32" fill="white"/>
</clipPath>
</defs>
</svg>
