<svg width="33" height="32" viewBox="0 0 33 32" fill="none" xmlns="http://www.w3.org/2000/svg">
<path d="M5.83733 1.66393C5.77067 0.727931 6.56133 -0.0627358 7.49733 0.00393092C13.4827 0.425264 16.1787 3.20526 16.5 9.33327C16.8213 3.20526 19.5173 0.425264 25.5027 0.00393092C26.4373 -0.0614024 27.228 0.727931 27.1627 1.66393C26.7413 7.64926 23.9533 10.3119 17.8267 10.6333C17.8267 10.6453 17.8333 10.6559 17.8333 10.6679V13.3346C17.8267 15.0786 15.1733 15.0773 15.1667 13.3346V10.6679C15.1667 10.6559 15.1733 10.6453 15.1733 10.6333C9.04533 10.3119 6.25867 7.64926 5.83733 1.66393ZM31.7587 17.6773C31.064 16.7133 29.9947 16.1066 28.8213 16.0133C27.6547 15.9119 26.5013 16.3413 25.7133 17.1319L23.1173 19.5133C23.496 22.5999 20.9187 25.3533 17.8333 25.3333H12.5C10.756 25.3266 10.7573 22.6733 12.5 22.6666H17.8333C21.3387 22.6026 21.336 17.3959 17.8333 17.3333H12.6173C8.7 17.3333 5.01733 18.8599 2.22133 21.6533L0.865333 23.0813C0.630667 23.3293 0.5 23.6586 0.5 23.9986V30.6653C0.5 31.4026 1.096 31.9986 1.83333 31.9986H15.5933C19.2547 31.9986 22.7627 30.6399 25.4707 28.1746L31.228 22.9279C32.6547 21.4973 32.8827 19.2399 31.7573 17.6759L31.7587 17.6773Z" fill="#F5EBE0"/>
</svg>
