<svg width="36" height="30" viewBox="0 0 36 30" fill="none" xmlns="http://www.w3.org/2000/svg">
<path d="M35.0227 11.6882C34.0327 10.7382 32.4628 10.7782 31.5128 11.7682L25.9728 17.5682C25.9228 17.6182 21.8828 21.9782 18.8728 25.2882C17.9428 26.3082 18.0327 27.8882 19.0627 28.8082C20.0827 29.7082 21.6328 29.6282 22.5428 28.6182C25.4428 25.4182 29.3428 21.2182 29.5828 20.9582L35.0828 15.1882C36.0328 14.1982 35.9928 12.6282 35.0028 11.6782L35.0227 11.6882Z" fill="#CC9966"/>
<path d="M31.0227 1.68816C30.0327 0.738159 28.4628 0.778154 27.5128 1.76815L12.9728 16.5682C12.9228 16.6182 8.88275 20.9782 5.87275 24.2882C4.94275 25.3082 5.03275 26.8882 6.06275 27.8082C7.08275 28.7082 8.63275 28.6282 9.54275 27.6182C12.4428 24.4182 16.3428 20.2182 16.5828 19.9582L31.0828 5.18816C32.0328 4.19816 31.9928 2.62816 31.0028 1.67816L31.0227 1.68816Z" fill="#CC9966"/>
<path d="M17.0228 0.688162C16.0328 -0.261839 14.4627 -0.221844 13.5127 0.768156L7.97275 6.56816C7.92275 6.61816 3.88275 10.9782 0.872749 14.2882C-0.0572509 15.3082 0.0327516 16.8882 1.06275 17.8082C2.08275 18.7082 3.63275 18.6282 4.54275 17.6182C7.44275 14.4182 11.3427 10.2182 11.5827 9.94816L17.0827 4.18816C18.0327 3.19816 17.9928 1.62816 17.0028 0.67816L17.0228 0.688162Z" fill="#CC9966"/>
</svg>
