<svg width="59" height="48" viewBox="0 0 59 48" fill="none" xmlns="http://www.w3.org/2000/svg">
<g opacity="0.4">
<path d="M57.2791 19.0614C55.6635 17.5121 53.1015 17.5773 51.5512 19.1918L42.5106 28.6506C42.429 28.7321 35.8362 35.8425 30.9243 41.2405C29.4067 42.904 29.5535 45.4807 31.2343 46.981C32.8989 48.4488 35.4283 48.3183 36.9133 46.6712C41.6457 41.4525 48.01 34.6031 48.4017 34.1791L57.377 24.7692C58.9273 23.1547 58.862 20.5943 57.2464 19.0451L57.2791 19.0614Z" fill="#CC9966"/>
<path d="M50.7516 2.75314C49.136 1.20386 46.574 1.26908 45.0237 2.8836L21.2962 27.0198C21.2147 27.1013 14.6219 34.2117 9.70994 39.6097C8.1923 41.2731 8.33916 43.8498 10.02 45.3502C11.6845 46.8179 14.2139 46.6875 15.6989 45.0403C20.4314 39.8217 26.7957 32.9723 27.1873 32.5482L50.8495 8.46101C52.3998 6.8465 52.3345 4.28611 50.7189 2.73683L50.7516 2.75314Z" fill="#CC9966"/>
<path d="M27.9053 1.12234C26.2897 -0.426937 23.7277 -0.361713 22.1774 1.2528L13.1368 10.7116C13.0552 10.7931 6.46245 17.9035 1.55051 23.3015C0.0328681 24.9649 0.179741 27.5416 1.86057 29.042C3.52508 30.5097 6.05449 30.3793 7.5395 28.7321C12.2719 23.5135 18.6362 16.6641 19.0279 16.2237L28.0032 6.83022C29.5535 5.2157 29.4882 2.65531 27.8727 1.10603L27.9053 1.12234Z" fill="#CC9966"/>
</g>
</svg>
