<svg width="32" height="32" viewBox="0 0 32 32" fill="none" xmlns="http://www.w3.org/2000/svg">
<g clip-path="url(#clip0_94_2502)">
<path d="M9.33325 16C9.33351 14.6937 9.71992 13.4166 10.4439 12.3293L3.79325 5.67865C1.34449 8.56018 0 12.2185 0 16C0 19.7815 1.34449 23.4398 3.79325 26.3213L10.4439 19.6707C9.71992 18.5833 9.33351 17.3063 9.33325 16Z" fill="#F5EBE0"/>
<path d="M28.2066 5.67865L21.5559 12.3293C22.2801 13.4165 22.6665 14.6937 22.6665 16C22.6665 17.3063 22.2801 18.5834 21.5559 19.6707L28.2066 26.3213C30.6553 23.4398 31.9998 19.7815 31.9998 16C31.9998 12.2185 30.6553 8.56018 28.2066 5.67865Z" fill="#F5EBE0"/>
<path d="M16 22.6667C14.6938 22.6664 13.4167 22.28 12.3294 21.556L5.67871 28.2067C8.56024 30.6555 12.2186 31.9999 16 31.9999C19.7815 31.9999 23.4398 30.6555 26.3214 28.2067L19.6707 21.556C18.5834 22.28 17.3063 22.6664 16 22.6667Z" fill="#F5EBE0"/>
<path d="M16 9.33331C17.3063 9.33357 18.5834 9.71998 19.6707 10.444L26.3214 3.79331C23.4398 1.34455 19.7815 6.10352e-05 16 6.10352e-05C12.2186 6.10352e-05 8.56024 1.34455 5.67871 3.79331L12.3294 10.444C13.4167 9.71998 14.6938 9.33357 16 9.33331Z" fill="#F5EBE0"/>
</g>
<defs>
<clipPath id="clip0_94_2502">
<rect width="32" height="32" fill="white"/>
</clipPath>
</defs>
</svg>
