<svg width="144" height="48" viewBox="0 0 144 48" fill="none" xmlns="http://www.w3.org/2000/svg">
<path d="M82.9279 9.10853C81.5538 8.42337 80.0209 8.07886 78.3176 8.07886C76.6144 8.07886 75.0389 8.46982 73.6686 9.25176C72.2983 10.0337 71.2183 11.1795 70.4363 12.6892C69.6544 14.1989 69.2634 16.0221 69.2634 18.1627C69.2634 20.0827 69.6544 21.8053 70.4363 23.3305C71.2183 24.8518 72.3215 26.0518 73.7499 26.9305C75.1744 27.8092 76.835 28.2466 78.7279 28.2466C80.7292 28.2466 82.3279 27.8363 83.5241 27.0118C84.7163 26.1872 85.715 25.1576 86.5086 23.9227L85.235 22.9782C84.4105 24.0737 83.555 24.9176 82.6608 25.5098C81.7667 26.0982 80.6634 26.3924 79.3473 26.3924C77.9228 26.3924 76.8118 25.7963 76.0144 24.604C75.2208 23.4118 74.8221 21.5111 74.8221 18.9021H87.2131L87.2944 18.0776C87.3486 17.4195 87.3757 16.8311 87.3757 16.3085C87.3757 14.6905 86.977 13.2543 86.1834 12.0079C85.386 10.7614 84.3021 9.7937 82.9318 9.10853H82.9279ZM74.8183 17.0518C74.8183 14.5279 75.1434 12.7085 75.786 11.5976C76.4286 10.4866 77.2725 9.92918 78.3176 9.92918C79.4441 9.92918 80.3073 10.4711 80.9112 11.555C81.515 12.6389 81.817 14.4698 81.817 17.0479H74.8183V17.0518Z" fill="#CC9966"/>
<path d="M63.1278 17.6402C63.8827 17.2957 64.5175 16.8467 65.0091 16.297C65.7833 15.4376 66.1782 14.5009 66.1782 13.5138C66.1782 11.3034 65.2685 9.80537 63.4685 9.06215C61.7691 8.3615 59.6362 8.00537 57.1278 8.00537H48.813V9.58473H49.4556C50.1523 9.58473 50.5936 9.76279 50.8065 10.1305C51.0504 10.5563 51.1743 11.2492 51.1743 12.186V28.1731H58.0143C60.5962 28.1731 62.7485 27.7705 64.4207 26.9731C66.1743 26.137 67.0646 24.608 67.0646 22.4247C67.0646 19.8738 65.7407 18.2634 63.1317 17.6402H63.1278ZM55.7033 10.0299L55.9743 9.98344C56.2414 9.91376 56.6285 9.87892 57.124 9.87892C58.3433 9.87892 59.373 10.1615 60.1898 10.7189C60.9678 11.2531 61.3472 12.1202 61.3472 13.3705C61.3472 14.6209 61.0182 15.4802 60.3717 16.0067C59.6982 16.5525 58.7575 16.8312 57.5652 16.8312H55.6994V10.0376L55.7033 10.0299ZM61.0801 25.3125C60.2943 25.9628 59.1098 26.2957 57.5691 26.2957H57.422C56.8917 26.2957 56.4233 26.2492 55.982 26.1486C55.8969 26.1409 55.804 26.1215 55.7033 26.0944V18.848H57.5691C60.7123 18.848 62.2375 20.0673 62.2375 22.5718C62.2375 23.7718 61.8581 24.6699 61.0801 25.3125Z" fill="#CC9966"/>
<path d="M105.012 9.08914C103.541 8.18721 101.83 7.72656 99.9292 7.72656C98.0286 7.72656 96.3176 8.18334 94.835 9.08914C93.3563 9.99108 92.195 11.2453 91.3899 12.8169C90.5886 14.3769 90.1821 16.1382 90.1821 18.0466C90.1821 19.9549 90.5886 21.7162 91.3899 23.2724C92.195 24.844 93.3563 26.0982 94.835 27.0001C96.3176 27.902 98.0324 28.3627 99.9292 28.3627C101.826 28.3627 103.537 27.9059 105.012 27.0001C106.483 26.0982 107.636 24.844 108.441 23.2724C109.243 21.7124 109.649 19.9549 109.649 18.0466C109.649 16.1382 109.243 14.3769 108.441 12.8169C107.636 11.2491 106.483 9.99495 105.012 9.09301V9.08914ZM103.657 24.2827C102.767 25.6995 101.547 26.3846 99.9292 26.3846C98.3112 26.3846 97.0996 25.6956 96.2208 24.2827C95.3189 22.8388 94.8621 20.7369 94.8621 18.0427C94.8621 15.3485 95.3189 13.2466 96.2208 11.8027C97.0996 10.3898 98.3112 9.70076 99.9292 9.70076C101.547 9.70076 102.763 10.3898 103.657 11.8027C104.567 13.2504 105.027 15.3485 105.027 18.0427C105.027 20.7369 104.567 22.8349 103.657 24.2827Z" fill="#CC9966"/>
<path d="M135.685 28.0607C135.004 27.9252 134.539 27.4994 134.268 26.7562C133.97 25.9355 133.819 24.6078 133.819 22.8039V7.98971H129.36L123.519 21.9716L116.725 8.18713L116.628 7.98584H112.448V28.1768H114.639V13.3045L121.87 27.9794L121.966 28.1807H123.399L129.267 14.1445V22.8078C129.267 25.1342 129.77 26.8491 130.769 27.9058C131.768 28.9704 133.401 29.5084 135.615 29.5084H135.972V28.1187L135.685 28.0607Z" fill="#CC9966"/>
<path d="M52.8156 34.8695C53.3846 34.4166 54.3446 34.1844 55.6646 34.1844C56.0285 34.1844 56.404 34.2192 56.7833 34.285C57.1627 34.3508 57.5188 34.436 57.8362 34.5327C58.1536 34.6295 58.4091 34.7263 58.5949 34.8192C58.6723 34.8502 58.742 34.8695 58.804 34.8695C59.0014 34.8695 59.1098 34.7689 59.1098 34.5792C59.1098 34.4398 59.0362 34.3276 58.893 34.254C58.382 33.9869 57.8401 33.8011 57.2827 33.7005C56.7291 33.596 56.1833 33.5457 55.6685 33.5457C54.724 33.5457 53.9033 33.654 53.2336 33.8669C52.5562 34.0798 52.0336 34.4515 51.6775 34.9702C51.3252 35.4889 51.1433 36.2166 51.1433 37.1302C51.1433 38.0437 51.3369 38.7792 51.7162 39.2902C52.0994 39.8011 52.6375 40.1611 53.3149 40.3624C53.9885 40.5637 54.7782 40.6644 55.6646 40.6644C56.1833 40.6644 56.7252 40.614 57.2788 40.5095C57.8362 40.405 58.3781 40.2192 58.893 39.956C59.0711 39.8631 59.1098 39.7276 59.1098 39.6308C59.1098 39.445 59.0014 39.3405 58.804 39.3405C58.742 39.3405 58.6762 39.356 58.5911 39.3908C58.4091 39.4837 58.1536 39.5805 57.8362 39.6773C57.5188 39.774 57.1627 39.8592 56.7833 39.925C56.404 39.9908 56.0246 40.0257 55.6569 40.0257C54.422 40.0257 53.4852 39.805 52.8736 39.3676C52.2698 38.934 51.964 38.1831 51.964 37.1302C51.964 36.0773 52.2504 35.3224 52.8156 34.8695Z" fill="#CC9966"/>
<path d="M68.4929 34.3895C67.7806 33.8321 66.6542 33.5457 65.1484 33.5457C63.6426 33.5457 62.5161 33.8282 61.8038 34.3895C61.0877 34.9547 60.72 35.876 60.72 37.1302C60.72 37.8502 60.8632 38.485 61.1458 39.0076C61.4284 39.534 61.9006 39.9482 62.5509 40.2347C63.1935 40.5173 64.0684 40.6605 65.1522 40.6605C66.2361 40.6605 67.1071 40.5173 67.7497 40.2347C68.3961 39.9482 68.8684 39.5379 69.1548 39.0076C69.4374 38.4811 69.5806 37.8502 69.5806 37.1302C69.5806 35.876 69.2167 34.9508 68.4967 34.3895H68.4929ZM68.7522 37.1302C68.7522 37.4824 68.7097 37.8347 68.6206 38.1753C68.5355 38.5121 68.369 38.8257 68.129 39.1044C67.889 39.3831 67.5251 39.6076 67.0529 39.774C66.5767 39.9405 65.9342 40.0257 65.1484 40.0257C64.3626 40.0257 63.72 39.9405 63.2438 39.774C62.7716 39.6076 62.4077 39.3831 62.1677 39.1044C61.9277 38.8257 61.7613 38.5121 61.6761 38.1753C61.5909 37.8347 61.5445 37.4824 61.5445 37.1302C61.5445 36.0657 61.8309 35.2992 62.3922 34.8579C62.9574 34.4128 63.8864 34.1844 65.1522 34.1844C66.418 34.1844 67.3432 34.4089 67.9122 34.8579C68.4735 35.2992 68.76 36.0657 68.76 37.1302H68.7522Z" fill="#CC9966"/>
<path d="M78.0387 33.8554C77.5432 33.6502 76.8658 33.5496 76.0258 33.5496C75.6271 33.5496 75.1935 33.5844 74.7406 33.6502C74.2839 33.7199 73.8348 33.867 73.4051 34.0876C73.018 34.2889 72.6658 34.587 72.36 34.9779V34.1883C72.36 34.0683 72.3368 33.9638 72.298 33.8747C72.2477 33.7741 72.1393 33.7238 71.969 33.7238C71.7793 33.7238 71.6593 33.7779 71.609 33.8863C71.5626 33.9792 71.5432 34.0799 71.5432 34.1883V39.8825C71.5432 40.0412 71.5664 40.1921 71.6129 40.3315C71.6477 40.4438 71.7406 40.5754 71.9806 40.5754C72.1548 40.5754 72.2671 40.4902 72.3097 40.3276C72.3445 40.1883 72.3639 40.0373 72.3639 39.8825V35.9186C72.4993 35.4773 72.7703 35.125 73.169 34.8773C73.5755 34.6257 74.04 34.4438 74.5509 34.3392C75.0619 34.2347 75.5497 34.1805 76.0026 34.1805C76.738 34.1805 77.3032 34.2773 77.6748 34.4709C78.0426 34.6605 78.2942 34.9547 78.4219 35.3379C78.5535 35.7289 78.6193 36.236 78.6193 36.836V39.8786C78.6193 40.0334 78.6348 40.1844 78.6658 40.3199C78.689 40.4321 78.7703 40.5715 79.0219 40.5715C79.1884 40.5715 79.3045 40.4863 79.3626 40.3315C79.4129 40.1921 79.44 40.0373 79.44 39.8786V36.836C79.44 36.0154 79.3316 35.3612 79.1187 34.885C78.9019 34.405 78.538 34.0567 78.0387 33.8476V33.8554Z" fill="#CC9966"/>
<path d="M88.5989 37.0218C88.1421 36.9095 87.635 36.8398 87.0892 36.8089C86.555 36.7818 86.0015 36.7586 85.4479 36.7469C84.9021 36.7353 84.3989 36.7005 83.9498 36.6424C83.5047 36.5844 83.1447 36.476 82.8737 36.3211C82.6144 36.1702 82.4866 35.9418 82.4866 35.6205C82.4866 35.2566 82.626 34.9779 82.9086 34.7728C83.1989 34.5637 83.5821 34.4089 84.0505 34.3237C84.5228 34.2347 85.026 34.1882 85.5486 34.1882C86.3073 34.1882 87.0118 34.2618 87.6428 34.4089C88.2698 34.556 88.8389 34.7573 89.3266 35.0011C89.3576 35.0244 89.4002 35.0282 89.4311 35.0282C89.5086 35.0282 89.5782 34.9895 89.6363 34.9198C89.6905 34.8502 89.7215 34.7689 89.7176 34.6721C89.7021 34.5405 89.6402 34.4437 89.5279 34.3779C88.9705 34.0837 88.3395 33.8669 87.6621 33.7392C86.9847 33.6115 86.2608 33.5457 85.5098 33.5457C84.8866 33.5457 84.2789 33.6037 83.6982 33.7121C83.1098 33.8244 82.6221 34.0334 82.2428 34.3276C81.8557 34.6295 81.6621 35.0631 81.6621 35.6166C81.6621 36.0773 81.8092 36.4411 82.0995 36.6889C82.3821 36.9366 82.7615 37.1108 83.2221 37.2153C83.6789 37.3198 84.186 37.3818 84.7357 37.405C85.2815 37.4282 85.835 37.4476 86.3769 37.4592C86.9228 37.4708 87.4221 37.5095 87.8673 37.5715C88.3124 37.6334 88.6724 37.7534 88.9434 37.9237C89.2066 38.0902 89.3344 38.334 89.3344 38.6747C89.3344 39.0153 89.1873 39.2824 88.8815 39.476C88.5718 39.6734 88.1576 39.8166 87.6505 39.8979C87.1395 39.9792 86.586 40.0218 86.0092 40.0218C85.2776 40.0218 84.5847 39.9715 83.9537 39.8747C83.3266 39.7779 82.7653 39.5573 82.2892 39.2321C82.2544 39.1973 82.204 39.1779 82.1421 39.1779C82.0337 39.1779 81.8518 39.2205 81.8518 39.5186C81.8518 39.6269 81.9021 39.716 81.9989 39.7934C82.3434 40.0605 82.7615 40.2579 83.2376 40.3818C83.7098 40.5018 84.2053 40.5792 84.7124 40.6102C85.2157 40.6411 85.684 40.6605 86.0944 40.6605C86.7873 40.6605 87.4492 40.5986 88.0569 40.4747C88.6724 40.3508 89.1795 40.1457 89.5627 39.8631C89.9537 39.5728 90.155 39.174 90.155 38.6786C90.155 38.1831 90.0079 37.8347 89.7176 37.5753C89.4311 37.3198 89.0557 37.134 88.595 37.0218H88.5989Z" fill="#CC9966"/>
<path d="M99.6466 33.7238C99.4182 33.7238 99.3369 33.8593 99.3098 33.9716C99.275 34.1109 99.2595 34.258 99.2595 34.4167V38.9226C98.9305 39.1664 98.4853 39.4103 97.9279 39.6542C97.3589 39.9019 96.6621 40.0258 95.8531 40.0258C95.1215 40.0258 94.5486 39.9445 94.1537 39.778C93.7666 39.6193 93.4957 39.3522 93.3486 38.9845C93.1976 38.609 93.1202 38.0942 93.1202 37.4555V34.4129C93.1202 34.258 93.1047 34.1071 93.0698 33.9677C93.0428 33.8555 92.9576 33.72 92.7099 33.72C92.5318 33.72 92.4118 33.8051 92.3615 33.9638C92.3189 34.1032 92.2957 34.2542 92.2957 34.4129V37.4555C92.2957 38.5742 92.5744 39.3987 93.124 39.9019C93.6699 40.4051 94.5911 40.6606 95.8531 40.6606C96.5111 40.6606 97.0763 40.5871 97.5331 40.4477C97.986 40.3045 98.3692 40.1303 98.6673 39.9213C98.9073 39.7548 99.1047 39.5884 99.2595 39.4296V39.898C99.2595 40.1342 99.2866 40.2967 99.3408 40.4013C99.4028 40.5174 99.5189 40.5755 99.6892 40.5755C99.8595 40.5755 99.9679 40.4942 100.018 40.3393C100.061 40.2038 100.084 40.0567 100.084 39.898V34.4129C100.084 34.2542 100.065 34.1071 100.026 33.9677C99.995 33.8555 99.9021 33.72 99.6466 33.72V33.7238Z" fill="#CC9966"/>
<path d="M103.204 30.6658C102.949 30.6658 102.86 30.7935 102.825 30.898C102.786 31.0296 102.767 31.1845 102.767 31.3587V39.9213C102.767 40.0838 102.786 40.2309 102.821 40.3548C102.852 40.4554 102.937 40.5793 103.185 40.5793C103.401 40.5793 103.487 40.4593 103.521 40.3587C103.564 40.2309 103.587 40.08 103.587 39.9058V31.3432C103.587 31.1884 103.568 31.0413 103.533 30.9058C103.49 30.7509 103.378 30.6696 103.204 30.6696V30.6658Z" fill="#CC9966"/>
<path d="M110.88 39.3909C110.806 39.3909 110.729 39.4102 110.652 39.4489C110.307 39.6347 109.994 39.778 109.726 39.8747C109.463 39.9715 109.192 40.0218 108.921 40.0218C108.627 40.0218 108.352 39.9715 108.108 39.8747C107.872 39.7818 107.679 39.596 107.539 39.3173C107.396 39.0347 107.323 38.6128 107.323 38.0554V34.3896H110.179C110.462 34.3896 110.505 34.2192 110.505 34.1186C110.505 34.018 110.462 33.8476 110.179 33.8476H107.323V31.7186C107.323 31.5096 107.28 31.378 107.199 31.316C107.055 31.2115 106.831 31.1922 106.641 31.316C106.544 31.378 106.498 31.5096 106.498 31.7225V33.8515H105.786C105.519 33.8515 105.48 34.0218 105.48 34.1225C105.48 34.2231 105.519 34.3934 105.786 34.3934H106.498V38.0592C106.498 39.0231 106.723 39.7044 107.164 40.0876C107.605 40.467 108.155 40.6605 108.797 40.6605C109.146 40.6605 109.475 40.618 109.773 40.5405C110.071 40.4593 110.47 40.2812 110.965 40.0141C111.112 39.9328 111.19 39.8205 111.19 39.6812C111.19 39.4954 111.081 39.3947 110.884 39.3947L110.88 39.3909Z" fill="#CC9966"/>
<path d="M113.361 31.1807C113.191 31.1807 113.056 31.2349 112.947 31.3432C112.843 31.4516 112.789 31.591 112.789 31.7574C112.789 31.9239 112.843 32.0555 112.947 32.1561C113.052 32.2568 113.191 32.311 113.358 32.311C113.524 32.311 113.656 32.2607 113.772 32.16C113.888 32.0594 113.946 31.9239 113.946 31.7613C113.946 31.5987 113.888 31.4516 113.772 31.3432C113.66 31.2349 113.52 31.1807 113.358 31.1807H113.361Z" fill="#CC9966"/>
<path d="M113.369 33.6426C113.129 33.6426 113.044 33.7626 113.013 33.8671C112.978 33.991 112.959 34.1458 112.959 34.32V39.9639C112.959 40.1419 112.978 40.2813 113.013 40.3897C113.059 40.5174 113.176 40.5794 113.369 40.5794C113.617 40.5794 113.702 40.4671 113.729 40.3742C113.764 40.2619 113.779 40.1226 113.779 39.9677V34.3084C113.779 34.1497 113.756 34.0026 113.71 33.8748C113.675 33.7742 113.586 33.6503 113.369 33.6503V33.6426Z" fill="#CC9966"/>
<path d="M122.582 33.8554C122.086 33.6502 121.409 33.5496 120.569 33.5496C120.17 33.5496 119.737 33.5844 119.284 33.6502C118.827 33.7199 118.378 33.867 117.948 34.0876C117.561 34.2889 117.209 34.587 116.903 34.9779V34.1921C116.903 34.0721 116.88 33.9676 116.841 33.8786C116.791 33.7779 116.683 33.7276 116.512 33.7276C116.323 33.7276 116.203 33.7818 116.152 33.8902C116.106 33.9831 116.086 34.0838 116.086 34.1921V39.8863C116.086 40.045 116.11 40.196 116.156 40.3354C116.191 40.4476 116.288 40.5792 116.524 40.5792C116.698 40.5792 116.81 40.4941 116.853 40.3315C116.888 40.1883 116.907 40.0412 116.907 39.8863V35.9225C117.043 35.4812 117.314 35.1289 117.712 34.8812C118.119 34.6296 118.583 34.4476 119.094 34.3431C119.605 34.2386 120.093 34.1844 120.546 34.1844C121.281 34.1844 121.846 34.2812 122.218 34.4747C122.586 34.6644 122.837 34.9586 122.965 35.3418C123.097 35.7367 123.163 36.2399 123.163 36.8399V39.8825C123.163 40.0412 123.178 40.1883 123.209 40.3238C123.232 40.436 123.314 40.5754 123.565 40.5754C123.732 40.5754 123.848 40.4902 123.906 40.3354C123.956 40.196 123.983 40.0412 123.983 39.8825V36.8399C123.983 36.0192 123.875 35.365 123.662 34.8889C123.445 34.4089 123.081 34.0605 122.578 33.8515L122.582 33.8554Z" fill="#CC9966"/>
<path d="M133.916 37.0491C133.835 36.9639 133.699 36.9213 133.502 36.9213H130.587C130.487 36.9213 130.386 36.9291 130.289 36.9484C130.146 36.9755 130.061 37.0839 130.061 37.2387C130.061 37.3936 130.146 37.502 130.293 37.5291C130.39 37.5484 130.487 37.5562 130.587 37.5562H133.386V39.7316C132.902 39.8439 132.407 39.9407 131.911 40.0103C131.385 40.0839 130.839 40.1226 130.281 40.1226C128.958 40.1226 128.001 39.8981 127.436 39.4529C126.879 39.0155 126.6 38.2955 126.6 37.3123C126.6 36.3291 126.883 35.6091 127.436 35.1716C128.001 34.7265 128.958 34.502 130.281 34.502C130.715 34.502 131.168 34.5484 131.632 34.6374C132.097 34.7265 132.546 34.862 132.976 35.04C133.038 35.0671 133.088 35.0787 133.13 35.0787C133.316 35.0787 133.432 34.9665 133.432 34.7884C133.432 34.6878 133.39 34.5484 133.189 34.4594C132.709 34.2581 132.225 34.111 131.749 34.022C131.272 33.9329 130.781 33.8865 130.285 33.8865C128.849 33.8865 127.746 34.1497 127.01 34.6723C126.259 35.2026 125.88 36.0891 125.88 37.3123C125.88 38.5355 126.259 39.422 127.01 39.9523C127.75 40.4749 128.849 40.7381 130.285 40.7381C130.816 40.7381 131.354 40.6994 131.888 40.622C132.418 40.5445 132.972 40.4478 133.533 40.3394C133.649 40.3162 133.758 40.2697 133.862 40.1962C133.982 40.111 134.044 39.9832 134.044 39.8284V37.44C134.044 37.262 134.005 37.1342 133.928 37.0491H133.916Z" fill="#CC9966"/>
<path d="M42.6465 7.67603H9.4104V40.9122H42.6465V7.67603Z" fill="#CC9966"/>
<path d="M15.1975 23.7948H15.0775C14.582 23.7948 14.1794 23.3922 14.1794 22.8967V18.8554C14.1794 18.3599 14.582 17.9573 15.0775 17.9573H22.8156V16.1573H19.893C19.3975 16.1573 18.9949 15.7548 18.9949 15.2593V15.1393C18.9949 14.6438 19.3975 14.2412 19.893 14.2412H23.8336C24.3291 14.2412 24.7317 14.6438 24.7317 15.1393V18.9793C24.7317 19.4748 24.3291 19.8773 23.8336 19.8773H16.0956V22.8967C16.0956 23.3922 15.693 23.7948 15.1975 23.7948Z" fill="#20364F"/>
<path d="M35.5238 20.0592C34.9935 20.0592 34.5638 19.6296 34.5638 19.0992V16.1573H30.1741C29.6438 16.1573 29.2141 15.7276 29.2141 15.1973C29.2141 14.667 29.6438 14.2373 30.1741 14.2373H35.5238C36.0541 14.2373 36.4838 14.667 36.4838 15.1973V19.0992C36.4838 19.6296 36.0541 20.0592 35.5238 20.0592Z" fill="#20364F"/>
<path d="M16.5639 34.5405H14.6246C14.0942 34.5405 13.6646 34.1108 13.6646 33.5805V29.4463C13.6646 28.916 14.0942 28.4863 14.6246 28.4863H17.7562V25.0218C17.7562 24.4914 18.1858 24.0618 18.7162 24.0618C19.2465 24.0618 19.6762 24.4914 19.6762 25.0218V29.4463C19.6762 29.9766 19.2465 30.4063 18.7162 30.4063H15.5846V32.6205H16.5639C17.0942 32.6205 17.5239 33.0502 17.5239 33.5805C17.5239 34.1108 17.0942 34.5405 16.5639 34.5405Z" fill="#20364F"/>
<path d="M25.9123 34.5406H23.2568C22.7265 34.5406 22.2968 34.1109 22.2968 33.5806V30.7857C22.2968 30.5341 22.2001 30.2941 22.022 30.1122L20.8452 28.9122C20.4736 28.5328 20.4814 27.9251 20.8607 27.5535C21.2401 27.1819 21.8478 27.1896 22.2194 27.569L23.942 29.3303C24.1162 29.5083 24.2168 29.7522 24.2168 30.0038V32.6206H25.9123C26.4426 32.6206 26.8723 33.0503 26.8723 33.5806C26.8723 34.1109 26.4426 34.5406 25.9123 34.5406Z" fill="#20364F"/>
<path d="M37.6839 29.4462C37.1536 29.4462 36.7239 28.9391 36.7239 28.312V24.2243C36.7239 23.5972 37.1536 23.0901 37.6839 23.0901C38.2142 23.0901 38.6439 23.5972 38.6439 24.2243V28.312C38.6439 28.9391 38.2142 29.4462 37.6839 29.4462Z" fill="#20364F"/>
<path d="M33.6001 34.5406H31.0026C30.4723 34.5406 30.0426 34.1109 30.0426 33.5806V28.258C30.0426 28.018 29.9536 27.7896 29.7949 27.6154L25.5175 22.8928C25.1613 22.5019 25.1923 21.8941 25.5833 21.538C25.9742 21.1819 26.582 21.2128 26.9381 21.6038L31.7149 26.876C31.8736 27.0541 31.9626 27.2825 31.9626 27.5186V32.6206H33.6001C34.1304 32.6206 34.5601 33.0502 34.5601 33.5806C34.5601 34.1109 34.1304 34.5406 33.6001 34.5406Z" fill="#20364F"/>
<path d="M35.1136 26.3883C34.7304 26.756 34.1226 26.7405 33.7549 26.3573L31.6104 24.1121C31.591 24.0928 30.0271 22.405 28.862 21.1237C28.502 20.7289 28.5368 20.1173 28.9355 19.7612C29.3304 19.4128 29.9304 19.4437 30.2826 19.8347C31.4052 21.0734 32.9149 22.6992 33.0078 22.7999L35.1368 25.0334C35.5046 25.4166 35.4891 26.0244 35.1059 26.3921L35.1136 26.3883Z" fill="#20364F"/>
<path d="M27.8748 29.6903C27.4916 30.058 26.8839 30.0425 26.5161 29.6593L24.3716 27.4141C24.3522 27.3948 22.7884 25.707 21.6232 24.4257C21.2632 24.0309 21.2981 23.4193 21.6968 23.0632C22.0916 22.7148 22.6916 22.7457 23.0439 23.1367C24.1664 24.3754 25.6761 26.0012 25.769 26.1057L27.8981 28.3354C28.2658 28.7186 28.2503 29.3264 27.8671 29.6941L27.8748 29.6903Z" fill="#20364F"/>
</svg>
