<svg width="120" height="120" viewBox="0 0 120 120" fill="none" xmlns="http://www.w3.org/2000/svg">
<g clip-path="url(#clip0_94_2291)">
<path d="M120 0H0V120H120V0Z" fill="#CC9966"/>
<path d="M20.8935 58.2097H20.458C18.6677 58.2097 17.2161 56.7581 17.2161 54.9678V40.3742C17.2161 38.5839 18.6677 37.1323 20.458 37.1323H48.4064V30.6387H37.858C36.0677 30.6387 34.6161 29.1871 34.6161 27.3968V26.9613C34.6161 25.171 36.0677 23.7194 37.858 23.7194H52.0935C53.8838 23.7194 55.3354 25.171 55.3354 26.9613V40.8194C55.3354 42.6097 53.8838 44.0613 52.0935 44.0613H24.1451V54.9678C24.1451 56.7581 22.6935 58.2097 20.9032 58.2097H20.8935Z" fill="#20364F"/>
<path d="M94.2773 44.7096C92.3612 44.7096 90.8128 43.1612 90.8128 41.2451V30.629H74.9709C73.0547 30.629 71.5063 29.0806 71.5063 27.1645C71.5063 25.2483 73.0547 23.7 74.9709 23.7H94.2773C96.1934 23.7 97.7418 25.2483 97.7418 27.1645V41.2451C97.7418 43.1612 96.1934 44.7096 94.2773 44.7096Z" fill="#20364F"/>
<path d="M25.829 97.0064H18.8322C16.9161 97.0064 15.3677 95.458 15.3677 93.5419V78.6096C15.3677 76.6935 16.9161 75.1451 18.8322 75.1451H30.1451V62.6419C30.1451 60.7258 31.6935 59.1774 33.6096 59.1774C35.5257 59.1774 37.0741 60.7258 37.0741 62.6419V78.6096C37.0741 80.5258 35.5257 82.0741 33.6096 82.0741H22.2967V90.0677H25.829C27.7451 90.0677 29.2935 91.6161 29.2935 93.5322C29.2935 95.4483 27.7451 96.9967 25.829 96.9967V97.0064Z" fill="#20364F"/>
<path d="M59.574 97.0064H49.9934C48.0773 97.0064 46.5289 95.458 46.5289 93.5419V83.4483C46.5289 82.5387 46.1708 81.6677 45.5418 81.0193L41.2934 76.6838C39.9579 75.3193 39.9773 73.1225 41.3418 71.787C42.7063 70.4516 44.9031 70.4709 46.2386 71.8354L52.4611 78.1838C53.0998 78.8322 53.4482 79.7032 53.4482 80.6129V90.0677H59.5644C61.4805 90.0677 63.0289 91.6161 63.0289 93.5322C63.0289 95.4483 61.4805 96.9967 59.5644 96.9967L59.574 97.0064Z" fill="#20364F"/>
<path d="M102.087 78.6096C100.171 78.6096 98.6226 76.7806 98.6226 74.516V59.758C98.6226 57.5031 100.171 55.6644 102.087 55.6644C104.003 55.6644 105.552 57.4935 105.552 59.758V74.516C105.552 76.7709 104.003 78.6096 102.087 78.6096Z" fill="#20364F"/>
<path d="M87.3386 97.0065H77.9612C76.0451 97.0065 74.4967 95.4581 74.4967 93.5419V74.3226C74.4967 73.4613 74.1774 72.629 73.5967 72L58.1516 54.9387C56.8645 53.5161 56.9709 51.329 58.3935 50.0419C59.8161 48.7548 62.0032 48.8613 63.2903 50.2839L80.5354 69.3194C81.1161 69.9581 81.4354 70.7903 81.4354 71.6419V90.0677H87.3483C89.2645 90.0677 90.8128 91.6161 90.8128 93.5323C90.8128 95.4484 89.2645 96.9968 87.3483 96.9968L87.3386 97.0065Z" fill="#20364F"/>
<path d="M92.7968 67.5774C91.4129 68.9032 89.2161 68.8451 87.9 67.4612L80.1581 59.3516C80.0903 59.2741 74.4387 53.187 70.2387 48.5515C68.9419 47.1193 69.0677 44.9128 70.5097 43.6354C71.9323 42.3774 74.1 42.4935 75.3774 43.9064C79.4226 48.3774 84.8806 54.2515 85.2194 54.6193L92.9129 62.6806C94.2387 64.0644 94.1806 66.2612 92.7968 67.5774Z" fill="#20364F"/>
<path d="M66.6676 79.4903C65.2838 80.8161 63.087 80.7581 61.7708 79.3742L54.0289 71.2645C53.9612 71.1871 48.3096 65.1 44.1096 60.4645C42.8128 59.0323 42.9386 56.8258 44.3805 55.5484C45.8031 54.2903 47.9709 54.4065 49.2483 55.8194C53.3031 60.2903 58.7515 66.1645 59.0902 66.5323L66.7838 74.5935C68.1096 75.9774 68.0515 78.1742 66.6676 79.4903Z" fill="#20364F"/>
</g>
<defs>
<clipPath id="clip0_94_2291">
<rect width="120" height="120" fill="white"/>
</clipPath>
</defs>
</svg>
