<svg width="30" height="24" viewBox="0 0 30 24" fill="none" xmlns="http://www.w3.org/2000/svg">
<path d="M2.04649 11.2982H1.90391C1.31778 11.2982 0.842529 10.823 0.842529 10.2368V5.45902C0.842529 4.87288 1.31778 4.39763 1.90391 4.39763H11.054V2.27169H7.60054C7.01441 2.27169 6.53916 1.79645 6.53916 1.21031V1.06773C6.53916 0.481595 7.01441 0.00634766 7.60054 0.00634766H12.2611C12.8473 0.00634766 13.3225 0.481595 13.3225 1.06773V5.60476C13.3225 6.1909 12.8473 6.66615 12.2611 6.66615H3.11104V10.2368C3.11104 10.823 2.6358 11.2982 2.04966 11.2982H2.04649Z" fill="#E5CCB2"/>
<path d="M26.0717 6.87841C25.4444 6.87841 24.9375 6.37148 24.9375 5.74415V2.26851H19.751C19.1236 2.26851 18.6167 1.76158 18.6167 1.13426C18.6167 0.50693 19.1236 0 19.751 0H26.0717C26.6991 0 27.206 0.50693 27.206 1.13426V5.74415C27.206 6.37148 26.6991 6.87841 26.0717 6.87841Z" fill="#E5CCB2"/>
<path d="M3.66225 24.0001H1.37156C0.744235 24.0001 0.237305 23.4931 0.237305 22.8658V17.9771C0.237305 17.3498 0.744235 16.8428 1.37156 16.8428H5.07532V12.7494C5.07532 12.122 5.58225 11.6151 6.20958 11.6151C6.8369 11.6151 7.34384 12.122 7.34384 12.7494V17.9771C7.34384 18.6044 6.8369 19.1113 6.20958 19.1113H2.50582V21.7284H3.66225C4.28958 21.7284 4.79651 22.2353 4.79651 22.8626C4.79651 23.49 4.28958 23.9969 3.66225 23.9969V24.0001Z" fill="#E5CCB2"/>
<path d="M14.7102 23.9999H11.5735C10.9462 23.9999 10.4393 23.493 10.4393 22.8657V19.5611C10.4393 19.2633 10.3221 18.9781 10.1161 18.7659L8.72523 17.3465C8.288 16.8997 8.29434 16.1805 8.74107 15.7433C9.1878 15.3061 9.90701 15.3124 10.3442 15.7591L12.3815 17.8375C12.5906 18.0498 12.7046 18.335 12.7046 18.6328V21.7282H14.707C15.3343 21.7282 15.8413 22.2352 15.8413 22.8625C15.8413 23.4898 15.3343 23.9968 14.707 23.9968L14.7102 23.9999Z" fill="#E5CCB2"/>
<path d="M28.6286 17.977C28.0013 17.977 27.4944 17.3782 27.4944 16.6368V11.8052C27.4944 11.0669 28.0013 10.465 28.6286 10.465C29.256 10.465 29.7629 11.0638 29.7629 11.8052V16.6368C29.7629 17.3751 29.256 17.977 28.6286 17.977Z" fill="#E5CCB2"/>
<path d="M23.8 24.0001H20.7299C20.1026 24.0001 19.5957 23.4932 19.5957 22.8659V16.5736C19.5957 16.2916 19.4911 16.0191 19.301 15.8132L14.2444 10.2274C13.823 9.7617 13.8579 9.04566 14.3236 8.62428C14.7893 8.20289 15.5054 8.23774 15.9268 8.70348L21.5727 14.9356C21.7628 15.1447 21.8674 15.4171 21.8674 15.696V21.7284H23.8032C24.4305 21.7284 24.9375 22.2354 24.9375 22.8627C24.9375 23.49 24.4305 23.9969 23.8032 23.9969L23.8 24.0001Z" fill="#E5CCB2"/>
<path d="M25.5869 14.3651C25.1339 14.7992 24.4147 14.7802 23.9838 14.3271L21.4491 11.6721C21.4269 11.6467 19.5767 9.65387 18.2016 8.13624C17.777 7.66733 17.8182 6.94496 18.2903 6.52674C18.7561 6.11486 19.4658 6.15288 19.884 6.61545C21.2083 8.07921 22.9953 10.0024 23.1062 10.1228L25.625 12.762C26.059 13.215 26.04 13.9343 25.5869 14.3651Z" fill="#E5CCB2"/>
<path d="M17.0325 18.2654C16.5794 18.6995 15.8602 18.6805 15.4293 18.2274L12.8947 15.5724C12.8725 15.547 11.0222 13.5541 9.64716 12.0365C9.22261 11.5676 9.26379 10.8452 9.73587 10.427C10.2016 10.0151 10.9113 10.0531 11.3295 10.5157C12.6571 11.9795 14.4408 13.9026 14.5517 14.023L17.0705 16.6623C17.5046 17.1153 17.4856 17.8345 17.0325 18.2654Z" fill="#E5CCB2"/>
</svg>
