<svg width="32" height="32" viewBox="0 0 32 32" fill="none" xmlns="http://www.w3.org/2000/svg">
<path fill-rule="evenodd" clip-rule="evenodd" d="M32 0H0V32H32V0ZM10.3331 23.8314C9.91418 24.2037 9.37891 24.7157 8.72727 25.3674V27.6364H21.4342C23.4124 27.6364 24.4015 26.7055 24.4015 24.8437V22.2255H23.3542C23.3542 23.459 22.9702 24.4132 22.2022 25.0881C21.4575 25.7397 20.3869 26.0655 18.9905 26.0655H11.7644C12.16 25.6699 12.9164 25.0299 14.0335 24.1455C15.9185 22.6561 17.5593 21.2597 18.9556 19.9564C20.3753 18.6299 21.632 17.1404 22.7258 15.4881C23.8429 13.8357 24.4015 12.2183 24.4015 10.6357C24.4015 8.09899 23.5869 6.3419 21.9578 5.36444C20.352 4.38699 18.4902 3.89826 16.3724 3.89826C14.9527 3.89826 13.6262 4.1659 12.3927 4.70117C11.1593 5.23644 10.2167 5.89971 9.56509 6.69099C9.19273 7.17971 8.96 7.80808 8.86691 8.57608C8.77382 9.34408 8.72727 10.3448 8.72727 11.5783H9.94909C10.2982 9.50699 10.9615 7.97099 11.9389 6.97026C12.9164 5.96953 14.1615 5.46917 15.6742 5.46917C16.7447 5.46917 17.6524 5.91135 18.3971 6.79571C19.1418 7.65681 19.5142 8.93681 19.5142 10.6357C19.5142 12.0088 19.0371 13.4866 18.0829 15.0692C17.1287 16.6284 16.0233 18.083 14.7665 19.4328C13.5098 20.7826 12.032 22.2488 10.3331 23.8314Z" fill="#CC9966"/>
</svg>
