<svg width="32" height="32" viewBox="0 0 32 32" fill="none" xmlns="http://www.w3.org/2000/svg">
<path fill-rule="evenodd" clip-rule="evenodd" d="M32 0H0V32H32V0ZM8.34783 15.8609C8.34783 23.6522 11.1304 27.5478 16.6957 27.5478C18.343 27.5478 19.7565 27.2028 20.9363 26.5127C22.1384 25.8226 23.04 24.9099 23.641 23.7746C24.2421 22.617 24.5426 21.3704 24.5426 20.0348C24.5426 17.6083 23.9972 15.7384 22.9064 14.425C21.8157 13.0894 20.0237 12.4216 17.5304 12.4216C16.3283 12.4216 15.193 12.6887 14.1245 13.223C13.6348 13.4678 13.2118 13.735 12.8557 14.0243C12.8557 11.2417 13.3454 9.16035 14.3249 7.78017C15.3043 6.37774 16.6511 5.67652 18.3652 5.67652C18.9663 5.67652 19.9457 5.77669 21.3037 5.97704L22.8397 6.24417L23.04 5.30922C22.5725 5.08661 22.0605 4.89739 21.504 4.74156C20.1238 4.36313 18.855 4.17391 17.6974 4.17391C14.5809 4.17391 12.2435 5.13113 10.6852 7.04556C9.12696 8.93774 8.34783 11.8762 8.34783 15.8609ZM19.1332 24.3423C18.5544 25.4776 17.7419 26.0452 16.6957 26.0452C15.4713 26.0452 14.5252 25.2104 13.8574 23.5409C13.1896 21.849 12.8557 19.2111 12.8557 15.6271C12.8557 15.5603 13.0337 15.3823 13.3899 15.0929C13.7683 14.8035 14.2358 14.5363 14.7923 14.2915C15.3489 14.0466 15.9277 13.9242 16.5287 13.9242C17.7753 13.9242 18.6657 14.4362 19.2 15.4602C19.7565 16.4619 20.0348 17.9868 20.0348 20.0348C20.0348 21.7489 19.7343 23.1847 19.1332 24.3423Z" fill="#CC9966"/>
</svg>
