<svg width="32" height="32" viewBox="0 0 32 32" fill="none" xmlns="http://www.w3.org/2000/svg">
<path fill-rule="evenodd" clip-rule="evenodd" d="M32 0H0V32H32V0ZM11.8028 27.3921C13.0363 28.0204 14.5606 28.3346 16.3759 28.3346C17.6792 28.3346 19.0057 28.1135 20.3555 27.6713C21.7286 27.2291 22.8923 26.4611 23.8465 25.3673C24.8006 24.2735 25.2777 22.819 25.2777 21.0037C25.2777 19.3048 24.8123 17.9317 23.8814 16.8844C22.9505 15.8371 21.7985 15.104 20.4254 14.6851C19.0755 14.243 17.6908 14.0219 16.2712 14.0219C16.1315 14.0219 15.4683 14.0568 14.2814 14.1266L13.2341 14.1964L13.5483 6.13241H23.0785V4.59641H9.49882L9.11482 15.0691L10.5112 16.4306C11.1628 16.2444 11.6515 16.1164 11.9774 16.0466C12.9315 15.7673 13.8974 15.6277 14.8748 15.6277C16.6435 15.6277 18.005 16.0815 18.9592 16.9891C19.9134 17.8735 20.3905 19.2117 20.3905 21.0037C20.3905 22.9586 19.9483 24.4131 19.0639 25.3673C18.1795 26.2982 17.0159 26.7637 15.573 26.7637C14.5025 26.7637 13.4203 26.5077 12.3265 25.9957C11.2326 25.4837 10.2668 24.7041 9.429 23.6568L8.41664 24.5644C9.46391 25.8211 10.5926 26.7637 11.8028 27.3921Z" fill="#CC9966"/>
</svg>
