<svg width="32" height="32" viewBox="0 0 32 32" fill="none" xmlns="http://www.w3.org/2000/svg">
<path fill-rule="evenodd" clip-rule="evenodd" d="M32 0H0V32H32V0ZM10.8335 27.3921C12.16 28.0204 13.8822 28.3346 16 28.3346C17.1171 28.3346 18.2924 28.1251 19.5258 27.7062C20.7825 27.2873 21.8764 26.5426 22.8073 25.472C23.7382 24.4015 24.2036 22.9702 24.2036 21.1782C24.2036 19.5724 23.808 18.2459 23.0167 17.1986C22.2255 16.1513 21.2364 15.395 20.0495 14.9295C18.8858 14.4408 17.7105 14.1964 16.5236 14.1964C16.0582 14.1964 15.6044 14.2197 15.1622 14.2662C14.7433 14.2895 14.4524 14.3128 14.2895 14.3361L22.9818 6.16732V4.59641H11.1825C9.20436 4.59641 8.21527 5.52732 8.21527 7.38914V10.0073H9.26255C9.26255 8.77387 9.63491 7.83132 10.3796 7.17969C11.1476 6.50478 12.2298 6.16732 13.6262 6.16732H19.8749L10.3447 15.104L11.1825 16.4306L12.2298 16.1164C13.1142 15.8837 13.9869 15.7673 14.848 15.7673C16.1513 15.7673 17.2218 16.2211 18.0596 17.1288C18.8975 18.0364 19.3164 19.3862 19.3164 21.1782C19.3164 23.0633 18.8625 24.4713 17.9549 25.4022C17.0705 26.3099 15.9069 26.7637 14.464 26.7637C13.44 26.7637 12.3811 26.4961 11.2873 25.9608C10.2167 25.4255 9.20436 24.6226 8.25018 23.5521L7.27273 24.5644C8.34327 25.8211 9.53018 26.7637 10.8335 27.3921Z" fill="#CC9966"/>
</svg>
