<svg width="33" height="32" viewBox="0 0 33 32" fill="none" xmlns="http://www.w3.org/2000/svg">
<path d="M27.1667 32H24.5C21.5533 32 19.1667 29.6133 19.1667 26.6667V17.3333C19.1667 14.3867 21.5533 12 24.5 12H27.1667C30.1133 12 32.5 14.3867 32.5 17.3333V26.6667C32.5 29.6133 30.1133 32 27.1667 32ZM16.5 18.6667H12.5L12.1667 18.28C11.66 17.68 10.9133 17.3333 10.1267 17.3333H3.83333C1.99333 17.3333 0.5 18.8267 0.5 20.6667C0.5 22.5067 1.99333 24 3.83333 24H16.5V18.6667ZM10.14 14.6667C11.4467 14.6667 12.7 15.1467 13.6733 16H16.6333C17.2733 12.2267 20.5533 9.33333 24.5133 9.33333H27.18C28.1133 9.33333 29.0067 9.50667 29.8467 9.8V6.66667C29.8467 2.98667 26.86 0 23.18 0H9.83333C6.15333 0 3.16667 2.98667 3.16667 6.66667V14.8133C3.59333 14.72 4.04667 14.6667 4.5 14.6667H10.14Z" fill="#F5EBE0"/>
</svg>
