<svg width="20" height="24" viewBox="0 0 20 24" fill="none" xmlns="http://www.w3.org/2000/svg">
<path d="M10 0.0419922C7.35398 0.0449033 4.81712 1.09727 2.94598 2.96822C1.07484 4.83918 0.0222192 7.37593 0.019043 10.022C0.019043 12.592 2.00904 16.614 5.93404 21.976C6.4013 22.6161 7.0131 23.1369 7.71964 23.4959C8.42619 23.8549 9.20752 24.042 10 24.042C10.7926 24.042 11.5739 23.8549 12.2804 23.4959C12.987 23.1369 13.5988 22.6161 14.066 21.976C17.991 16.614 19.981 12.592 19.981 10.022C19.9779 7.37593 18.9252 4.83918 17.0541 2.96822C15.183 1.09727 12.6461 0.0449033 10 0.0419922ZM10 14C9.20892 14 8.43556 13.7654 7.77776 13.3259C7.11997 12.8863 6.60728 12.2616 6.30452 11.5307C6.00177 10.7998 5.92256 9.99556 6.0769 9.21963C6.23124 8.44371 6.61221 7.73098 7.17162 7.17157C7.73103 6.61216 8.44376 6.23119 9.21968 6.07685C9.99561 5.92251 10.7999 6.00172 11.5308 6.30448C12.2617 6.60723 12.8864 7.11992 13.3259 7.77771C13.7654 8.43551 14 9.20887 14 9.99999C14 11.0609 13.5786 12.0783 12.8285 12.8284C12.0783 13.5786 11.0609 14 10 14Z" fill="#091F37"/>
</svg>
