<svg width="28" height="87" viewBox="0 0 28 87" fill="none" xmlns="http://www.w3.org/2000/svg">
<path d="M24.87 0.319999L25.18 0.319999C26.46 0.32 27.5 1.36 27.5 2.64L27.5 51.08C27.5 52.36 26.46 53.4 25.18 53.4L5.19 53.4L5.19 82.05L12.74 82.05C14.02 82.05 15.06 83.09 15.06 84.37L15.06 84.68C15.06 85.96 14.02 87 12.74 87L2.56 87C1.28 87 0.239998 85.96 0.239998 84.68L0.240001 50.76C0.240001 49.48 1.28 48.44 2.56 48.44L22.55 48.44L22.55 2.64C22.55 1.36 23.59 0.319999 24.87 0.319999Z" fill="#CC9966"/>
</svg>
