<svg width="32" height="32" viewBox="0 0 32 32" fill="none" xmlns="http://www.w3.org/2000/svg">
<g clip-path="url(#clip0_94_2516)">
<path d="M31.8667 15.2493C31.4887 12.3621 30.3299 9.63274 28.5152 7.35544C26.7006 5.07814 24.2988 3.33923 21.5689 2.32613C18.8389 1.31302 15.8842 1.06412 13.0232 1.60627C10.1622 2.14841 7.50345 3.46103 5.33339 5.40267C3.69368 6.88435 2.37713 8.68824 1.466 10.7017C0.554862 12.7151 0.0687179 14.8948 0.0379363 17.1045C0.00715471 19.3143 0.432397 21.5067 1.2871 23.5447C2.1418 25.5827 3.40759 27.4226 5.00539 28.9493C6.22304 30.0754 7.82702 30.6903 9.48539 30.6667H22.5067C24.2557 30.6713 25.9361 29.9868 27.1841 28.7613C28.9641 27.0302 30.3146 24.9067 31.1276 22.5606C31.9407 20.2145 32.1938 17.7107 31.8667 15.2493ZM23.6081 11.6093L18.5667 16.6507C18.7187 17.2177 18.6793 17.819 18.4547 18.3614C18.2301 18.9038 17.8328 19.3569 17.3244 19.6504C16.816 19.944 16.225 20.0616 15.643 19.9849C15.0609 19.9083 14.5205 19.6418 14.1054 19.2267C13.6903 18.8116 13.4237 18.2711 13.3471 17.6891C13.2705 17.1071 13.3881 16.516 13.6816 16.0076C13.9752 15.4993 14.4283 15.1019 14.9707 14.8773C15.513 14.6527 16.1144 14.6133 16.6814 14.7653L21.7227 9.724C21.8465 9.60012 21.9935 9.50184 22.1553 9.43476C22.3171 9.36769 22.4905 9.33313 22.6656 9.33307C22.8407 9.333 23.0141 9.36744 23.176 9.4344C23.3378 9.50136 23.4848 9.59954 23.6087 9.72334C23.7326 9.84713 23.8309 9.99411 23.898 10.1559C23.965 10.3177 23.9996 10.4911 23.9997 10.6662C23.9997 10.8413 23.9653 11.0148 23.8983 11.1766C23.8314 11.3384 23.7332 11.4855 23.6094 11.6093H23.6081Z" fill="#F5EBE0"/>
</g>
<defs>
<clipPath id="clip0_94_2516">
<rect width="32" height="32" fill="white"/>
</clipPath>
</defs>
</svg>
