<svg width="116" height="66" viewBox="0 0 116 66" fill="none" xmlns="http://www.w3.org/2000/svg">
<path d="M38.2968 31.2508C38.8261 30.3342 39.4224 29.6424 40.1311 29.0808C40.6283 28.6872 41.2095 28.3896 41.7817 28.1085C43.2335 27.3953 44.7753 27.4448 46.3123 27.6887C47.0742 27.8091 47.7962 28.1134 48.4861 28.4709C48.5514 28.5045 48.6245 28.6029 48.6251 28.6719C48.6341 29.5654 48.6311 30.4594 48.6311 31.3731C47.7907 30.9098 46.9781 30.4839 46.0574 30.2694C45.3843 30.1129 44.7222 30.0573 44.0612 30.1783C42.8553 30.3989 41.8052 30.9098 41.0621 31.9646C40.6531 32.5452 40.3969 33.1697 40.2121 33.8542C39.9861 34.6896 39.9613 35.5341 40.1238 36.353C40.3885 37.6877 40.96 38.8604 42.1478 39.6542C42.8021 40.0918 43.4878 40.3717 44.2618 40.4536C44.5385 40.4829 44.82 40.5807 45.0889 40.5507C45.9873 40.4511 46.8525 40.2739 47.6083 39.6836C48.2988 39.1446 48.79 38.4998 49.1543 37.7011C49.5984 36.7282 49.7337 35.715 49.7349 34.67C49.7416 30.2492 49.7398 25.8278 49.7416 21.4071C49.7416 21.1048 49.8958 20.9536 50.2044 20.9536C50.9372 20.9536 51.693 20.9536 52.4428 20.9536C52.447 21.0648 52.4428 21.1156 52.4428 21.1834C52.4404 25.9507 52.435 30.7179 52.4343 35.4852C52.4343 36.3561 52.2652 37.2037 52.0024 38.0177C51.7396 38.8311 51.3456 39.5919 50.8321 40.291C50.3337 40.9699 49.7386 41.5371 49.0432 41.9807C48.5961 42.2661 48.088 42.4604 47.595 42.6646C46.386 43.1651 45.1185 43.2384 43.8479 43.0532C42.9399 42.9206 42.056 42.6725 41.2422 42.1885C40.6519 41.8377 40.0864 41.4649 39.6236 40.9614C39.2708 40.5776 38.9373 40.1633 38.666 39.719C38.3941 39.2735 38.2111 38.773 37.9839 38.2988C37.9549 38.2383 37.8963 38.1918 37.8552 38.1429C36.8402 39.1317 35.8264 40.1187 34.7951 41.1227C34.7951 41.0201 34.7951 40.9137 34.7951 40.8074C34.7951 38.7803 34.7806 36.7527 34.8017 34.7262C34.8108 33.8432 34.6954 32.9772 34.4435 32.1473C34.2405 31.4788 33.9342 30.8438 33.5094 30.2596C32.9639 29.5092 32.2993 28.9188 31.5193 28.4599C30.607 27.9233 29.6138 27.6104 28.5565 27.5328C27.939 27.4876 27.3149 27.3862 26.7029 27.4332C25.4263 27.5322 24.1871 27.8482 23.0821 28.5253C22.1934 29.0698 21.4436 29.7939 20.8739 30.6801C20.4467 31.3443 20.1519 32.0734 19.9362 32.8403C19.555 34.1921 19.5786 35.561 19.8208 36.914C19.9707 37.7506 20.2794 38.5542 20.7041 39.3157C21.0594 39.9531 21.4835 40.5263 21.9874 41.028C22.3952 41.4344 22.8743 41.7821 23.3643 42.0858C24.1557 42.5759 25.0354 42.8124 25.9543 42.9854C26.9162 43.1669 27.8321 43.0489 28.7426 42.8204C29.5231 42.6242 30.1968 42.1665 30.8584 41.7124C30.9127 41.6752 30.9568 41.5786 30.9568 41.5096C30.9617 40.5116 30.958 39.5137 30.955 38.5157C30.955 38.4992 30.9357 38.4827 30.9133 38.4461C30.6717 38.6801 30.433 38.9099 30.195 39.1403C29.7122 39.6084 29.16 39.9463 28.5251 40.1792C27.7572 40.4609 26.9814 40.4584 26.2123 40.3051C25.2426 40.1113 24.4125 39.6273 23.7334 38.8812C22.4193 37.4377 22.1843 35.7223 22.548 33.8927C22.7849 32.7004 23.4229 31.7061 24.3998 30.9826C25.2855 30.3268 26.2999 30.0616 27.4019 30.0824C28.075 30.0952 28.7238 30.2211 29.3425 30.4509C30.1201 30.7406 30.7895 31.2062 31.2897 31.9047C31.5864 32.3191 31.819 32.7517 31.8903 33.2577C31.9585 33.7442 32.0443 34.2343 32.0467 34.7238C32.0612 37.6981 32.0528 40.6729 32.0558 43.6472C32.0558 43.8978 32.0153 44.0884 31.8093 44.2852C31.0541 45.0088 30.343 45.7794 29.5962 46.5121C29.1498 46.9497 28.6253 47.2613 27.9904 47.3561C27.304 47.4581 26.6062 47.4972 25.9676 47.2247C25.5 47.0254 25.0704 46.7003 24.6759 46.3691C24.2288 45.9933 23.8385 45.5478 23.4241 45.1322C23.0078 44.7148 22.5927 44.2956 22.1753 43.8794C21.7524 43.4578 21.3252 43.0398 20.9029 42.6169C20.4902 42.2032 20.083 41.7846 19.671 41.3696C19.2692 40.9651 18.865 40.5623 18.4615 40.1602C18.0422 39.7422 17.6199 39.3273 17.2018 38.9081C16.6115 38.3159 16.0279 37.717 15.4334 37.1291C14.9748 36.6751 14.6431 36.1526 14.4353 35.5329C14.2528 34.9884 14.2045 34.4421 14.3163 33.8914C14.4589 33.1893 14.7283 32.5446 15.2515 32.0239C15.7584 31.5191 16.2297 30.9783 16.7305 30.4674C17.2308 29.9565 17.7558 29.4701 18.2566 28.9598C18.7515 28.455 19.2227 27.927 19.7163 27.4216C20.219 26.9077 20.7404 26.4127 21.2467 25.9018C21.5512 25.595 21.8381 25.2705 22.139 24.9601C22.6387 24.4431 23.1419 23.9297 23.6446 23.4158C23.96 23.0937 24.2753 22.7711 24.5962 22.4545C25.1472 21.9106 25.7846 21.5134 26.5651 21.4541C27.0225 21.4193 27.4931 21.4376 27.9469 21.5054C28.6018 21.6032 29.1389 21.9754 29.6095 22.4264C30.233 23.0234 30.8378 23.6407 31.4432 24.2561C31.9537 24.7755 32.4461 25.3139 32.9615 25.8278C33.6762 26.541 34.4084 27.2358 35.1262 27.9466C35.9291 28.7416 36.7284 29.5403 37.5187 30.3476C37.7821 30.6165 38.0135 30.9178 38.2987 31.2502L38.2968 31.2508Z" fill="#F5EBE0"/>
<path d="M62.1749 39.3817C62.9766 39.8339 63.7662 40.222 64.635 40.464C65.4265 40.684 66.2119 40.7066 66.9816 40.5422C67.6752 40.3943 68.3446 40.1322 68.9252 39.6512C69.556 39.1287 70.0133 38.5194 70.3347 37.7629C70.8169 36.6299 70.8785 35.4572 70.6701 34.2826C70.5148 33.4093 70.145 32.6014 69.5487 31.9054C68.231 30.3672 66.5466 30.047 64.6822 30.3843C63.6321 30.5744 62.825 31.2081 62.2063 32.0838C61.4021 33.2229 61.0807 34.5142 61.0765 35.8898C61.065 39.5968 61.0698 43.3044 61.0686 47.0114C61.0686 47.1318 61.0686 47.2528 61.0686 47.3995H58.3662C58.3662 47.2987 58.3662 47.2009 58.3662 47.1031C58.3662 43.294 58.371 39.485 58.3638 35.6759C58.362 34.703 58.5003 33.7497 58.7879 32.8306C59.125 31.752 59.6422 30.7467 60.4167 29.9235C61.0463 29.255 61.7664 28.6934 62.6334 28.3243C63.2068 28.0798 63.7862 27.9179 64.3885 27.7767C65.2193 27.5818 66.0512 27.5732 66.8711 27.6942C67.6402 27.8079 68.4292 27.9283 69.121 28.3493C69.6327 28.661 70.1795 28.9262 70.6501 29.2917C71.2501 29.7567 71.7503 30.3403 72.1454 30.9991C72.8003 32.0918 73.2595 33.2565 73.3471 34.5478C73.3834 35.0813 73.4843 35.6185 73.4498 36.1471C73.3894 37.0766 73.2148 37.9823 72.8197 38.8513C72.5424 39.4605 72.2288 40.0405 71.8168 40.5489C71.3268 41.1539 70.748 41.6722 70.0864 42.103C69.4388 42.5247 68.7397 42.8155 68.0166 43.038C67.61 43.1633 67.1623 43.1993 66.7345 43.1932C65.9521 43.1822 65.1546 43.1914 64.3934 43.0386C63.6865 42.8968 63.0171 42.5595 62.3374 42.2912C62.2613 42.2613 62.1833 42.1189 62.1821 42.0278C62.1706 41.1545 62.1749 40.2813 62.1749 39.3829V39.3817Z" fill="#F5EBE0"/>
<path d="M101.719 36.823C101.495 37.9132 101.11 38.9405 100.462 39.8633C99.9721 40.5612 99.4042 41.1839 98.7172 41.6624C98.0992 42.0926 97.431 42.4452 96.7017 42.6939C95.5194 43.0973 94.3213 43.2378 93.0997 43.0582C92.359 42.9494 91.6183 42.7813 90.9476 42.4037C90.5187 42.1623 90.0637 41.9618 89.6571 41.6874C89.294 41.4424 88.9509 41.1497 88.6536 40.8264C88.2748 40.4145 87.9159 39.9745 87.6157 39.5021C87.3565 39.0945 87.1631 38.6368 86.9904 38.1821C86.51 36.922 86.3372 35.6105 86.5318 34.274C86.6454 33.4961 86.7988 32.7139 87.1891 32.0123C87.4779 31.4929 87.7353 30.9472 88.0887 30.4754C88.4228 30.0287 88.8427 29.6394 89.262 29.2666C89.9024 28.6964 90.674 28.3353 91.4449 27.9839C91.5802 27.9222 91.7373 27.9105 91.8811 27.8647C93.1456 27.465 94.4361 27.4449 95.7212 27.6802C96.3785 27.8005 97.0201 28.0138 97.6303 28.3347C98.2961 28.6842 98.8997 29.1102 99.4616 29.5978C99.7787 29.8734 100.068 30.1967 100.312 30.5408C100.826 31.2637 101.266 32.0429 101.485 32.9076C101.684 33.6965 101.998 35.2231 101.721 36.8224L101.719 36.823ZM89.3158 35.1528C89.369 36.0169 89.3949 36.702 89.6426 37.3791C90.0088 38.3801 90.6262 39.169 91.4702 39.7575C92.2267 40.2855 93.1214 40.4835 94.0313 40.5514C94.3129 40.5728 94.6016 40.4854 94.888 40.4536C95.639 40.3693 96.3042 40.0943 96.941 39.6702C98.1264 38.8806 98.6846 37.7073 98.9492 36.3812C99.1111 35.5727 99.0761 34.7409 98.861 33.9129C98.574 32.8043 98.0605 31.8791 97.1766 31.1464C96.5265 30.6074 95.7786 30.325 94.9805 30.1753C94.1515 30.0201 93.3238 30.1038 92.5227 30.3819C91.6914 30.6703 91.0038 31.161 90.442 31.8516C89.9828 32.4163 89.6626 33.0518 89.4916 33.7473C89.3671 34.2551 89.3575 34.7923 89.3158 35.1528Z" fill="#F5EBE0"/>
<path d="M73.84 42.8223V40.197C73.9753 40.197 74.101 40.197 74.2273 40.197C76.5829 40.197 78.9386 40.2012 81.2936 40.1921C81.6428 40.1908 81.9987 40.1554 82.3388 40.079C83.2028 39.8853 83.3828 38.6166 82.9545 38.088C82.6415 37.7024 82.2536 37.4683 81.8259 37.315C80.8912 36.9795 79.933 36.7093 78.9911 36.394C78.2105 36.1325 77.4239 35.8795 76.6663 35.5598C75.8005 35.1944 74.9988 34.6866 74.4424 33.9074C74.1113 33.4436 73.8684 32.8997 73.8388 32.299C73.8044 31.6066 73.8243 30.9215 74.1064 30.2695C74.3747 29.6492 74.7559 29.1273 75.3178 28.7472C76.1963 28.1526 77.1768 27.8776 78.2184 27.8672C80.5034 27.8452 82.7883 27.8562 85.0733 27.855C85.1313 27.855 85.1893 27.8672 85.2648 27.8751V30.418C85.1343 30.418 85.0171 30.418 84.9005 30.418C82.7261 30.418 80.5517 30.4167 78.3773 30.4192C77.9876 30.4192 77.6015 30.4308 77.2445 30.6392C76.8095 30.8567 76.5745 31.7117 76.6983 32.0521C76.8403 32.4444 77.1116 32.6693 77.4179 32.8502C77.7804 33.0641 78.1773 33.2358 78.5791 33.3617C79.4177 33.6238 80.2816 33.8066 81.1118 34.0913C82.0355 34.4085 82.9641 34.741 83.8335 35.1822C84.6854 35.6142 85.3621 36.2968 85.7656 37.1988C85.8623 37.4158 85.8931 37.6682 85.9245 37.9083C86.0212 38.6508 86.0285 39.4025 85.8013 40.1157C85.5832 40.8001 85.2165 41.4002 84.6099 41.8451C83.9652 42.3187 83.2771 42.6402 82.4832 42.6958C81.6754 42.7526 80.8665 42.8101 80.0575 42.8174C78.1151 42.8351 76.1721 42.8229 74.2291 42.8229C74.1101 42.8229 73.991 42.8229 73.8406 42.8229L73.84 42.8223Z" fill="#F5EBE0"/>
<path d="M54.0916 27.869H56.7475V42.8015H54.0916V27.869Z" fill="#F5EBE0"/>
<path d="M57.0292 24.4785C57.0268 25.4771 56.3423 26.1309 55.4046 26.1236C54.4428 26.1157 53.7999 25.4716 53.7794 24.4699C53.7613 23.5967 54.4567 22.8236 55.4324 22.8358C56.3453 22.8474 57.0679 23.5698 57.0292 24.4785Z" fill="#F5EBE0"/>
</svg>
