<svg width="116" height="66" viewBox="0 0 116 66" fill="none" xmlns="http://www.w3.org/2000/svg">
<path d="M28.4126 40.0796C24.8166 40.4297 24.6643 40.3613 23.4826 37.8692C20.7397 40.7463 17.4379 41.2835 13.8262 40.0551C9.01039 38.4173 7.52776 32.5776 10.8869 28.7227C12.7526 26.5813 15.1638 25.5143 17.9212 25.2552C21.191 24.9478 24.4209 25.3891 27.6133 26.0821C27.9051 26.1456 28.3316 26.571 28.3365 26.835C28.4144 30.897 28.4331 34.9603 28.4615 39.023C28.4639 39.3487 28.4319 39.6744 28.4126 40.0783V40.0796ZM23.6868 31.4293C23.6868 30.974 23.778 30.4925 23.6584 30.0708C23.5593 29.7206 23.2645 29.2391 22.9678 29.1633C20.7814 28.6041 18.6378 28.7037 16.6555 29.9235C14.753 31.0938 14.0371 32.7811 14.6738 34.4995C15.3239 36.2522 17.4156 37.3919 19.4069 37.0778C22.3431 36.6152 23.6475 34.8918 23.6862 31.4293H23.6868Z" fill="#F5EBE0"/>
<path d="M36.7396 29.9974H41.4769C41.5367 30.3806 41.5917 30.7344 41.602 30.8004C42.9498 30.4319 44.2724 29.9247 45.6384 29.7377C47.1138 29.5354 48.5215 29.91 49.4869 31.2826C51.3315 29.5556 53.4781 29.3747 55.7401 29.9962C57.0958 30.369 57.9791 31.3113 58.0208 32.7596C58.0891 35.157 58.0395 37.5575 58.0395 40.0606C57.0867 40.0606 56.1841 40.1626 55.3135 40.038C53.8031 39.8216 53.1119 38.9813 53.0273 37.42C52.9736 36.4275 53.005 35.4308 52.9766 34.4365C52.9518 33.5638 52.5271 32.9747 51.6221 33.0151C50.7152 33.0548 49.8676 33.328 49.8591 34.4958C49.8458 36.3145 49.8555 38.1331 49.8555 40.041H44.8959C44.8959 38.2896 44.8735 36.5607 44.9043 34.8325C44.9218 33.8492 44.714 33.075 43.5691 33.001C42.4285 32.9271 41.7427 33.592 41.7198 34.8337C41.6877 36.5607 41.7119 38.289 41.7119 40.0648H36.739V29.9974H36.7396Z" fill="#F5EBE0"/>
<path d="M102.707 30.9697C102.707 29.698 102.707 28.5833 102.707 27.4686C102.708 23.7806 103.912 22.7007 107.739 23.0472V39.9445C104.854 40.4114 103.146 40.1736 102.78 39.2148C100.357 40.7469 97.7739 40.8813 95.1421 39.942C92.9266 39.1512 91.847 37.4022 91.8796 34.9272C91.9092 32.6741 93.0952 30.988 95.2062 30.1985C97.6017 29.302 100.287 29.5476 102.707 30.9691V30.9697ZM99.8528 37.4047C101.736 37.423 102.732 36.6451 102.749 35.1442C102.767 33.6421 101.731 32.7462 99.9567 32.7309C98.2373 32.7156 97.0978 33.6653 97.1057 35.1075C97.1135 36.5601 98.1044 37.3888 99.8534 37.4053L99.8528 37.4047Z" fill="#F5EBE0"/>
<path d="M68.2906 40.4865C67.4109 40.5868 66.5216 40.5776 65.6437 40.4603C64.6094 40.3221 63.5328 40.1785 62.4918 39.9005C60.0679 39.2533 58.9786 37.5746 58.9888 34.8808C58.9985 32.4364 60.1724 30.8487 62.5558 30.1624C65.5495 29.3001 68.5818 29.3325 71.5881 30.0365C74.1661 30.6403 75.5376 32.4413 75.572 35.0079C75.6064 37.5838 74.2948 39.3407 71.6395 39.9793C70.5665 40.2372 69.4597 40.3533 68.29 40.4859L68.2906 40.4865ZM67.2345 37.533C69.2005 37.5465 70.1345 36.7869 70.1599 35.1528C70.1871 33.4093 69.2548 32.5348 67.3372 32.5048C65.419 32.4743 64.3122 33.3732 64.288 34.9798C64.2632 36.6463 65.2716 37.5196 67.2345 37.533Z" fill="#F5EBE0"/>
<path d="M81.5772 40.0679H76.5071V30.0383H81.2558C81.3023 30.3176 81.3543 30.6323 81.4105 30.9733C81.5241 30.9562 81.6642 30.9758 81.7525 30.9165C83.7794 29.5556 85.9877 29.4162 88.2714 29.9931C89.8477 30.3916 90.8875 31.5068 90.9461 33.0303C91.0349 35.341 90.969 37.6571 90.969 40.1779C89.9746 40.1009 89.0339 40.1192 88.1337 39.9377C86.8166 39.6719 86.0801 38.7528 85.9816 37.4138C85.9272 36.6714 85.9653 35.9227 85.9442 35.1772C85.9013 33.6989 85.2898 33.0316 83.9746 33.0041C82.6279 32.9766 81.6413 33.812 81.5911 35.1576C81.5319 36.763 81.5772 38.3721 81.5772 40.0691V40.0679Z" fill="#F5EBE0"/>
<path d="M35.092 40.0233H30.0479C30.0479 39.0333 30.0479 38.1362 30.0479 37.2391C30.0479 34.0045 30.0479 30.7693 30.0479 27.5346C30.0479 23.6162 31.0876 22.6665 35.092 23.0552V40.0233Z" fill="#F5EBE0"/>
</svg>
