<svg width="116" height="66" viewBox="0 0 116 66" fill="none" xmlns="http://www.w3.org/2000/svg">
<path d="M98.6321 28.4479C98.6689 28.1356 98.6484 27.8679 98.652 27.6009C98.6556 27.3399 98.6526 27.0784 98.6526 26.8168V22.8403C98.7372 22.7517 98.8248 22.7767 98.9052 22.7761C99.455 22.7743 100.005 22.7749 100.555 22.7749C100.747 22.7749 100.938 22.7737 101.13 22.7755C101.187 22.7755 101.244 22.7853 101.314 22.792C101.322 22.8489 101.331 22.8965 101.334 22.9442C101.337 23.0114 101.335 23.0792 101.335 23.1465C101.335 28.0011 101.335 32.8564 101.335 37.7111C101.335 37.8192 101.333 37.928 101.331 38.0454C101.28 38.0588 101.241 38.0765 101.202 38.0765C100.427 38.0777 99.6525 38.0765 98.8774 38.0753C98.8617 38.0753 98.8453 38.068 98.8109 38.0594C98.8018 38.0124 98.7825 37.958 98.7819 37.9036C98.7783 37.6591 98.7807 37.4147 98.7789 37.1702C98.7789 37.1238 98.7662 37.0774 98.7589 37.0242C98.6514 37.0437 98.6043 37.1189 98.5445 37.1727C98.1536 37.5222 97.7186 37.7985 97.2328 37.9922C96.6583 38.2214 96.062 38.3136 95.4469 38.3002C93.6471 38.2611 92.1234 37.1819 91.2993 35.6749C90.7827 34.7301 90.5574 33.7138 90.5822 32.6382C90.6045 31.6696 90.8287 30.7524 91.2957 29.9035C91.9053 28.795 92.7819 27.9865 93.9667 27.5452C95.4264 27.002 97.173 27.2146 98.4387 28.2994C98.4883 28.3421 98.5421 28.3794 98.6315 28.4472L98.6321 28.4479ZM98.658 32.711C98.6423 32.5808 98.6297 32.3608 98.5868 32.1469C98.4327 31.3842 98.0732 30.742 97.4473 30.2751C96.7888 29.7837 96.0577 29.6444 95.2681 29.8748C94.6403 30.0575 94.16 30.448 93.8048 30.995C93.4374 31.5615 93.2761 32.1897 93.2864 32.865C93.2961 33.5152 93.4701 34.1141 93.8422 34.6451C94.3111 35.3143 94.9485 35.714 95.7605 35.7873C96.5072 35.8545 97.1585 35.6021 97.7017 35.0864C98.3511 34.4691 98.6417 33.6918 98.6587 32.711H98.658Z" fill="#F5EBE0"/>
<path d="M78.6346 33.8347C78.2824 33.8396 77.9579 33.8366 77.6341 33.8372C77.3091 33.8372 76.984 33.8372 76.659 33.8372H72.7331C72.4081 33.8372 72.083 33.8372 71.758 33.8372C71.4341 33.8372 71.1103 33.8372 70.7677 33.8372C70.7708 33.9032 70.7635 33.9527 70.7768 33.9955C71.2118 35.3619 72.3712 36.036 73.6019 35.929C74.0321 35.8917 74.4362 35.7713 74.803 35.5361C75.0525 35.376 75.2646 35.1767 75.4319 34.9292C75.4784 34.8602 75.5262 34.7911 75.5691 34.7282C75.7775 34.6958 78.17 34.6927 78.4092 34.7251C78.4014 34.7734 78.4002 34.8229 78.3857 34.8681C77.9603 36.1955 77.1332 37.1732 75.8905 37.7831C75.2682 38.0887 74.606 38.2396 73.9185 38.3032C73.246 38.3649 72.5857 38.3117 71.9386 38.1235C70.6711 37.755 69.67 37.007 68.9359 35.9021C68.2689 34.8981 67.9783 33.7859 68.0127 32.5759C68.0617 30.855 68.9655 29.0351 70.6427 28.0017C71.6426 27.3857 72.7289 27.1351 73.8967 27.2445C74.6894 27.3185 75.4331 27.5427 76.1182 27.9546C77.1073 28.5492 77.7978 29.4024 78.2244 30.4773C78.5295 31.2449 78.6696 32.0466 78.6739 32.8722C78.6751 33.0996 78.6702 33.3275 78.6642 33.5549C78.6618 33.638 78.6473 33.7205 78.6346 33.836V33.8347ZM75.9624 31.5895C75.8409 31.1116 75.6083 30.7028 75.2633 30.3618C74.7776 29.8815 74.1831 29.6437 73.5107 29.6083C72.8461 29.5735 72.2467 29.7586 71.7169 30.176C71.3598 30.4565 70.8856 31.1037 70.8064 31.5987C70.8451 31.6054 70.8837 31.6164 70.9224 31.6176C71.7453 31.6482 75.7292 31.6292 75.9618 31.5901L75.9624 31.5895Z" fill="#F5EBE0"/>
<path d="M89.9156 33.8311C89.7936 33.8336 89.6951 33.8373 89.596 33.8373C87.1788 33.8373 84.7621 33.8373 82.3448 33.8379C82.2475 33.8379 82.1473 33.8232 82.0439 33.8629C82.0482 33.9045 82.0464 33.9381 82.056 33.9686C82.3194 34.801 82.8197 35.428 83.6359 35.7482C84.4322 36.0605 85.2219 36.0067 85.9789 35.6015C86.2858 35.4378 86.5347 35.2025 86.7311 34.9116C86.7734 34.8493 86.8144 34.7863 86.8537 34.7283C87.0555 34.6959 89.454 34.6928 89.6812 34.724C89.7138 34.8114 89.6685 34.8871 89.6425 34.9648C89.2069 36.2377 88.3955 37.1782 87.1999 37.7728C86.6102 38.0655 85.9819 38.2208 85.33 38.2923C84.7276 38.3583 84.1295 38.3411 83.5405 38.203C81.9104 37.8205 80.6948 36.8739 79.9185 35.3803C78.5748 32.7935 79.4406 29.5839 81.885 28.0286C82.5804 27.5862 83.3387 27.324 84.1591 27.247C85.2237 27.1462 86.2369 27.3289 87.1848 27.8306C88.2614 28.4008 89.0148 29.2747 89.4824 30.404C89.7519 31.0555 89.8963 31.7363 89.9446 32.4396C89.9712 32.8271 89.9748 33.2139 89.9434 33.6014C89.938 33.6674 89.9277 33.7328 89.9162 33.8318L89.9156 33.8311ZM82.0923 31.6177C83.7658 31.6177 85.4206 31.6177 87.0754 31.6171C87.1244 31.6171 87.1727 31.6067 87.221 31.6012C87.2084 31.2749 86.9329 30.7518 86.5855 30.3967C86.1009 29.9011 85.5046 29.6518 84.8237 29.6096C84.1597 29.5686 83.5592 29.7471 83.0251 30.1584C82.6282 30.4639 82.1581 31.1404 82.0923 31.6177Z" fill="#F5EBE0"/>
<path d="M57.835 34.6518C57.8942 34.642 57.934 34.6323 57.9745 34.6298C58.3751 34.6103 60.3435 34.6249 60.535 34.6494C60.5489 34.6689 60.5718 34.6934 60.5863 34.7227C60.825 35.1908 61.2153 35.4774 61.6901 35.6589C62.1584 35.8374 62.6441 35.8899 63.1414 35.8453C63.4326 35.819 63.7232 35.7836 63.995 35.6681C64.1322 35.61 64.2693 35.541 64.3877 35.4518C64.8282 35.1181 64.7267 34.4893 64.3153 34.2631C64.1225 34.1574 63.9201 34.0853 63.7105 34.0279C63.2996 33.9154 62.8804 33.8451 62.4605 33.7791C61.8182 33.6783 61.1778 33.5646 60.5549 33.3715C60.1072 33.2328 59.6765 33.0538 59.2813 32.794C59.0777 32.6602 58.8904 32.5068 58.7267 32.3247C58.276 31.8242 58.0917 31.2278 58.108 30.5598C58.1322 29.5936 58.5545 28.8298 59.2807 28.2266C59.7792 27.8123 60.3568 27.5538 60.9809 27.4053C62.0889 27.1413 63.1951 27.1351 64.2911 27.47C65.0819 27.7114 65.7671 28.1294 66.306 28.7729C66.6739 29.2117 66.9174 29.7146 67.0582 30.2701C67.0727 30.327 67.0811 30.3856 67.089 30.4443C67.0908 30.459 67.0817 30.4755 67.0745 30.5036C67.0503 30.5103 67.0201 30.525 66.9893 30.5268C66.6165 30.55 64.5128 30.5317 64.3376 30.5048C64.3298 30.4956 64.3146 30.4853 64.308 30.4706C64.1062 30.0471 63.7431 29.8436 63.316 29.7324C63.0157 29.6548 62.7076 29.623 62.3982 29.6462C62.1747 29.6627 61.9511 29.6963 61.73 29.7366C61.524 29.7745 61.3307 29.8558 61.1555 29.9744C61.0431 30.0508 60.9482 30.1449 60.8854 30.2671C60.7899 30.4523 60.8129 30.649 60.9458 30.8091C61.0334 30.9149 61.1422 30.9968 61.2684 31.042C61.4871 31.1214 61.7077 31.2051 61.9348 31.2528C62.3994 31.3506 62.8689 31.4251 63.3365 31.5101C64.0095 31.6323 64.6784 31.7723 65.323 32.0112C65.6215 32.1218 65.9078 32.2563 66.1773 32.4268C66.9101 32.8894 67.2962 33.5646 67.3645 34.4275C67.4249 35.192 67.2648 35.9028 66.8286 36.5395C66.4534 37.0871 65.9507 37.4806 65.3647 37.7709C64.8125 38.0447 64.2258 38.1999 63.6174 38.2745C62.7215 38.3845 61.8364 38.3276 60.967 38.0783C60.1157 37.8339 59.3671 37.411 58.772 36.7357C58.2772 36.1735 57.9769 35.5153 57.8416 34.7777C57.8356 34.7453 57.838 34.7111 57.8356 34.6506L57.835 34.6518Z" fill="#F5EBE0"/>
<path d="M111.773 30.5048C111.561 30.5372 109.269 30.5384 109.036 30.5061C109.021 30.4841 109.001 30.4584 108.986 30.4291C108.837 30.1376 108.597 29.9499 108.303 29.8277C107.918 29.6676 107.512 29.6242 107.101 29.6462C106.878 29.6578 106.653 29.6908 106.434 29.7373C106.28 29.7697 106.132 29.8332 105.987 29.8962C105.856 29.953 105.745 30.0441 105.655 30.1583C105.461 30.4028 105.486 30.7022 105.732 30.8947C105.842 30.9809 105.972 31.0493 106.103 31.0988C106.282 31.1667 106.468 31.2217 106.655 31.2583C107.112 31.3494 107.573 31.4276 108.032 31.5095C108.565 31.6048 109.095 31.7161 109.615 31.8731C109.983 31.9843 110.34 32.1231 110.678 32.3094C110.891 32.4268 111.091 32.5631 111.271 32.7281C111.674 33.0978 111.922 33.5549 112.015 34.0976C112.196 35.1505 111.961 36.0873 111.25 36.8903C110.986 37.1886 110.675 37.4281 110.333 37.6261C109.784 37.9439 109.192 38.1346 108.569 38.2378C107.729 38.3766 106.892 38.3564 106.06 38.1786C105.196 37.994 104.413 37.6383 103.756 37.0297C103.127 36.4467 102.737 35.7268 102.56 34.8853C102.545 34.8138 102.545 34.7386 102.537 34.6592C102.583 34.6469 102.615 34.6323 102.646 34.6323C103.504 34.6311 104.361 34.6311 105.217 34.6311C105.248 34.6757 105.276 34.7081 105.295 34.7441C105.537 35.1988 105.921 35.4799 106.387 35.6577C106.855 35.8368 107.341 35.8899 107.838 35.8447C108.087 35.8221 108.337 35.7983 108.574 35.7097C108.729 35.651 108.886 35.5862 109.024 35.497C109.285 35.3289 109.404 35.0833 109.357 34.7631C109.33 34.5773 109.25 34.4233 109.095 34.3231C108.977 34.2467 108.85 34.1794 108.718 34.1287C108.319 33.9753 107.899 33.9014 107.48 33.8311C106.93 33.7382 106.377 33.6582 105.833 33.5286C105.288 33.3984 104.757 33.2298 104.261 32.9621C103.904 32.7696 103.584 32.5307 103.328 32.2111C102.92 31.6996 102.769 31.1056 102.807 30.4614C102.861 29.5399 103.279 28.8072 103.976 28.2278C104.401 27.8746 104.885 27.6302 105.411 27.4792C106.6 27.1376 107.796 27.1095 108.986 27.4694C109.855 27.7322 110.59 28.2064 111.141 28.9483C111.457 29.3724 111.661 29.8485 111.779 30.3643C111.784 30.3887 111.787 30.4144 111.787 30.4394C111.787 30.4553 111.781 30.4712 111.772 30.5054L111.773 30.5048Z" fill="#F5EBE0"/>
<path d="M40.3286 32.956C40.3262 34.1635 39.9269 35.3815 39.0732 36.4313C38.2219 37.4782 37.129 38.1052 35.798 38.2965C33.6188 38.6093 31.5664 37.5411 30.5031 35.6167C30.0602 34.815 29.8282 33.9527 29.7968 33.0342C29.7521 31.7368 30.0747 30.5439 30.8112 29.4787C31.5888 28.3543 32.6406 27.6185 33.9722 27.3307C35.9792 26.8968 37.9978 27.6582 39.2297 29.3528C39.9758 30.3789 40.3268 31.5363 40.3292 32.956H40.3286ZM31.5446 32.8759C31.5724 34.0431 32.005 35.0985 32.9675 35.8838C33.9196 36.6605 34.9981 36.8616 36.1641 36.4582C36.8897 36.2071 37.4576 35.7359 37.8938 35.1022C39.0254 33.4583 38.7632 31.1214 37.2921 29.7776C36.6825 29.2202 35.9641 28.908 35.1388 28.8908C34.1486 28.8701 33.3173 29.2575 32.6436 29.978C31.9053 30.7676 31.5616 31.7221 31.544 32.8753L31.5446 32.8759Z" fill="#F5EBE0"/>
<path d="M41.8325 27.508C41.8585 27.4976 41.8815 27.4811 41.9044 27.4811C42.4125 27.4799 42.9212 27.4799 43.4293 27.4811C43.4523 27.4811 43.4752 27.4976 43.4982 27.5061C43.5417 27.6051 43.523 27.7072 43.523 27.8068C43.5242 29.4171 43.5236 31.028 43.5236 32.6382C43.5236 33.0599 43.5212 33.4816 43.5242 33.9032C43.5266 34.2424 43.5683 34.5761 43.6795 34.8981C43.9689 35.7402 44.5344 36.2927 45.3862 36.5274C45.9711 36.6881 46.5595 36.6783 47.1347 36.4772C47.9038 36.209 48.4071 35.6694 48.6699 34.8951C48.7877 34.548 48.8251 34.1899 48.8245 33.8244C48.8227 32.0534 48.8239 30.283 48.8239 28.512C48.8239 28.2419 48.8227 27.9724 48.8245 27.7023C48.8245 27.6369 48.8342 27.5721 48.8396 27.5092C48.8747 27.4957 48.8976 27.4792 48.9206 27.4792C49.4372 27.478 49.9543 27.478 50.4709 27.4799C50.4939 27.4799 50.5162 27.4964 50.5494 27.5098C50.5537 27.574 50.5615 27.64 50.5615 27.7054C50.5621 29.8131 50.57 31.9214 50.5579 34.0291C50.5531 34.9159 50.3211 35.747 49.8214 36.4864C49.1876 37.4232 48.3025 37.9849 47.2144 38.222C46.3668 38.4065 45.5204 38.3772 44.6969 38.0949C43.1695 37.5724 42.2452 36.4986 41.9062 34.9073C41.8337 34.5681 41.8096 34.2241 41.8102 33.877C41.8126 31.8536 41.8114 29.8296 41.812 27.8062C41.812 27.7066 41.7963 27.6051 41.8325 27.5067V27.508Z" fill="#F5EBE0"/>
<path d="M22.0054 30.4462C22.0236 32.0699 20.8503 33.5824 19.0837 33.8165C18.4807 33.8965 17.9273 33.7529 17.3999 33.4693C16.9643 33.2353 16.5643 32.9481 16.1861 32.6285C15.5958 32.1304 15.0575 31.581 14.5869 30.9656C14.4902 30.8391 14.4062 30.7028 14.3186 30.5702C14.2455 30.4596 14.2516 30.3484 14.3235 30.2396C14.37 30.17 14.4129 30.0966 14.4642 30.0312C15.2545 29.026 16.1771 28.1722 17.2851 27.5348C17.5757 27.368 17.8832 27.2391 18.2095 27.1596C18.6765 27.0466 19.1417 27.0857 19.5912 27.2262C20.8001 27.6027 21.5759 28.4161 21.9118 29.6517C21.9849 29.9206 22.0145 30.1975 22.0061 30.4468L22.0054 30.4462Z" fill="#F5EBE0"/>
<path d="M12.9786 21.3406C14.5416 21.3522 15.878 22.4473 16.2127 23.9904C16.3511 24.629 16.2955 25.2438 16.0079 25.8359C15.7789 26.3077 15.4913 26.7398 15.1639 27.1455C14.6352 27.8007 14.0462 28.3934 13.378 28.9043C13.2656 28.9905 13.1423 29.062 13.0221 29.1378C12.9363 29.1922 12.8487 29.1897 12.7635 29.1341C12.6795 29.0791 12.5913 29.0296 12.514 28.9667C11.5226 28.1643 10.6749 27.2342 10.0514 26.1085C9.94206 25.9111 9.85747 25.6984 9.77531 25.487C9.57231 24.9645 9.57835 24.4261 9.72274 23.8969C10.0786 22.5928 10.9117 21.7647 12.2107 21.4255C12.4614 21.3602 12.7194 21.3375 12.9786 21.3406Z" fill="#F5EBE0"/>
<path d="M3.92579 30.4853C3.92337 28.9697 4.9861 27.5 6.66749 27.1816C7.33147 27.0557 7.95799 27.1682 8.55008 27.4988C8.9452 27.7194 9.31737 27.973 9.66658 28.2614C10.2496 28.7418 10.7801 29.2759 11.2537 29.8668C11.348 29.9848 11.4422 30.1039 11.5226 30.231C11.7377 30.5696 11.7419 30.5494 11.5075 30.8984C11.4748 30.9473 11.4386 30.9931 11.4017 31.0389C10.7245 31.8817 9.94147 32.6077 9.04247 33.2029C8.78449 33.374 8.51081 33.5164 8.22806 33.6429C7.62993 33.9105 7.01489 33.9387 6.39683 33.751C5.05135 33.3434 4.24599 32.4304 3.97593 31.0383C3.94089 30.858 3.94149 30.6698 3.92579 30.4859V30.4853Z" fill="#F5EBE0"/>
<path d="M12.9854 39.6336C11.1723 39.6208 9.703 38.1706 9.65406 36.3379C9.6444 35.9682 9.72959 35.6192 9.87156 35.2819C10.0721 34.8052 10.3501 34.375 10.6642 33.9692C11.2062 33.2689 11.8218 32.6419 12.5178 32.0986C12.6296 32.0112 12.751 31.9361 12.8682 31.856C12.9836 31.7778 13.0996 31.7711 13.2162 31.8542C13.2911 31.9073 13.3715 31.9538 13.4428 32.0118C14.4179 32.8081 15.2559 33.726 15.8794 34.8327C16.0365 35.112 16.1609 35.4066 16.2419 35.7182C16.3736 36.223 16.3368 36.7284 16.1803 37.2148C15.7658 38.5031 14.8952 39.2926 13.5811 39.5688C13.3866 39.6098 13.1842 39.6128 12.9854 39.633V39.6336Z" fill="#F5EBE0"/>
<path d="M27.2063 27.5232C27.6081 27.5232 27.9905 27.5232 28.3729 27.5232C28.7548 27.5232 29.136 27.5219 29.4882 27.5244C29.5239 27.5549 29.5317 27.5592 29.536 27.5659C29.5402 27.5727 29.5432 27.5818 29.5432 27.5898C29.5462 28.0787 29.5492 28.5669 29.5511 29.0558C29.5511 29.0882 29.5432 29.1206 29.539 29.153C29.4592 29.2129 29.3734 29.1909 29.2931 29.1915C28.6931 29.1933 28.0932 29.1927 27.4933 29.1927C27.4026 29.1927 27.3114 29.1927 27.2129 29.1927C27.1996 29.2569 27.1833 29.3039 27.1803 29.3522C27.1755 29.4359 27.1779 29.5209 27.1779 29.6052C27.1779 32.3112 27.1779 35.0166 27.1779 37.7226C27.1779 37.8314 27.1888 37.9408 27.158 38.0551C26.9767 38.1168 26.7924 38.0783 26.6124 38.0844C26.4209 38.0911 26.2293 38.0881 26.0372 38.0856C25.856 38.0832 25.6735 38.0978 25.4796 38.0734C25.4717 38.0135 25.4633 37.9658 25.4602 37.9176C25.4572 37.8674 25.459 37.8167 25.459 37.766C25.459 34.1666 25.4578 30.5671 25.4602 26.9683C25.4602 26.3841 25.5364 25.8084 25.7073 25.248C25.8795 24.6833 26.1496 24.1761 26.5707 23.7587C27.1235 23.2112 27.7947 22.9221 28.5596 22.8604C28.8327 22.8384 29.1088 22.8537 29.3837 22.8573C29.4471 22.8579 29.5106 22.8781 29.577 22.8903C29.5855 22.9362 29.5964 22.9686 29.5964 23.0003C29.5964 23.4556 29.5964 23.9109 29.5939 24.3656C29.5939 24.3882 29.5788 24.4114 29.5656 24.4493C29.5021 24.4511 29.4381 24.4548 29.374 24.4542C29.1148 24.4511 28.8575 24.4633 28.6049 24.5263C28.0588 24.6613 27.6679 24.9828 27.4455 25.5096C27.3265 25.7913 27.2576 26.0858 27.219 26.3871C27.1761 26.722 27.1706 27.0593 27.1809 27.3967C27.1821 27.4291 27.193 27.4614 27.2057 27.525L27.2063 27.5232Z" fill="#F5EBE0"/>
<path d="M54.1479 38.0759H52.4997C52.4883 38.0239 52.4732 37.9781 52.4683 37.9304C52.4629 37.8803 52.4665 37.8296 52.4665 37.7789C52.4665 35.7555 52.4665 33.7321 52.4665 31.7087C52.4665 31.0273 52.5765 30.3649 52.8363 29.7342C53.296 28.6189 54.0984 27.8691 55.2264 27.4798C55.9157 27.2421 56.6274 27.1944 57.3494 27.2635C57.3808 27.2665 57.4116 27.2806 57.4382 27.2885C57.4793 27.4774 57.4914 28.438 57.4581 28.8762C57.4074 28.8817 57.3524 28.8951 57.2986 28.8927C56.9138 28.875 56.532 28.8927 56.1556 28.9789C55.665 29.0907 55.2306 29.3076 54.879 29.6804C54.5654 30.0135 54.3805 30.4144 54.2754 30.8556C54.2029 31.1605 54.1793 31.4716 54.1793 31.7839C54.1793 33.7736 54.1793 35.7634 54.1787 37.7526C54.1787 37.8516 54.1932 37.9536 54.1479 38.0752V38.0759Z" fill="#F5EBE0"/>
</svg>
