<svg width="116" height="66" viewBox="0 0 116 66" fill="none" xmlns="http://www.w3.org/2000/svg">
<path fill-rule="evenodd" clip-rule="evenodd" d="M45.3709 13V23.7565C45.4614 23.6965 45.547 23.6391 45.6295 23.5837L45.6296 23.5836C45.8077 23.4641 45.9714 23.3543 46.1383 23.2498C46.6619 22.9212 47.2008 22.6232 47.7829 22.4112C47.9133 22.3638 48.043 22.3146 48.1727 22.2654C48.4147 22.1736 48.6565 22.0819 48.9023 22.002C49.0467 21.9552 49.1975 21.9294 49.3484 21.9035L49.3484 21.9035C49.4181 21.8916 49.4879 21.8796 49.557 21.8656C49.6606 21.8444 49.764 21.8227 49.8675 21.801L49.868 21.8009L49.8681 21.8009L49.8682 21.8009L49.8683 21.8009L49.8684 21.8009L49.8685 21.8008L49.8685 21.8008L49.8686 21.8008L49.8687 21.8008L49.8688 21.8008L49.8689 21.8008L49.869 21.8007L49.8691 21.8007L49.8692 21.8007C50.0617 21.7604 50.2543 21.72 50.4473 21.6827C50.5356 21.6657 50.6266 21.6597 50.7165 21.6597C50.9111 21.6592 51.1058 21.6574 51.3005 21.6556C51.8197 21.6508 52.3389 21.6461 52.8572 21.6668C53.1101 21.677 53.3616 21.7316 53.6128 21.7861L53.6129 21.7861C53.7123 21.8077 53.8117 21.8293 53.911 21.8481C54.0666 21.8778 54.2205 21.9142 54.3746 21.9506L54.458 21.9702C55.7804 22.2803 56.9691 22.879 58.0685 23.6721C59.0719 24.3958 59.9173 25.2804 60.6148 26.3009C61.1412 27.071 61.5787 27.8954 61.863 28.7932L61.9018 28.9154L61.9019 28.9157C62.0306 29.3215 62.1597 29.7282 62.2611 30.1413C62.3041 30.3166 62.325 30.4973 62.3459 30.6782C62.3616 30.8139 62.3774 30.9497 62.4024 31.0834C62.519 31.7079 62.5096 32.3369 62.5001 32.9657V32.9658V32.9658V32.9659V32.966V32.966V32.9661V32.9661V32.9662V32.9662V32.9663V32.9664V32.9664V32.9665V32.9665C62.4974 33.1494 62.4947 33.3323 62.495 33.515C62.4998 35.7974 62.499 38.0799 62.4983 40.3624C62.498 41.2033 62.4977 42.0442 62.4977 42.8851V43.228H58.2488C58.2455 43.1925 58.2412 43.1564 58.237 43.1199C58.2273 43.0372 58.2174 42.9525 58.2174 42.8681C58.2156 41.3922 58.2156 39.9159 58.2157 38.4399L58.2158 37.5531C58.2158 37.1435 58.2162 36.7339 58.2166 36.3244V36.3226V36.3225V36.3225V36.3224V36.3224V36.3223V36.3223V36.3222V36.3221V36.3221V36.322V36.322V36.3219C58.2177 35.2985 58.2188 34.2751 58.213 33.2515C58.2098 32.6769 58.1952 32.1006 58.1524 31.5277C58.1393 31.3519 58.0928 31.179 58.0462 31.0057C58.0197 30.9069 57.9931 30.8079 57.9726 30.7082C57.8832 30.2716 57.7083 29.8663 57.5074 29.4752C57.0704 28.624 56.4796 27.902 55.7241 27.3099C55.2394 26.9303 54.7141 26.6312 54.1558 26.3918C53.9641 26.3097 53.7594 26.2589 53.5546 26.208L53.5546 26.2079C53.4574 26.1838 53.3602 26.1597 53.2644 26.1322C52.6541 25.9574 52.0292 25.8818 51.4015 25.9454C51.0587 25.9799 50.7121 26.0177 50.3726 26.1125L50.2882 26.136C50.0518 26.2018 49.8168 26.2672 49.5836 26.3474C49.0956 26.5151 48.6397 26.7479 48.2189 27.0387C47.3112 27.6659 46.5856 28.4662 46.0863 29.4642C45.8599 29.9167 45.6855 30.3861 45.5631 30.8813C45.4137 31.4882 45.3639 32.0985 45.3649 32.7202C45.3685 35.2105 45.368 37.7009 45.3675 40.1912C45.3673 41.08 45.3671 41.9689 45.3671 42.8577V43.228H41.1355C41.132 43.2082 41.128 43.1881 41.124 43.1678L41.124 43.1677L41.124 43.1677C41.1147 43.1211 41.1051 43.0732 41.1014 43.0248C41.0966 42.9651 41.0974 42.9049 41.0981 42.8447V42.8447V42.8446V42.8446V42.8446V42.8446V42.8445C41.0984 42.8224 41.0987 42.8003 41.0987 42.7783C41.0987 33.0061 41.0987 23.2345 41.0992 13.4623C41.0992 13.3576 41.1046 13.2528 41.1101 13.1463L41.1101 13.1462L41.1101 13.1461L41.1101 13.146L41.1101 13.1459L41.1101 13.1459L41.1101 13.1458L41.1101 13.1457L41.1101 13.1456L41.1101 13.1455L41.1101 13.1453L41.1101 13.1452L41.1101 13.1451L41.1101 13.1449L41.1101 13.1448C41.1126 13.097 41.1151 13.0487 41.1171 13H45.3709ZM15.6446 27.6172C15.6267 27.7015 15.6007 27.7766 15.5 27.7892L15.5005 27.7914V28.4487C15.6078 28.4514 15.6332 28.5309 15.6457 28.6147C15.6971 28.9641 15.8726 29.2517 16.0892 29.5163C16.4845 29.9989 17.0185 30.2185 17.6153 30.287C17.7167 30.2987 17.8216 30.2754 17.9272 30.2519C17.9992 30.2359 18.0715 30.2198 18.1433 30.2147C18.3354 30.2012 18.4992 30.1212 18.6653 30.04L18.6924 30.0268C19.124 29.8165 19.4256 29.4654 19.659 29.0606C20.095 28.3041 20.6815 27.6889 21.3719 27.1751C21.8469 26.8213 22.3651 26.5425 22.9289 26.3502C23.1894 26.2615 23.4471 26.1793 23.7168 26.1196C24.1192 26.0309 24.5194 25.9509 24.9326 25.9361C25.3214 25.9218 25.7043 25.9547 26.0855 26.0303C26.177 26.0485 26.27 26.0616 26.3629 26.0746L26.363 26.0746H26.363C26.5274 26.0977 26.6916 26.1207 26.8469 26.1722C27.2721 26.313 27.6923 26.4685 28.0914 26.6832C29.1669 27.2628 30.0198 28.0658 30.6404 29.1312C30.8988 29.5744 31.2491 29.9452 31.7609 30.1062C31.9293 30.1594 32.0999 30.2076 32.2721 30.2443L32.3124 30.2529L32.3125 30.2529C32.4311 30.2784 32.5553 30.305 32.6691 30.2854C32.8949 30.2465 33.1185 30.1796 33.3352 30.1024C34.0056 29.863 34.4291 29.3602 34.6045 28.6925C34.7594 28.102 34.7031 27.4994 34.3587 26.961C34.0868 26.5353 33.7148 26.2198 33.2436 26.0621C32.9685 25.9701 32.6745 25.9076 32.3707 25.9273C32.1465 25.9421 31.9163 25.9366 31.6948 25.9027C31.4457 25.8642 31.201 25.7957 30.9574 25.7275L30.9574 25.7275L30.9177 25.7164C30.8681 25.7025 30.8183 25.6888 30.7685 25.6752L30.7685 25.6752C30.5367 25.6115 30.3041 25.5477 30.0848 25.4535C29.5725 25.2339 29.0857 24.9611 28.6476 24.6099C28.1678 24.226 27.7313 23.7965 27.3722 23.2931C27.28 23.1636 27.1914 23.0313 27.1029 22.899L27.1029 22.899C26.9836 22.7208 26.8643 22.5426 26.7359 22.3712C26.4641 22.0086 26.0845 21.7676 25.6577 21.6832C25.2597 21.6049 24.8427 21.5907 24.4338 21.7429C24.0125 21.8996 23.6621 22.1313 23.4103 22.5076C23.3502 22.5974 23.2918 22.6884 23.2335 22.7794C23.1476 22.9132 23.0618 23.0469 22.9706 23.177C22.4924 23.8601 21.9129 24.4401 21.2116 24.8899C20.8255 25.1369 20.4297 25.3604 19.9916 25.5088L19.9042 25.5385C19.6994 25.6082 19.4958 25.6776 19.2843 25.7318C18.8841 25.8348 18.4861 25.929 18.0712 25.9301C18.0298 25.9301 17.9883 25.9292 17.9468 25.9284H17.9468C17.8341 25.9261 17.7213 25.9239 17.6109 25.9383C17.5812 25.9421 17.5512 25.9458 17.5211 25.9494L17.521 25.9494L17.5209 25.9495C17.3365 25.9719 17.1484 25.9947 16.9827 26.0654C16.2928 26.3606 15.8065 26.8498 15.6446 27.6172ZM15.6446 36.2752C15.6273 36.3596 15.6002 36.4346 15.5 36.4472H15.5005V37.1045C15.6199 37.1126 15.6343 37.2031 15.6486 37.2928L15.6495 37.2984C15.6906 37.5625 15.8179 37.7865 15.9636 38.0023C16.38 38.6197 16.9892 38.8848 17.6965 38.9538C17.841 38.968 17.9864 38.9693 18.1319 38.9706C18.4074 38.9731 18.6832 38.9756 18.954 39.0655C19.0548 39.0991 19.1609 39.1166 19.2668 39.1341L19.2669 39.1341C19.3823 39.1531 19.4976 39.1721 19.6054 39.2118C20.0105 39.3608 20.4134 39.5169 20.7925 39.7322C21.764 40.2832 22.559 41.0189 23.1439 41.983C23.2636 42.1801 23.4033 42.368 23.5506 42.5455C23.7699 42.8106 24.0537 42.9914 24.3667 43.1272C24.6916 43.268 25.0344 43.2642 25.3734 43.2362C25.5738 43.2198 25.7785 43.1667 25.9648 43.09C26.4944 42.8725 26.8507 42.4513 27.1291 41.9693C27.4009 41.4982 27.7399 41.0874 28.1282 40.7176C28.6703 40.2016 29.2747 39.7787 29.9689 39.4884L30.0128 39.4701L30.0128 39.4701C30.3088 39.3463 30.6024 39.2235 30.9183 39.1609C31.0196 39.1409 31.1207 39.1187 31.2219 39.0965L31.2221 39.0965L31.2222 39.0965L31.2224 39.0964L31.2225 39.0964L31.2227 39.0964L31.2229 39.0963L31.223 39.0963L31.2232 39.0963L31.2234 39.0962L31.2235 39.0962L31.2237 39.0961L31.2238 39.0961L31.224 39.0961C31.4438 39.0479 31.6636 38.9997 31.886 38.9735C32.0214 38.9576 32.1574 38.9542 32.2937 38.9507H32.2937C32.5146 38.9451 32.7364 38.9395 32.9577 38.8809C33.1911 38.819 33.418 38.7544 33.6243 38.6344C34.1242 38.3436 34.4654 37.9032 34.6045 37.3488C34.7172 36.9008 34.7096 36.4346 34.5309 35.9816C34.1816 35.0959 33.4316 34.679 32.6653 34.5974C32.4519 34.5744 32.2445 34.6221 32.0311 34.6763C31.5264 34.805 31.123 35.063 30.8267 35.4914C30.7486 35.6043 30.6739 35.7199 30.5992 35.8354L30.5992 35.8354L30.5992 35.8355C30.5004 35.9882 30.4016 36.1409 30.2949 36.2878C29.7832 36.9928 29.1604 37.5729 28.405 38.0105C28.0356 38.2242 27.6663 38.4274 27.2558 38.5474C27.1477 38.579 27.0403 38.6159 26.933 38.6528L26.933 38.6528L26.933 38.6528L26.9329 38.6528L26.9329 38.6528L26.9329 38.6528L26.9329 38.6528L26.9328 38.6528L26.9328 38.6528L26.9328 38.6528L26.9328 38.6528L26.9327 38.6529L26.9327 38.6529L26.9327 38.6529L26.9327 38.6529C26.7116 38.7288 26.4907 38.8047 26.2637 38.8349C26.2149 38.8414 26.1659 38.8484 26.1168 38.8554C25.85 38.8935 25.5792 38.9321 25.3025 38.8919C25.2125 38.879 25.1179 38.8922 25.0237 38.9053C24.9177 38.9201 24.8121 38.9348 24.7143 38.9122C24.5708 38.8791 24.426 38.8684 24.2808 38.8576C24.1059 38.8447 23.9304 38.8317 23.7558 38.7796C23.6851 38.7585 23.6143 38.7379 23.5436 38.7172C23.2581 38.634 22.9736 38.5509 22.6949 38.4394C21.9909 38.1579 21.3687 37.7553 20.8142 37.2365C20.3901 36.84 20.0051 36.4138 19.7116 35.9082C19.3498 35.2843 18.8792 34.8275 18.1438 34.6505C17.7295 34.5508 17.3429 34.5908 16.9865 34.7305C16.2917 35.0022 15.8022 35.5034 15.6446 36.2752ZM102.257 24.8627C102.275 24.8387 102.293 24.8148 102.311 24.7918V24.7912C98.8131 21.0451 92.1473 20.2415 87.5961 24.4127C82.9492 28.6722 82.8381 36.0451 87.5669 40.4311C92.0287 44.57 98.6988 43.9176 102.309 40.0882C102.298 40.0737 102.287 40.0583 102.276 40.0428C102.254 40.0106 102.231 39.9776 102.204 39.9496C102.039 39.7815 101.873 39.6141 101.707 39.4468C101.541 39.2792 101.376 39.1116 101.211 38.9433C101.015 38.7437 100.82 38.5434 100.625 38.3432C100.269 37.978 99.9131 37.6128 99.5539 37.2513L99.5295 37.2266C99.3576 37.0528 99.3253 37.0202 99.0747 37.2491L99.0085 37.3097L99.0084 37.3099C98.9203 37.3908 98.8322 37.4717 98.74 37.5471C97.9131 38.2241 96.9567 38.6245 95.9256 38.8393C95.5411 38.9192 95.1393 38.9538 94.7461 38.9461C94.301 38.9373 93.8531 38.8951 93.4188 38.7681C93.3278 38.7416 93.2335 38.7247 93.1394 38.7079C93.0133 38.6854 92.8875 38.6629 92.77 38.6174C92.3178 38.4427 91.8722 38.2526 91.4552 37.9935C90.6759 37.5098 90.0217 36.8985 89.5051 36.1377C89.0101 35.4081 88.6651 34.6171 88.4956 33.7423C88.4014 33.2553 88.3505 32.7667 88.3646 32.277C88.3873 31.4943 88.5303 30.7323 88.8308 29.9999C89.0995 29.3448 89.4558 28.7532 89.9074 28.2137C90.332 27.7064 90.8232 27.2775 91.3777 26.9275C91.7498 26.6931 92.1397 26.4877 92.5626 26.3496C92.8242 26.2642 93.083 26.182 93.3516 26.1174C93.7269 26.0264 94.1049 25.9585 94.4873 25.9399C94.8631 25.9213 95.2362 25.9437 95.6148 26.0067C96.0821 26.084 96.5343 26.1864 96.9805 26.3463C97.4398 26.5107 97.8746 26.7183 98.2716 26.9993C98.5083 27.1671 98.7356 27.3496 98.9625 27.5319L98.9626 27.532C99.032 27.5877 99.1014 27.6435 99.1711 27.6988L99.1739 27.701C99.3276 27.8226 99.3306 27.825 99.4787 27.6867C99.4862 27.68 99.4939 27.6734 99.5016 27.6669L99.5017 27.6668L99.5151 27.6554L99.5232 27.6483C99.5287 27.6434 99.5341 27.6383 99.5393 27.633L100.056 27.1119L100.057 27.1105C100.748 26.4127 101.44 25.715 102.13 25.0158C102.176 24.9685 102.217 24.9152 102.257 24.8627ZM66.8046 21.6564H71.0617V23.7757C72.9614 22.4129 75.0057 21.675 77.2954 21.6367C79.5921 21.5983 81.6678 22.2409 83.5903 23.5462C83.5659 23.5895 83.5437 23.6314 83.5221 23.672C83.4779 23.7552 83.4367 23.8326 83.3872 23.9044C82.7103 24.8915 82.0328 25.878 81.3499 26.8613C81.1972 27.0815 81.1447 27.0952 80.8988 26.938C80.4742 26.6657 80.0188 26.4384 79.5401 26.2861C79.1605 26.1651 78.7711 26.0692 78.3693 26.015L78.3597 26.0137C77.9503 25.9582 77.5424 25.903 77.1345 25.9449C76.7815 25.981 76.4273 26.0215 76.078 26.113C75.8029 26.1853 75.5316 26.262 75.2614 26.3535C74.7713 26.5184 74.3207 26.7616 73.8956 27.0475C73.3172 27.437 72.8092 27.9146 72.3917 28.4761C72.0175 28.9795 71.7061 29.5218 71.4863 30.1188C71.1846 30.9383 71.0563 31.7786 71.0584 32.6517C71.0652 35.1441 71.0641 37.6365 71.063 40.1289C71.0626 41.0518 71.0622 41.9748 71.0622 42.8977V43.2329H66.8274C66.8236 43.2175 66.8195 43.2024 66.8153 43.1874L66.8121 43.1758C66.8 43.1328 66.7884 43.0911 66.7846 43.0483C66.7788 42.9784 66.7793 42.9082 66.7799 42.8378C66.7801 42.8167 66.7803 42.7956 66.7803 42.7745C66.7803 35.889 66.7803 29.0036 66.7813 22.1182C66.7813 22.017 66.7876 21.9159 66.7941 21.8125C66.7973 21.7613 66.8005 21.7096 66.803 21.6569L66.8046 21.6564ZM25.1454 30.2815C23.9681 30.2777 22.9467 31.3053 23.0112 32.4233V32.4239C22.9294 33.589 24.0038 34.5897 25.0891 34.6007C26.3065 34.6127 27.2423 33.5599 27.2704 32.4874C27.2997 31.3815 26.3265 30.2854 25.1454 30.2815ZM45.6915 49.7508C45.6569 48.5293 46.6869 47.5094 47.9178 47.5214C49.1314 47.5335 50.1414 48.5315 50.1284 49.7749C50.1149 51.0529 49.1081 52.0049 47.8945 52.0054C46.7021 52.0054 45.6639 51.054 45.6921 49.7508H45.6915ZM46.2271 49.7859C46.1919 50.102 46.2851 50.4208 46.4622 50.7122C46.6923 51.0901 47.0134 51.3673 47.4505 51.4588C47.7001 51.5108 47.9568 51.5289 48.22 51.4834C48.4177 51.4495 48.5915 51.3876 48.7621 51.289C49.1612 51.0584 49.3979 50.7138 49.5251 50.2701C49.6567 49.8111 49.615 49.3778 49.4168 48.9505C49.1271 48.325 48.5964 48.0697 47.9606 47.9794C47.902 47.9709 47.8396 47.9842 47.778 47.9972L47.7592 48.0011L47.7325 48.0065L47.7223 48.0084C47.6949 48.0133 47.6677 48.0212 47.6405 48.029L47.6404 48.0291C47.5978 48.0414 47.5554 48.0537 47.5127 48.0544C47.3254 48.0571 47.1667 48.1404 47.021 48.2395C46.4909 48.6 46.1914 49.0897 46.2266 49.7864L46.2271 49.7859ZM54.2954 52.0468L54.2956 52.047H54.2951L54.2954 52.0468ZM54.2954 52.0468L52.5924 49.9766L51.5798 48.7456C51.5275 48.9595 51.5325 49.1488 51.5373 49.3297V49.3299V49.33V49.3302V49.3303V49.3304V49.3306V49.3307V49.3308C51.5393 49.4044 51.5412 49.4767 51.5391 49.5487C51.5339 49.7323 51.5351 49.9163 51.5364 50.1001V50.1003V50.1004V50.1005V50.1005V50.1006V50.1007V50.1007V50.1008V50.1009C51.537 50.1816 51.5375 50.2623 51.5375 50.3429V51.1103V51.8882H51.0593C51.0046 51.6904 50.9922 47.8555 51.0431 47.551C51.1629 47.4807 51.2306 47.5627 51.2888 47.6334L51.298 47.6445L51.3112 47.66C51.4399 47.8073 51.5621 47.9602 51.6844 48.1132L51.6848 48.1137C51.7461 48.1903 51.8073 48.267 51.8695 48.343C52.4852 49.0962 53.1015 49.8488 53.7183 50.6009C53.748 50.6369 53.7792 50.6717 53.8203 50.7173C53.8467 50.7467 53.8771 50.7806 53.9138 50.8222C53.9362 50.5425 53.9338 50.2897 53.9316 50.0456V50.0455V50.045C53.9306 49.9413 53.9296 49.8391 53.9306 49.7371C53.9328 49.4986 53.9322 49.2603 53.9317 49.0219V49.0219V49.0218V49.0218V49.0217V49.0216V49.0216V49.0215V49.0215C53.9314 48.9129 53.9311 48.8044 53.9311 48.6958V47.6386H54.4001C54.4033 47.6686 54.4072 47.6984 54.4112 47.7282C54.42 47.7949 54.4288 47.8612 54.4288 47.9278C54.431 49.1789 54.4304 50.43 54.4294 51.6811L54.4295 51.6998L54.4297 51.7143C54.4313 51.8187 54.433 51.9301 54.2954 52.0468ZM79.689 50.1578H78.3417V49.759C78.5356 49.7021 79.9641 49.6933 80.2734 49.7525C80.2734 49.8496 80.2743 49.9473 80.2752 50.0453C80.2777 50.3068 80.2802 50.5708 80.2652 50.8338C80.2605 50.9146 80.1992 50.9951 80.1411 51.0714C80.1259 51.0913 80.111 51.1109 80.0974 51.1301C79.8358 51.4971 79.4703 51.7414 79.0581 51.8745C78.7668 51.9687 78.4565 52.0624 78.1332 52.0104C77.264 51.8701 76.5985 51.461 76.2551 50.601C75.8657 49.6254 76.1912 48.5156 77.0209 47.9388C77.2402 47.7865 77.4725 47.6819 77.7319 47.6058C77.9637 47.5378 78.1901 47.5121 78.4218 47.5258C78.9737 47.5592 79.4546 47.7663 79.8472 48.165C80.0497 48.3705 80.0416 48.4389 79.8136 48.6049C79.784 48.6268 79.7513 48.6441 79.7215 48.6598L79.7205 48.6603C79.7114 48.6651 79.7026 48.6698 79.6942 48.6744L79.6853 48.6794C79.6334 48.635 79.5822 48.5905 79.5312 48.5462L79.5311 48.5461L79.531 48.5461L79.5309 48.546L79.5308 48.5459L79.5307 48.5458L79.5307 48.5457C79.422 48.4513 79.3143 48.3578 79.2038 48.268C79.0484 48.1426 78.8729 48.0664 78.6688 48.0511C78.6127 48.0469 78.5563 48.0312 78.5003 48.0157L78.5002 48.0157C78.4236 47.9943 78.3477 47.9732 78.2745 47.9821C77.6918 48.0528 77.1882 48.2593 76.8649 48.8092C76.3981 49.6035 76.5974 50.6464 77.2765 51.1761C77.4709 51.3279 77.6805 51.4615 77.9431 51.4785C77.9922 51.4816 78.0409 51.4984 78.0893 51.5151C78.1446 51.5342 78.1994 51.5531 78.254 51.5513C78.7755 51.5344 79.2471 51.3788 79.61 50.9784C79.7811 50.7894 79.8066 50.498 79.689 50.1578ZM71.8573 51.8953H72.271L72.2716 51.8959V48.7495C72.3069 48.7779 72.3378 48.8012 72.3651 48.8217C72.4157 48.8597 72.454 48.8885 72.4849 48.9237C72.588 49.0411 72.6867 49.1623 72.7855 49.2837L72.8613 49.3767C73.0086 49.5571 73.1557 49.7376 73.3028 49.9181C73.6225 50.3103 73.9422 50.7025 74.2634 51.0934C74.3595 51.2104 74.4572 51.3259 74.5548 51.4414C74.6927 51.6045 74.8304 51.7675 74.9636 51.9342C75.0291 52.0164 75.0849 52.0235 75.1634 51.9775C75.217 51.5754 75.197 47.8254 75.1434 47.6446H74.6684V47.9656L74.6685 48.4576V48.4603V48.4603V48.4604V48.4604V48.4604V48.4605C74.6687 49.117 74.6689 49.7733 74.6663 50.43C74.6662 50.4395 74.6666 50.4491 74.6671 50.4589C74.6677 50.4682 74.6684 50.4775 74.6691 50.4869L74.6691 50.4871C74.6751 50.5638 74.6814 50.6451 74.5915 50.7006C74.5841 50.6947 74.5768 50.6892 74.5697 50.684C74.5541 50.6724 74.5399 50.6618 74.5287 50.6486C74.0641 50.0849 73.6 49.5213 73.1364 48.9565C72.7682 48.5079 72.4004 48.0598 72.0354 47.609C71.9759 47.5356 71.9196 47.5028 71.8351 47.5504C71.7766 47.9114 71.795 51.697 71.8573 51.8953ZM62.1323 47.627L62.1648 47.625L62.1649 47.625C62.2219 47.6214 62.268 47.6185 62.3142 47.6189C62.3557 47.6189 62.3971 47.623 62.4476 47.6281L62.4477 47.6281L62.4479 47.6281C62.4731 47.6306 62.5005 47.6333 62.5313 47.6359C62.5347 47.6669 62.539 47.6976 62.5433 47.7281C62.5525 47.7942 62.5616 47.8595 62.5616 47.9251C62.5622 48.0951 62.5632 48.2652 62.5642 48.4352V48.4353V48.4353V48.4354V48.4354V48.4355C62.5674 48.9774 62.5706 49.5193 62.5579 50.0608C62.5481 50.476 62.534 50.9011 62.2806 51.2621C62.0559 51.5825 61.7797 51.8208 61.3843 51.9167L61.3467 51.926L61.2877 51.9411C61.1196 51.9844 60.9543 52.0269 60.7783 52.0103C60.0917 51.9457 59.5604 51.639 59.2875 50.9767C59.2063 50.7795 59.1635 50.5527 59.1597 50.3391C59.1487 49.6961 59.1505 49.0531 59.1524 48.4099V48.4098V48.4097V48.4096V48.4095V48.4088C59.153 48.1943 59.1536 47.9797 59.1537 47.7651C59.1537 47.7419 59.1582 47.7189 59.164 47.6898L59.164 47.6897C59.1669 47.6749 59.1701 47.6585 59.1732 47.6397H59.6731V47.9503C59.6734 48.1891 59.6732 48.4279 59.673 48.6667V48.6676C59.6725 49.2318 59.672 49.796 59.6785 50.3599C59.6839 50.8255 59.8621 51.2035 60.3099 51.3914C60.5444 51.4894 60.7838 51.5606 61.0551 51.4949C61.0826 51.4883 61.11 51.482 61.1373 51.4758L61.1378 51.4757C61.3091 51.4366 61.4746 51.3989 61.6188 51.2818C61.928 51.0304 62.0515 50.6897 62.0575 50.3095C62.0664 49.7468 62.0648 49.184 62.0631 48.6212C62.0625 48.399 62.0618 48.1769 62.0618 47.9547V47.6309C62.0873 47.6297 62.1106 47.6283 62.1323 47.627ZM45.028 48.4687C45.0323 48.4627 45.0364 48.4569 45.0406 48.4515H45.0395C44.7785 47.861 43.7041 47.2574 42.5749 47.6397C41.7973 47.9032 41.0749 48.6542 41.0987 49.8083C41.1225 50.9428 41.8531 51.7677 43 51.9945C43.684 52.1298 44.8104 51.685 45.0427 51.0561L44.9994 51.0176C44.9582 50.9808 44.9151 50.9424 44.87 50.9061C44.7113 50.7784 44.7092 50.7779 44.5786 50.9236C44.2965 51.2386 43.9759 51.4473 43.5335 51.4971C43.3692 51.5158 43.2142 51.4946 43.0603 51.4736L43.0603 51.4736C42.9528 51.4589 42.8459 51.4443 42.7369 51.4434C41.9354 51.0775 41.6088 50.5073 41.6061 49.736C41.604 49.0979 41.8904 48.5698 42.4493 48.2269L42.4553 48.2232C42.5576 48.1601 42.6692 48.0913 42.7829 48.0757C42.8431 48.0675 42.9026 48.0573 42.962 48.0472L42.9623 48.0471C43.1861 48.009 43.4079 47.9712 43.6548 48.0352C43.99 48.1223 44.2629 48.2702 44.4974 48.5057L44.5179 48.5264C44.7485 48.7585 44.7488 48.7587 44.9956 48.509C45.008 48.4965 45.0183 48.4821 45.028 48.4687ZM55.6651 50.7779C55.6774 50.7965 55.6894 50.8152 55.7013 50.8337L55.7013 50.8338C55.7282 50.8756 55.7548 50.917 55.7837 50.9564C56.1422 51.45 56.6344 51.5771 57.2009 51.4609C57.4776 51.404 57.6363 51.1964 57.7105 50.9318C57.7733 50.7094 57.6655 50.4295 57.4468 50.2991C57.2793 50.1996 57.1056 50.1111 56.9318 50.0226C56.8004 49.9557 56.6689 49.8888 56.5402 49.8171L56.5011 49.7953L56.501 49.7953L56.501 49.7952L56.501 49.7952C56.2991 49.683 56.0948 49.5695 55.9158 49.4254C55.4051 49.0135 55.4014 48.1656 56.0523 47.7514C56.4227 47.5159 56.8294 47.4507 57.28 47.5959C57.6477 47.7142 57.9141 47.9273 58.1556 48.2203C58.1503 48.228 58.1451 48.2359 58.14 48.2439L58.1241 48.2693L58.124 48.2694C58.1017 48.3055 58.0795 48.3414 58.0495 48.3688C57.861 48.5424 57.8156 48.5506 57.6488 48.3463C57.4424 48.0933 57.1532 48.0182 56.8711 47.9903C56.6426 47.9678 56.3902 48.0451 56.2207 48.2401C55.9721 48.526 56.0566 48.9576 56.407 49.1576C56.5515 49.2398 56.701 49.3129 56.8506 49.386C56.9948 49.4564 57.1391 49.5269 57.2789 49.6056C57.4847 49.7218 57.6845 49.8538 57.8675 50.0033C58.4687 50.4941 58.31 51.4062 57.6742 51.7803C57.3883 51.9484 57.0682 52.0547 56.7271 52.0076C56.1785 51.932 55.7257 51.6795 55.3867 51.2314C55.3163 51.1388 55.3115 51.049 55.4133 50.9723C55.4546 50.941 55.4955 50.9093 55.5458 50.8702L55.5471 50.8693L55.6645 50.7784L55.6651 50.7779ZM65.8867 47.6386V48.0445C66.1363 48.0666 66.3835 48.064 66.6316 48.0614C66.8826 48.0588 67.1343 48.0562 67.39 48.079V51.88H67.9061V48.0598H69.3445C69.3932 47.9072 69.3934 47.7668 69.345 47.6386H65.8867ZM63.7114 47.6304H64.1592C64.1628 47.6705 64.1672 47.7097 64.1715 47.7482C64.1804 47.8281 64.189 47.9052 64.189 47.9821C64.1902 48.5372 64.1903 49.0926 64.1903 49.6479C64.1904 50.1243 64.1905 50.6007 64.1912 51.077C64.1912 51.1547 64.1972 51.2324 64.2039 51.3195V51.3195C64.2073 51.3632 64.2109 51.4092 64.2139 51.4588H66.183V51.9019C65.6385 51.907 65.0943 51.9063 64.5445 51.9055C64.2684 51.9052 63.991 51.9048 63.7114 51.9052V47.6304ZM70.1172 51.8904H70.5959C70.6517 51.4445 70.6328 47.8331 70.5792 47.6479H70.1172V51.8904Z" fill="#F5EBE0"/>
</svg>
