<svg width="244" height="66" viewBox="0 0 244 66" fill="none" xmlns="http://www.w3.org/2000/svg">
<path d="M4.94372 26.441C4.9888 26.4279 5.03267 26.4078 5.07896 26.4024C5.8417 26.3201 6.60445 26.24 7.3672 26.1594C7.8222 26.1114 8.2772 26.0634 8.73281 26.016C8.7887 26.0101 8.8446 26.0065 8.91914 26V27.2239C8.97323 27.1842 9.00449 27.164 9.03274 27.1397C9.70773 26.5583 10.4939 26.2128 11.3775 26.0836C12.4155 25.9318 13.4397 26.0006 14.4399 26.3165C15.1888 26.553 15.8355 26.956 16.3699 27.5286C16.3933 27.5534 16.4174 27.5777 16.448 27.6098C16.5526 27.5149 16.6524 27.4213 16.757 27.3318C17.3292 26.8398 17.9928 26.5162 18.7188 26.3141C19.7977 26.0148 20.8995 25.9425 22.0108 26.0575C23.1937 26.1802 24.2576 26.5814 25.0949 27.448C25.9791 28.3631 26.5176 29.4435 26.6414 30.7101C26.6673 30.9745 26.6811 31.2412 26.6811 31.5073C26.6841 34.2781 26.6829 37.049 26.6835 39.8204C26.6835 39.8803 26.6895 39.9401 26.6931 39.9994H22.6888C22.6906 39.9609 22.6943 39.9224 22.6943 39.8838C22.6943 37.3412 22.6979 34.7991 22.6912 32.2565C22.6906 31.9536 22.6582 31.6472 22.6029 31.3491C22.4905 30.7463 22.2368 30.2117 21.7265 29.8294C21.325 29.5289 20.8538 29.4181 20.3639 29.3511C19.936 29.293 19.5405 29.3677 19.1678 29.5745C18.6335 29.8709 18.2722 30.329 17.9639 30.8352C17.9465 30.8636 17.9369 30.8992 17.9332 30.933C17.9116 31.1333 17.8774 31.3342 17.8761 31.5352C17.8701 32.8877 17.8701 34.2408 17.8701 35.5933C17.8701 37.062 17.8719 38.5307 17.8725 39.9994H13.8941C13.8929 39.965 13.8911 39.9307 13.8911 39.8963C13.8911 37.4224 13.8929 34.9479 13.8893 32.474C13.8893 32.1782 13.8737 31.8813 13.8394 31.5879C13.7799 31.0865 13.6188 30.6165 13.3063 30.2081C12.9198 29.7031 12.3722 29.4892 11.7622 29.3789C11.1773 29.2729 10.6364 29.3535 10.1369 29.6794C9.61817 30.0179 9.25633 30.492 8.94678 31.0112C8.92454 31.0486 8.92154 31.1013 8.92154 31.1469C8.92094 34.098 8.92154 37.049 8.92154 40H4.94312C4.94312 35.4807 4.94312 30.9608 4.94312 26.4416L4.94372 26.441Z" fill="#F5EBE0"/>
<path d="M36.2013 40C35.9826 39.9757 35.7633 39.9567 35.5459 39.9259C33.2307 39.5967 31.5118 38.414 30.4101 36.3678C30.0606 35.7184 29.8581 35.0156 29.7553 34.2866C29.5994 33.1823 29.6233 32.0833 29.8999 30.9979C30.2942 29.4493 31.1581 28.2115 32.454 27.2708C33.398 26.5858 34.4651 26.2086 35.6223 26.0692C36.5986 25.9512 37.5683 25.9791 38.5296 26.192C40.123 26.5449 41.3687 27.4055 42.2888 28.7364C42.9006 29.6213 43.2483 30.6058 43.4066 31.6622C43.5243 32.4439 43.4956 33.2309 43.4998 34.0174C43.5004 34.1413 43.4998 34.2647 43.4998 34.4029H33.7631C33.8138 34.8578 33.956 35.2623 34.2201 35.6187C34.627 36.1686 35.1832 36.5031 35.841 36.6691C36.6291 36.8684 37.4165 36.7866 38.1962 36.6069C38.9179 36.4408 39.5769 36.1318 40.1809 35.7077C40.2018 35.6929 40.2246 35.6816 40.2383 35.6733C40.9923 36.4218 41.7409 37.1656 42.4979 37.917C42.2894 38.207 42.0307 38.4645 41.7409 38.691C41.1321 39.1673 40.4361 39.465 39.6922 39.6625C38.9818 39.8511 38.2577 39.9478 37.5235 39.9786C37.481 39.9804 37.4398 39.9929 37.3974 40H36.2007H36.2013ZM39.5351 31.5928C39.5387 31.553 39.544 31.5275 39.5429 31.5026C39.5196 30.8846 39.2973 30.3579 38.8163 29.9499C37.7774 29.0679 36.083 28.9772 34.9156 29.7346C34.287 30.1426 33.9417 30.7073 33.9029 31.4534C33.9005 31.4985 33.9029 31.5435 33.9029 31.5928H39.5351Z" fill="#F5EBE0"/>
<path d="M62.419 40C62.3486 39.9899 62.2782 39.9769 62.2073 39.9703C60.6701 39.8333 59.3253 39.2343 58.2211 38.0652C57.4201 37.2176 56.874 36.2117 56.5974 35.0414C56.2964 33.7692 56.2659 32.4845 56.5431 31.211C57.0387 28.9304 58.3197 27.3426 60.3552 26.4713C61.2915 26.0704 62.2782 25.9654 63.2804 26.0093C64.1069 26.0455 64.908 26.2092 65.6696 26.5644C66.7506 27.0692 67.5809 27.8818 68.2068 28.9399C68.7561 29.8688 69.071 30.8901 69.1469 31.9809C69.2012 32.7638 69.1879 33.5521 69.2046 34.3374C69.2046 34.3534 69.1996 34.37 69.1946 34.3997H60.1706C60.2 34.6939 60.2643 34.9614 60.3769 35.2135C60.746 36.0415 61.3913 36.4899 62.2012 36.6933C62.7743 36.8374 63.3525 36.7876 63.9268 36.685C64.7289 36.5415 65.459 36.2093 66.1225 35.7081C66.1419 35.6933 66.163 35.6808 66.1724 35.6737C66.8719 36.4222 67.5665 37.166 68.2716 37.9211C68.0904 38.1963 67.8542 38.4507 67.5898 38.6761C67.0233 39.1583 66.3747 39.4597 65.6812 39.659C65.0227 39.8482 64.3509 39.946 63.6696 39.9769C63.6308 39.9786 63.592 39.9917 63.5532 39.9988H62.4185L62.419 40ZM65.5338 31.5906C65.5305 30.9483 65.342 30.4014 64.8902 29.9785C64.388 29.5081 63.7932 29.2715 63.1319 29.23C62.2993 29.1772 61.5454 29.4038 60.9151 30.007C60.4789 30.4245 60.3009 30.9649 60.3015 31.5906H65.5338Z" fill="#F5EBE0"/>
<path d="M52.4688 40C52.4181 39.9907 52.3674 39.9771 52.3161 39.9728C50.813 39.8489 49.5287 39.2873 48.5823 38.0537C48.0135 37.3119 47.7294 36.4592 47.6561 35.531C47.6359 35.2765 47.6347 35.0201 47.6347 34.7644C47.6329 32.8119 47.6341 30.8601 47.6341 28.9076C47.6341 28.8494 47.6341 28.7912 47.6341 28.7126H45.4773V25.4071H47.628V21.4397C48.9905 21.2923 50.3359 21.1468 51.6959 21V25.3953H53.8484V28.7033H51.6984C51.6984 28.7627 51.6984 28.8098 51.6984 28.8569C51.6984 30.7505 51.6947 32.6447 51.7032 34.5383C51.7045 34.8139 51.7472 35.0926 51.8028 35.3632C51.9623 36.131 52.5928 36.5026 53.2325 36.5527C53.6199 36.5831 53.9877 36.4753 54.3616 36.4053C54.405 36.3973 54.4484 36.3892 54.5126 36.3775C54.7961 37.354 55.0789 38.3281 55.3637 39.3089C55.0068 39.5529 54.6262 39.73 54.2162 39.834C53.9682 39.8972 53.7116 39.9275 53.4592 39.974C53.4299 39.9796 53.4012 39.9901 53.3725 39.9988H52.4682L52.4688 40Z" fill="#F5EBE0"/>
<path d="M79.0284 40C78.852 39.9687 78.6705 39.9516 78.4994 39.9032C77.9626 39.7505 77.5987 39.4097 77.3816 38.939C77.0678 38.2599 77.0106 37.566 77.3112 36.8673C77.4343 36.5817 77.652 36.4278 77.8948 36.4597C78.0126 36.475 78.1244 36.5375 78.2376 36.5829C78.5961 36.7269 78.954 36.8722 79.3106 37.0187C79.5633 37.1229 79.8211 37.0959 80.083 37.0567C81.9593 36.7772 83.4383 35.4539 83.8074 33.7009C83.8719 33.3944 83.8679 33.0751 83.8936 32.7613C83.8982 32.7043 83.8942 32.6473 83.8942 32.6093C84.1403 32.5553 84.3864 32.5308 84.6074 32.4487C85.3884 32.1594 85.9936 31.6905 86.2838 30.9286C86.3989 30.6264 86.3825 30.3181 86.3068 30.0098C86.318 30.0067 86.3292 30.0031 86.3397 30C86.443 30.2599 86.5581 30.5167 86.6463 30.7809C87.0766 32.0674 87.118 33.3687 86.7496 34.6699C86.2456 36.4493 85.1594 37.8492 83.5008 38.8563C82.5817 39.414 81.5784 39.7757 80.4929 39.9326C80.3205 39.9577 80.1468 39.9773 79.9738 39.9994H79.0284V40Z" fill="#F5EBE0"/>
<path d="M110.544 26.9804C109.806 27.8538 109.078 28.7142 108.358 29.567C108.259 29.4706 108.165 29.3799 108.072 29.2861C107.426 28.6316 106.647 28.3519 105.758 28.3907C105.299 28.4107 104.843 28.4526 104.419 28.6629C104.207 28.768 104.036 28.9225 103.912 29.1328C103.755 29.3974 103.782 29.6658 103.993 29.888C104.248 30.157 104.576 30.2847 104.905 30.4111C105.515 30.6451 106.16 30.6983 106.792 30.8178C107.721 30.993 108.588 31.3352 109.357 31.9265C109.897 32.342 110.245 32.9007 110.445 33.5589C110.73 34.4981 110.802 35.4629 110.648 36.4346C110.48 37.4839 109.932 38.2836 109.1 38.8774C108.22 39.5056 107.247 39.8647 106.189 39.9579C104.999 40.0631 103.821 39.9805 102.677 39.6038C101.612 39.2534 100.685 38.6521 99.8845 37.835C99.8755 37.8256 99.869 37.8131 99.8523 37.7887C100.574 36.934 101.297 36.078 102.023 35.2183C102.164 35.3578 102.292 35.4973 102.433 35.6219C102.881 36.0186 103.406 36.2569 103.966 36.4146C104.767 36.6392 105.571 36.6561 106.376 36.4459C106.768 36.3439 107.1 36.15 107.285 35.7483C107.46 35.3691 107.354 34.9242 107.004 34.7171C106.778 34.5832 106.528 34.4693 106.274 34.4149C105.772 34.306 105.261 34.2422 104.753 34.1627C103.693 33.9969 102.698 33.6397 101.788 33.0421C101.209 32.6617 100.848 32.0992 100.654 31.4222C100.375 30.4473 100.341 29.4562 100.561 28.4664C100.783 27.4722 101.33 26.7082 102.132 26.1363C102.929 25.5675 103.788 25.1539 104.753 25.0401C105.154 24.9925 105.564 24.9963 105.969 25.0063C106.597 25.0213 107.218 25.097 107.828 25.2628C108.644 25.4849 109.347 25.9261 109.994 26.4754C110.182 26.6343 110.357 26.8089 110.544 26.981V26.9804Z" fill="#F5EBE0"/>
<path d="M92.9014 40H88.9773V25.4491C90.2816 25.2998 91.5817 25.1505 92.8961 25V26.6394C92.9424 26.6032 92.9697 26.5866 92.9917 26.5631C94.0727 25.43 95.3775 24.9397 96.8796 25.0241C97.2051 25.0426 97.5294 25.0826 97.875 25.115C97.6666 26.513 97.4622 27.8811 97.2615 29.2276C97.0079 29.0847 96.7721 28.9215 96.5155 28.8129C96.0796 28.6287 95.6187 28.5296 95.1495 28.5887C94.5312 28.6662 94.0572 29.032 93.6575 29.5217C93.3611 29.885 93.1319 30.2954 92.9341 30.7266C92.9056 30.7889 92.9026 30.8689 92.9026 30.94C92.9014 33.8955 92.9014 36.8509 92.902 39.8063V40H92.9014Z" fill="#F5EBE0"/>
<path d="M77.439 28.7214C76.9039 27.9388 76.1885 27.5509 75.2931 27.5471C74.8855 27.5452 74.534 27.7113 74.2351 28.0066C74.2145 28.0268 74.1944 28.0478 74.1743 28.0687C74.1654 28.0604 74.1566 28.0516 74.1477 28.0433C74.358 27.7803 74.5559 27.5047 74.7798 27.2556C75.8442 26.0737 77.1354 25.3336 78.6506 25.0921C80.9549 24.7252 82.9402 25.4609 84.6124 27.1815C85.1334 27.7176 85.5392 28.3481 85.844 29.0497C86.0744 29.5795 86.0738 30.1149 85.7991 30.6232C85.3874 31.3855 84.7743 31.8526 83.9556 31.9933C83.9012 32.0028 83.8439 32.0009 83.789 31.9958C83.4671 31.9673 83.32 31.7886 83.3034 31.4426C83.2875 31.113 83.2515 30.7848 83.2284 30.4559C83.2007 30.0554 83.0146 29.7429 82.7736 29.4508C81.4504 27.8443 79.2283 27.5053 77.5371 28.6587C77.5017 28.6827 77.4644 28.7049 77.4385 28.7208L77.439 28.7214Z" fill="#F5EBE0"/>
<path d="M77.0864 36.6574C76.6561 37.4585 76.8172 38.8343 77.3977 39.4982C77.5943 39.7233 77.8308 39.873 78.1022 39.9629L78.0937 40C77.8491 39.9535 77.6012 39.9208 77.3606 39.8573C75.2437 39.2983 73.7062 37.9376 72.7749 35.7784C72.2041 34.4549 72.0573 33.0502 72.2516 31.6027C72.3853 30.6061 72.7012 29.6862 73.2052 28.8418C73.6165 28.152 74.1947 27.903 74.9175 28.0332C75.5037 28.1388 76.0111 28.4218 76.407 28.9166C76.487 29.0166 76.5499 29.1417 76.595 29.2662C76.6847 29.5133 76.6144 29.7007 76.4167 29.856C76.0871 30.1144 75.7625 30.3817 75.4369 30.647C75.3134 30.7476 75.2409 30.8872 75.182 31.0413C74.4416 32.9886 75.0238 35.1603 76.6081 36.3424C76.7584 36.4544 76.9201 36.5487 77.0858 36.6568L77.0864 36.6574Z" fill="#F5EBE0"/>
<path d="M226.632 28.4479C226.669 28.1356 226.648 27.8679 226.652 27.6009C226.656 27.3399 226.653 27.0784 226.653 26.8168V22.8403C226.737 22.7517 226.825 22.7767 226.905 22.7761C227.455 22.7743 228.005 22.7749 228.555 22.7749C228.747 22.7749 228.938 22.7737 229.13 22.7755C229.187 22.7755 229.244 22.7853 229.314 22.792C229.322 22.8489 229.331 22.8965 229.334 22.9442C229.337 23.0114 229.335 23.0792 229.335 23.1465C229.335 28.0011 229.335 32.8564 229.335 37.7111C229.335 37.8192 229.333 37.928 229.331 38.0454C229.28 38.0588 229.241 38.0765 229.202 38.0765C228.427 38.0777 227.653 38.0765 226.877 38.0753C226.862 38.0753 226.845 38.068 226.811 38.0594C226.802 38.0124 226.783 37.958 226.782 37.9036C226.778 37.6591 226.781 37.4147 226.779 37.1702C226.779 37.1238 226.766 37.0774 226.759 37.0242C226.651 37.0437 226.604 37.1189 226.544 37.1727C226.154 37.5222 225.719 37.7985 225.233 37.9922C224.658 38.2214 224.062 38.3136 223.447 38.3002C221.647 38.2611 220.123 37.1819 219.299 35.6749C218.783 34.7301 218.557 33.7138 218.582 32.6382C218.605 31.6696 218.829 30.7524 219.296 29.9035C219.905 28.795 220.782 27.9865 221.967 27.5452C223.426 27.002 225.173 27.2146 226.439 28.2994C226.488 28.3421 226.542 28.3794 226.631 28.4472L226.632 28.4479ZM226.658 32.711C226.642 32.5808 226.63 32.3608 226.587 32.1469C226.433 31.3842 226.073 30.742 225.447 30.2751C224.789 29.7837 224.058 29.6444 223.268 29.8748C222.64 30.0575 222.16 30.448 221.805 30.995C221.437 31.5615 221.276 32.1897 221.286 32.865C221.296 33.5152 221.47 34.1141 221.842 34.6451C222.311 35.3143 222.948 35.714 223.76 35.7873C224.507 35.8545 225.159 35.6021 225.702 35.0864C226.351 34.4691 226.642 33.6918 226.659 32.711H226.658Z" fill="#F5EBE0"/>
<path d="M206.635 33.8347C206.282 33.8396 205.958 33.8366 205.634 33.8372C205.309 33.8372 204.984 33.8372 204.659 33.8372H200.733C200.408 33.8372 200.083 33.8372 199.758 33.8372C199.434 33.8372 199.11 33.8372 198.768 33.8372C198.771 33.9032 198.764 33.9527 198.777 33.9955C199.212 35.3619 200.371 36.036 201.602 35.929C202.032 35.8917 202.436 35.7713 202.803 35.5361C203.052 35.376 203.265 35.1767 203.432 34.9292C203.478 34.8602 203.526 34.7911 203.569 34.7282C203.777 34.6958 206.17 34.6927 206.409 34.7251C206.401 34.7734 206.4 34.8229 206.386 34.8681C205.96 36.1955 205.133 37.1732 203.89 37.7831C203.268 38.0887 202.606 38.2396 201.918 38.3032C201.246 38.3649 200.586 38.3117 199.939 38.1235C198.671 37.755 197.67 37.007 196.936 35.9021C196.269 34.8981 195.978 33.7859 196.013 32.5759C196.062 30.855 196.966 29.0351 198.643 28.0017C199.643 27.3857 200.729 27.1351 201.897 27.2445C202.689 27.3185 203.433 27.5427 204.118 27.9546C205.107 28.5492 205.798 29.4024 206.224 30.4773C206.529 31.2449 206.67 32.0466 206.674 32.8722C206.675 33.0996 206.67 33.3275 206.664 33.5549C206.662 33.638 206.647 33.7205 206.635 33.836V33.8347ZM203.962 31.5895C203.841 31.1116 203.608 30.7028 203.263 30.3618C202.778 29.8815 202.183 29.6437 201.511 29.6083C200.846 29.5735 200.247 29.7586 199.717 30.176C199.36 30.4565 198.886 31.1037 198.806 31.5987C198.845 31.6054 198.884 31.6164 198.922 31.6176C199.745 31.6482 203.729 31.6292 203.962 31.5901L203.962 31.5895Z" fill="#F5EBE0"/>
<path d="M217.916 33.8311C217.794 33.8336 217.695 33.8373 217.596 33.8373C215.179 33.8373 212.762 33.8373 210.345 33.8379C210.248 33.8379 210.147 33.8232 210.044 33.8629C210.048 33.9045 210.046 33.9381 210.056 33.9686C210.319 34.801 210.82 35.428 211.636 35.7482C212.432 36.0605 213.222 36.0067 213.979 35.6015C214.286 35.4378 214.535 35.2025 214.731 34.9116C214.773 34.8493 214.814 34.7863 214.854 34.7283C215.056 34.6959 217.454 34.6928 217.681 34.724C217.714 34.8114 217.669 34.8871 217.643 34.9648C217.207 36.2377 216.396 37.1782 215.2 37.7728C214.61 38.0655 213.982 38.2208 213.33 38.2923C212.728 38.3583 212.13 38.3411 211.54 38.203C209.91 37.8205 208.695 36.8739 207.918 35.3803C206.575 32.7935 207.441 29.5839 209.885 28.0286C210.58 27.5862 211.339 27.324 212.159 27.247C213.224 27.1462 214.237 27.3289 215.185 27.8306C216.261 28.4008 217.015 29.2747 217.482 30.404C217.752 31.0555 217.896 31.7363 217.945 32.4396C217.971 32.8271 217.975 33.2139 217.943 33.6014C217.938 33.6674 217.928 33.7328 217.916 33.8318L217.916 33.8311ZM210.092 31.6177C211.766 31.6177 213.421 31.6177 215.075 31.6171C215.124 31.6171 215.173 31.6067 215.221 31.6012C215.208 31.2749 214.933 30.7518 214.585 30.3967C214.101 29.9011 213.505 29.6518 212.824 29.6096C212.16 29.5686 211.559 29.7471 211.025 30.1584C210.628 30.4639 210.158 31.1404 210.092 31.6177Z" fill="#F5EBE0"/>
<path d="M185.835 34.6518C185.894 34.642 185.934 34.6323 185.975 34.6298C186.375 34.6103 188.343 34.6249 188.535 34.6494C188.549 34.6689 188.572 34.6934 188.586 34.7227C188.825 35.1908 189.215 35.4774 189.69 35.6589C190.158 35.8374 190.644 35.8899 191.141 35.8453C191.433 35.819 191.723 35.7836 191.995 35.6681C192.132 35.61 192.269 35.541 192.388 35.4518C192.828 35.1181 192.727 34.4893 192.315 34.2631C192.123 34.1574 191.92 34.0853 191.71 34.0279C191.3 33.9154 190.88 33.8451 190.46 33.7791C189.818 33.6783 189.178 33.5646 188.555 33.3715C188.107 33.2328 187.676 33.0538 187.281 32.794C187.078 32.6602 186.89 32.5068 186.727 32.3247C186.276 31.8242 186.092 31.2278 186.108 30.5598C186.132 29.5936 186.555 28.8298 187.281 28.2266C187.779 27.8123 188.357 27.5538 188.981 27.4053C190.089 27.1413 191.195 27.1351 192.291 27.47C193.082 27.7114 193.767 28.1294 194.306 28.7729C194.674 29.2117 194.917 29.7146 195.058 30.2701C195.073 30.327 195.081 30.3856 195.089 30.4443C195.091 30.459 195.082 30.4755 195.074 30.5036C195.05 30.5103 195.02 30.525 194.989 30.5268C194.617 30.55 192.513 30.5317 192.338 30.5048C192.33 30.4956 192.315 30.4853 192.308 30.4706C192.106 30.0471 191.743 29.8436 191.316 29.7324C191.016 29.6548 190.708 29.623 190.398 29.6462C190.175 29.6627 189.951 29.6963 189.73 29.7366C189.524 29.7745 189.331 29.8558 189.155 29.9744C189.043 30.0508 188.948 30.1449 188.885 30.2671C188.79 30.4523 188.813 30.649 188.946 30.8091C189.033 30.9149 189.142 30.9968 189.268 31.042C189.487 31.1214 189.708 31.2051 189.935 31.2528C190.399 31.3506 190.869 31.4251 191.336 31.5101C192.01 31.6323 192.678 31.7723 193.323 32.0112C193.621 32.1218 193.908 32.2563 194.177 32.4268C194.91 32.8894 195.296 33.5646 195.364 34.4275C195.425 35.192 195.265 35.9028 194.829 36.5395C194.453 37.0871 193.951 37.4806 193.365 37.7709C192.812 38.0447 192.226 38.1999 191.617 38.2745C190.721 38.3845 189.836 38.3276 188.967 38.0783C188.116 37.8339 187.367 37.411 186.772 36.7357C186.277 36.1735 185.977 35.5153 185.842 34.7777C185.836 34.7453 185.838 34.7111 185.836 34.6506L185.835 34.6518Z" fill="#F5EBE0"/>
<path d="M239.773 30.5048C239.561 30.5372 237.269 30.5384 237.036 30.5061C237.021 30.4841 237.001 30.4584 236.986 30.4291C236.837 30.1376 236.597 29.9499 236.303 29.8277C235.918 29.6676 235.512 29.6242 235.101 29.6462C234.878 29.6578 234.653 29.6908 234.434 29.7373C234.28 29.7697 234.132 29.8332 233.987 29.8962C233.856 29.953 233.745 30.0441 233.655 30.1583C233.461 30.4028 233.486 30.7022 233.732 30.8947C233.842 30.9809 233.972 31.0493 234.103 31.0988C234.282 31.1667 234.468 31.2217 234.655 31.2583C235.112 31.3494 235.573 31.4276 236.032 31.5095C236.565 31.6048 237.095 31.7161 237.615 31.8731C237.983 31.9843 238.34 32.1231 238.678 32.3094C238.891 32.4268 239.091 32.5631 239.271 32.7281C239.674 33.0978 239.922 33.5549 240.015 34.0976C240.196 35.1505 239.961 36.0873 239.25 36.8903C238.986 37.1886 238.675 37.4281 238.333 37.6261C237.784 37.9439 237.192 38.1346 236.569 38.2378C235.729 38.3766 234.892 38.3564 234.06 38.1786C233.196 37.994 232.413 37.6383 231.756 37.0297C231.127 36.4467 230.737 35.7268 230.56 34.8853C230.545 34.8138 230.545 34.7386 230.537 34.6592C230.583 34.6469 230.615 34.6323 230.646 34.6323C231.504 34.6311 232.361 34.6311 233.217 34.6311C233.248 34.6757 233.276 34.7081 233.295 34.7441C233.537 35.1988 233.921 35.4799 234.387 35.6577C234.855 35.8368 235.341 35.8899 235.838 35.8447C236.087 35.8221 236.337 35.7983 236.574 35.7097C236.729 35.651 236.886 35.5862 237.024 35.497C237.285 35.3289 237.404 35.0833 237.357 34.7631C237.33 34.5773 237.25 34.4233 237.095 34.3231C236.977 34.2467 236.85 34.1794 236.718 34.1287C236.319 33.9753 235.899 33.9014 235.48 33.8311C234.93 33.7382 234.377 33.6582 233.833 33.5286C233.288 33.3984 232.757 33.2298 232.261 32.9621C231.904 32.7696 231.584 32.5307 231.328 32.2111C230.92 31.6996 230.769 31.1056 230.807 30.4614C230.861 29.5399 231.279 28.8072 231.976 28.2278C232.401 27.8746 232.885 27.6302 233.411 27.4792C234.6 27.1376 235.796 27.1095 236.986 27.4694C237.855 27.7322 238.59 28.2064 239.141 28.9483C239.457 29.3724 239.661 29.8485 239.779 30.3643C239.784 30.3887 239.787 30.4144 239.787 30.4394C239.787 30.4553 239.781 30.4712 239.772 30.5054L239.773 30.5048Z" fill="#F5EBE0"/>
<path d="M168.329 32.956C168.326 34.1635 167.927 35.3815 167.073 36.4313C166.222 37.4782 165.129 38.1052 163.798 38.2965C161.619 38.6093 159.566 37.5411 158.503 35.6167C158.06 34.815 157.828 33.9527 157.797 33.0342C157.752 31.7368 158.075 30.5439 158.811 29.4787C159.589 28.3543 160.641 27.6185 161.972 27.3307C163.979 26.8968 165.998 27.6582 167.23 29.3528C167.976 30.3789 168.327 31.5363 168.329 32.956H168.329ZM159.545 32.8759C159.572 34.0431 160.005 35.0985 160.967 35.8838C161.92 36.6605 162.998 36.8616 164.164 36.4582C164.89 36.2071 165.458 35.7359 165.894 35.1022C167.025 33.4583 166.763 31.1214 165.292 29.7776C164.682 29.2202 163.964 28.908 163.139 28.8908C162.149 28.8701 161.317 29.2575 160.644 29.978C159.905 30.7676 159.562 31.7221 159.544 32.8753L159.545 32.8759Z" fill="#F5EBE0"/>
<path d="M169.833 27.508C169.859 27.4976 169.881 27.4811 169.904 27.4811C170.413 27.4799 170.921 27.4799 171.429 27.4811C171.452 27.4811 171.475 27.4976 171.498 27.5061C171.542 27.6051 171.523 27.7072 171.523 27.8068C171.524 29.4171 171.524 31.028 171.524 32.6382C171.524 33.0599 171.521 33.4816 171.524 33.9032C171.527 34.2424 171.568 34.5761 171.679 34.8981C171.969 35.7402 172.534 36.2927 173.386 36.5274C173.971 36.6881 174.56 36.6783 175.135 36.4772C175.904 36.209 176.407 35.6694 176.67 34.8951C176.788 34.548 176.825 34.1899 176.825 33.8244C176.823 32.0534 176.824 30.283 176.824 28.512C176.824 28.2419 176.823 27.9724 176.825 27.7023C176.825 27.6369 176.834 27.5721 176.84 27.5092C176.875 27.4957 176.898 27.4792 176.921 27.4792C177.437 27.478 177.954 27.478 178.471 27.4799C178.494 27.4799 178.516 27.4964 178.549 27.5098C178.554 27.574 178.562 27.64 178.562 27.7054C178.562 29.8131 178.57 31.9214 178.558 34.0291C178.553 34.9159 178.321 35.747 177.821 36.4864C177.188 37.4232 176.303 37.9849 175.214 38.222C174.367 38.4065 173.52 38.3772 172.697 38.0949C171.17 37.5724 170.245 36.4986 169.906 34.9073C169.834 34.5681 169.81 34.2241 169.81 33.877C169.813 31.8536 169.811 29.8296 169.812 27.8062C169.812 27.7066 169.796 27.6051 169.833 27.5067V27.508Z" fill="#F5EBE0"/>
<path d="M150.005 30.4462C150.024 32.0699 148.85 33.5824 147.084 33.8165C146.481 33.8965 145.927 33.7529 145.4 33.4693C144.964 33.2353 144.564 32.9481 144.186 32.6285C143.596 32.1304 143.058 31.581 142.587 30.9656C142.49 30.8391 142.406 30.7028 142.319 30.5702C142.246 30.4596 142.252 30.3484 142.323 30.2396C142.37 30.17 142.413 30.0966 142.464 30.0312C143.254 29.026 144.177 28.1722 145.285 27.5348C145.576 27.368 145.883 27.2391 146.209 27.1596C146.676 27.0466 147.142 27.0857 147.591 27.2262C148.8 27.6027 149.576 28.4161 149.912 29.6517C149.985 29.9206 150.015 30.1975 150.006 30.4468L150.005 30.4462Z" fill="#F5EBE0"/>
<path d="M140.979 21.3406C142.542 21.3522 143.878 22.4473 144.213 23.9904C144.351 24.629 144.295 25.2438 144.008 25.8359C143.779 26.3077 143.491 26.7398 143.164 27.1455C142.635 27.8007 142.046 28.3934 141.378 28.9043C141.266 28.9905 141.142 29.062 141.022 29.1378C140.936 29.1922 140.849 29.1897 140.764 29.1341C140.68 29.0791 140.591 29.0296 140.514 28.9667C139.523 28.1643 138.675 27.2342 138.051 26.1085C137.942 25.9111 137.857 25.6984 137.775 25.487C137.572 24.9645 137.578 24.4261 137.723 23.8969C138.079 22.5928 138.912 21.7647 140.211 21.4255C140.461 21.3602 140.719 21.3375 140.979 21.3406Z" fill="#F5EBE0"/>
<path d="M131.926 30.4853C131.923 28.9697 132.986 27.5 134.667 27.1816C135.331 27.0557 135.958 27.1682 136.55 27.4988C136.945 27.7194 137.317 27.973 137.667 28.2614C138.25 28.7418 138.78 29.2759 139.254 29.8668C139.348 29.9848 139.442 30.1039 139.523 30.231C139.738 30.5696 139.742 30.5494 139.507 30.8984C139.475 30.9473 139.439 30.9931 139.402 31.0389C138.724 31.8817 137.941 32.6077 137.042 33.2029C136.784 33.374 136.511 33.5164 136.228 33.6429C135.63 33.9105 135.015 33.9387 134.397 33.751C133.051 33.3434 132.246 32.4304 131.976 31.0383C131.941 30.858 131.941 30.6698 131.926 30.4859V30.4853Z" fill="#F5EBE0"/>
<path d="M140.985 39.6336C139.172 39.6208 137.703 38.1706 137.654 36.3379C137.644 35.9682 137.73 35.6192 137.872 35.2819C138.072 34.8052 138.35 34.375 138.664 33.9692C139.206 33.2689 139.822 32.6419 140.518 32.0986C140.63 32.0112 140.751 31.9361 140.868 31.856C140.984 31.7778 141.1 31.7711 141.216 31.8542C141.291 31.9073 141.372 31.9538 141.443 32.0118C142.418 32.8081 143.256 33.726 143.879 34.8327C144.036 35.112 144.161 35.4066 144.242 35.7182C144.374 36.223 144.337 36.7284 144.18 37.2148C143.766 38.5031 142.895 39.2926 141.581 39.5688C141.387 39.6098 141.184 39.6128 140.985 39.633V39.6336Z" fill="#F5EBE0"/>
<path d="M155.206 27.5232C155.608 27.5232 155.99 27.5232 156.373 27.5232C156.755 27.5232 157.136 27.5219 157.488 27.5244C157.524 27.5549 157.532 27.5592 157.536 27.5659C157.54 27.5727 157.543 27.5818 157.543 27.5898C157.546 28.0787 157.549 28.5669 157.551 29.0558C157.551 29.0882 157.543 29.1206 157.539 29.153C157.459 29.2129 157.373 29.1909 157.293 29.1915C156.693 29.1933 156.093 29.1927 155.493 29.1927C155.403 29.1927 155.311 29.1927 155.213 29.1927C155.2 29.2569 155.183 29.3039 155.18 29.3522C155.175 29.4359 155.178 29.5209 155.178 29.6052C155.178 32.3112 155.178 35.0166 155.178 37.7226C155.178 37.8314 155.189 37.9408 155.158 38.0551C154.977 38.1168 154.792 38.0783 154.612 38.0844C154.421 38.0911 154.229 38.0881 154.037 38.0856C153.856 38.0832 153.674 38.0978 153.48 38.0734C153.472 38.0135 153.463 37.9658 153.46 37.9176C153.457 37.8674 153.459 37.8167 153.459 37.766C153.459 34.1666 153.458 30.5671 153.46 26.9683C153.46 26.3841 153.536 25.8084 153.707 25.248C153.88 24.6833 154.15 24.1761 154.571 23.7587C155.124 23.2112 155.795 22.9221 156.56 22.8604C156.833 22.8384 157.109 22.8537 157.384 22.8573C157.447 22.8579 157.511 22.8781 157.577 22.8903C157.585 22.9362 157.596 22.9686 157.596 23.0003C157.596 23.4556 157.596 23.9109 157.594 24.3656C157.594 24.3882 157.579 24.4114 157.566 24.4493C157.502 24.4511 157.438 24.4548 157.374 24.4542C157.115 24.4511 156.857 24.4633 156.605 24.5263C156.059 24.6613 155.668 24.9828 155.446 25.5096C155.327 25.7913 155.258 26.0858 155.219 26.3871C155.176 26.722 155.171 27.0593 155.181 27.3967C155.182 27.4291 155.193 27.4614 155.206 27.525L155.206 27.5232Z" fill="#F5EBE0"/>
<path d="M182.148 38.0759H180.5C180.488 38.0239 180.473 37.9781 180.468 37.9304C180.463 37.8803 180.467 37.8296 180.467 37.7789C180.467 35.7555 180.467 33.7321 180.467 31.7087C180.467 31.0273 180.576 30.3649 180.836 29.7342C181.296 28.6189 182.098 27.8691 183.226 27.4798C183.916 27.2421 184.627 27.1944 185.349 27.2635C185.381 27.2665 185.412 27.2806 185.438 27.2885C185.479 27.4774 185.491 28.438 185.458 28.8762C185.407 28.8817 185.352 28.8951 185.299 28.8927C184.914 28.875 184.532 28.8927 184.156 28.9789C183.665 29.0907 183.231 29.3076 182.879 29.6804C182.565 30.0135 182.381 30.4144 182.275 30.8556C182.203 31.1605 182.179 31.4716 182.179 31.7839C182.179 33.7736 182.179 35.7634 182.179 37.7526C182.179 37.8516 182.193 37.9536 182.148 38.0752V38.0759Z" fill="#F5EBE0"/>
</svg>
