<svg width="116" height="66" viewBox="0 0 116 66" fill="none" xmlns="http://www.w3.org/2000/svg">
<path d="M4.94372 26.441C4.9888 26.4279 5.03267 26.4078 5.07896 26.4024C5.8417 26.3201 6.60445 26.24 7.3672 26.1594C7.8222 26.1114 8.2772 26.0634 8.73281 26.016C8.7887 26.0101 8.8446 26.0065 8.91914 26V27.2239C8.97323 27.1842 9.00449 27.164 9.03274 27.1397C9.70773 26.5583 10.4939 26.2128 11.3775 26.0836C12.4155 25.9318 13.4397 26.0006 14.4399 26.3165C15.1888 26.553 15.8355 26.956 16.3699 27.5286C16.3933 27.5534 16.4174 27.5777 16.448 27.6098C16.5526 27.5149 16.6524 27.4213 16.757 27.3318C17.3292 26.8398 17.9928 26.5162 18.7188 26.3141C19.7977 26.0148 20.8995 25.9425 22.0108 26.0575C23.1937 26.1802 24.2576 26.5814 25.0949 27.448C25.9791 28.3631 26.5176 29.4435 26.6414 30.7101C26.6673 30.9745 26.6811 31.2412 26.6811 31.5073C26.6841 34.2781 26.6829 37.049 26.6835 39.8204C26.6835 39.8803 26.6895 39.9401 26.6931 39.9994H22.6888C22.6906 39.9609 22.6943 39.9224 22.6943 39.8838C22.6943 37.3412 22.6979 34.7991 22.6912 32.2565C22.6906 31.9536 22.6582 31.6472 22.6029 31.3491C22.4905 30.7463 22.2368 30.2117 21.7265 29.8294C21.325 29.5289 20.8538 29.4181 20.3639 29.3511C19.936 29.293 19.5405 29.3677 19.1678 29.5745C18.6335 29.8709 18.2722 30.329 17.9639 30.8352C17.9465 30.8636 17.9369 30.8992 17.9332 30.933C17.9116 31.1333 17.8774 31.3342 17.8761 31.5352C17.8701 32.8877 17.8701 34.2408 17.8701 35.5933C17.8701 37.062 17.8719 38.5307 17.8725 39.9994H13.8941C13.8929 39.965 13.8911 39.9307 13.8911 39.8963C13.8911 37.4224 13.8929 34.9479 13.8893 32.474C13.8893 32.1782 13.8737 31.8813 13.8394 31.5879C13.7799 31.0865 13.6188 30.6165 13.3063 30.2081C12.9198 29.7031 12.3722 29.4892 11.7622 29.3789C11.1773 29.2729 10.6364 29.3535 10.1369 29.6794C9.61817 30.0179 9.25633 30.492 8.94678 31.0112C8.92454 31.0486 8.92154 31.1013 8.92154 31.1469C8.92094 34.098 8.92154 37.049 8.92154 40H4.94312C4.94312 35.4807 4.94312 30.9608 4.94312 26.4416L4.94372 26.441Z" fill="#F5EBE0"/>
<path d="M36.2013 40C35.9826 39.9757 35.7633 39.9567 35.5459 39.9259C33.2307 39.5967 31.5118 38.414 30.4101 36.3678C30.0606 35.7184 29.8581 35.0156 29.7553 34.2866C29.5994 33.1823 29.6233 32.0833 29.8999 30.9979C30.2942 29.4493 31.1581 28.2115 32.454 27.2708C33.398 26.5858 34.4651 26.2086 35.6223 26.0692C36.5986 25.9512 37.5683 25.9791 38.5296 26.192C40.123 26.5449 41.3687 27.4055 42.2888 28.7364C42.9006 29.6213 43.2483 30.6058 43.4066 31.6622C43.5243 32.4439 43.4956 33.2309 43.4998 34.0174C43.5004 34.1413 43.4998 34.2647 43.4998 34.4029H33.7631C33.8138 34.8578 33.956 35.2623 34.2201 35.6187C34.627 36.1686 35.1832 36.5031 35.841 36.6691C36.6291 36.8684 37.4165 36.7866 38.1962 36.6069C38.9179 36.4408 39.5769 36.1318 40.1809 35.7077C40.2018 35.6929 40.2246 35.6816 40.2383 35.6733C40.9923 36.4218 41.7409 37.1656 42.4979 37.917C42.2894 38.207 42.0307 38.4645 41.7409 38.691C41.1321 39.1673 40.4361 39.465 39.6922 39.6625C38.9818 39.8511 38.2577 39.9478 37.5235 39.9786C37.481 39.9804 37.4398 39.9929 37.3974 40H36.2007H36.2013ZM39.5351 31.5928C39.5387 31.553 39.544 31.5275 39.5429 31.5026C39.5196 30.8846 39.2973 30.3579 38.8163 29.9499C37.7774 29.0679 36.083 28.9772 34.9156 29.7346C34.287 30.1426 33.9417 30.7073 33.9029 31.4534C33.9005 31.4985 33.9029 31.5435 33.9029 31.5928H39.5351Z" fill="#F5EBE0"/>
<path d="M62.419 40C62.3486 39.9899 62.2782 39.9769 62.2073 39.9703C60.6701 39.8333 59.3253 39.2343 58.2211 38.0652C57.4201 37.2176 56.874 36.2117 56.5974 35.0414C56.2964 33.7692 56.2659 32.4845 56.5431 31.211C57.0387 28.9304 58.3197 27.3426 60.3552 26.4713C61.2915 26.0704 62.2782 25.9654 63.2804 26.0093C64.1069 26.0455 64.908 26.2092 65.6696 26.5644C66.7506 27.0692 67.5809 27.8818 68.2068 28.9399C68.7561 29.8688 69.071 30.8901 69.1469 31.9809C69.2012 32.7638 69.1879 33.5521 69.2046 34.3374C69.2046 34.3534 69.1996 34.37 69.1946 34.3997H60.1706C60.2 34.6939 60.2643 34.9614 60.3769 35.2135C60.746 36.0415 61.3913 36.4899 62.2012 36.6933C62.7743 36.8374 63.3525 36.7876 63.9268 36.685C64.7289 36.5415 65.459 36.2093 66.1225 35.7081C66.1419 35.6933 66.163 35.6808 66.1724 35.6737C66.8719 36.4222 67.5665 37.166 68.2716 37.9211C68.0904 38.1963 67.8542 38.4507 67.5898 38.6761C67.0233 39.1583 66.3747 39.4597 65.6812 39.659C65.0227 39.8482 64.3509 39.946 63.6696 39.9769C63.6308 39.9786 63.592 39.9917 63.5532 39.9988H62.4185L62.419 40ZM65.5338 31.5906C65.5305 30.9483 65.342 30.4014 64.8902 29.9785C64.388 29.5081 63.7932 29.2715 63.1319 29.23C62.2993 29.1772 61.5454 29.4038 60.9151 30.007C60.4789 30.4245 60.3009 30.9649 60.3015 31.5906H65.5338Z" fill="#F5EBE0"/>
<path d="M52.4688 40C52.4181 39.9907 52.3674 39.9771 52.3161 39.9728C50.813 39.8489 49.5287 39.2873 48.5823 38.0537C48.0135 37.3119 47.7294 36.4592 47.6561 35.531C47.6359 35.2765 47.6347 35.0201 47.6347 34.7644C47.6329 32.8119 47.6341 30.8601 47.6341 28.9076C47.6341 28.8494 47.6341 28.7912 47.6341 28.7126H45.4773V25.4071H47.628V21.4397C48.9905 21.2923 50.3359 21.1468 51.6959 21V25.3953H53.8484V28.7033H51.6984C51.6984 28.7627 51.6984 28.8098 51.6984 28.8569C51.6984 30.7505 51.6947 32.6447 51.7032 34.5383C51.7045 34.8139 51.7472 35.0926 51.8028 35.3632C51.9623 36.131 52.5928 36.5026 53.2325 36.5527C53.6199 36.5831 53.9877 36.4753 54.3616 36.4053C54.405 36.3973 54.4484 36.3892 54.5126 36.3775C54.7961 37.354 55.0789 38.3281 55.3637 39.3089C55.0068 39.5529 54.6262 39.73 54.2162 39.834C53.9682 39.8972 53.7116 39.9275 53.4592 39.974C53.4299 39.9796 53.4012 39.9901 53.3725 39.9988H52.4682L52.4688 40Z" fill="#F5EBE0"/>
<path d="M79.0284 40C78.852 39.9687 78.6705 39.9516 78.4994 39.9032C77.9626 39.7505 77.5987 39.4097 77.3816 38.939C77.0678 38.2599 77.0106 37.566 77.3112 36.8673C77.4343 36.5817 77.652 36.4278 77.8948 36.4597C78.0126 36.475 78.1244 36.5375 78.2376 36.5829C78.5961 36.7269 78.954 36.8722 79.3106 37.0187C79.5633 37.1229 79.8211 37.0959 80.083 37.0567C81.9593 36.7772 83.4383 35.4539 83.8074 33.7009C83.8719 33.3944 83.8679 33.0751 83.8936 32.7613C83.8982 32.7043 83.8942 32.6473 83.8942 32.6093C84.1403 32.5553 84.3864 32.5308 84.6074 32.4487C85.3884 32.1594 85.9936 31.6905 86.2838 30.9286C86.3989 30.6264 86.3825 30.3181 86.3068 30.0098C86.318 30.0067 86.3292 30.0031 86.3397 30C86.443 30.2599 86.5581 30.5167 86.6463 30.7809C87.0766 32.0674 87.118 33.3687 86.7496 34.6699C86.2456 36.4493 85.1594 37.8492 83.5008 38.8563C82.5817 39.414 81.5784 39.7757 80.4929 39.9326C80.3205 39.9577 80.1468 39.9773 79.9738 39.9994H79.0284V40Z" fill="#F5EBE0"/>
<path d="M110.544 26.9804C109.806 27.8538 109.078 28.7142 108.358 29.567C108.259 29.4706 108.165 29.3799 108.072 29.2861C107.426 28.6316 106.647 28.3519 105.758 28.3907C105.299 28.4107 104.843 28.4526 104.419 28.6629C104.207 28.768 104.036 28.9225 103.912 29.1328C103.755 29.3974 103.782 29.6658 103.993 29.888C104.248 30.157 104.576 30.2847 104.905 30.4111C105.515 30.6451 106.16 30.6983 106.792 30.8178C107.721 30.993 108.588 31.3352 109.357 31.9265C109.897 32.342 110.245 32.9007 110.445 33.5589C110.73 34.4981 110.802 35.4629 110.648 36.4346C110.48 37.4839 109.932 38.2836 109.1 38.8774C108.22 39.5056 107.247 39.8647 106.189 39.9579C104.999 40.0631 103.821 39.9805 102.677 39.6038C101.612 39.2534 100.685 38.6521 99.8845 37.835C99.8755 37.8256 99.869 37.8131 99.8523 37.7887C100.574 36.934 101.297 36.078 102.023 35.2183C102.164 35.3578 102.292 35.4973 102.433 35.6219C102.881 36.0186 103.406 36.2569 103.966 36.4146C104.767 36.6392 105.571 36.6561 106.376 36.4459C106.768 36.3439 107.1 36.15 107.285 35.7483C107.46 35.3691 107.354 34.9242 107.004 34.7171C106.778 34.5832 106.528 34.4693 106.274 34.4149C105.772 34.306 105.261 34.2422 104.753 34.1627C103.693 33.9969 102.698 33.6397 101.788 33.0421C101.209 32.6617 100.848 32.0992 100.654 31.4222C100.375 30.4473 100.341 29.4562 100.561 28.4664C100.783 27.4722 101.33 26.7082 102.132 26.1363C102.929 25.5675 103.788 25.1539 104.753 25.0401C105.154 24.9925 105.564 24.9963 105.969 25.0063C106.597 25.0213 107.218 25.097 107.828 25.2628C108.644 25.4849 109.347 25.9261 109.994 26.4754C110.182 26.6343 110.357 26.8089 110.544 26.981V26.9804Z" fill="#F5EBE0"/>
<path d="M92.9014 40H88.9773V25.4491C90.2816 25.2998 91.5817 25.1505 92.8961 25V26.6394C92.9424 26.6032 92.9697 26.5866 92.9917 26.5631C94.0727 25.43 95.3775 24.9397 96.8796 25.0241C97.2051 25.0426 97.5294 25.0826 97.875 25.115C97.6666 26.513 97.4622 27.8811 97.2615 29.2276C97.0079 29.0847 96.7721 28.9215 96.5155 28.8129C96.0796 28.6287 95.6187 28.5296 95.1495 28.5887C94.5312 28.6662 94.0572 29.032 93.6575 29.5217C93.3611 29.885 93.1319 30.2954 92.9341 30.7266C92.9056 30.7889 92.9026 30.8689 92.9026 30.94C92.9014 33.8955 92.9014 36.8509 92.902 39.8063V40H92.9014Z" fill="#F5EBE0"/>
<path d="M77.439 28.7214C76.9039 27.9388 76.1885 27.5509 75.2931 27.5471C74.8855 27.5452 74.534 27.7113 74.2351 28.0066C74.2145 28.0268 74.1944 28.0478 74.1743 28.0687C74.1654 28.0604 74.1566 28.0516 74.1477 28.0433C74.358 27.7803 74.5559 27.5047 74.7798 27.2556C75.8442 26.0737 77.1354 25.3336 78.6506 25.0921C80.9549 24.7252 82.9402 25.4609 84.6124 27.1815C85.1334 27.7176 85.5392 28.3481 85.844 29.0497C86.0744 29.5795 86.0738 30.1149 85.7991 30.6232C85.3874 31.3855 84.7743 31.8526 83.9556 31.9933C83.9012 32.0028 83.8439 32.0009 83.789 31.9958C83.4671 31.9673 83.32 31.7886 83.3034 31.4426C83.2875 31.113 83.2515 30.7848 83.2284 30.4559C83.2007 30.0554 83.0146 29.7429 82.7736 29.4508C81.4504 27.8443 79.2283 27.5053 77.5371 28.6587C77.5017 28.6827 77.4644 28.7049 77.4385 28.7208L77.439 28.7214Z" fill="#F5EBE0"/>
<path d="M77.0864 36.6574C76.6561 37.4585 76.8172 38.8343 77.3977 39.4982C77.5943 39.7233 77.8308 39.873 78.1022 39.9629L78.0937 40C77.8491 39.9535 77.6012 39.9208 77.3606 39.8573C75.2437 39.2983 73.7062 37.9376 72.7749 35.7784C72.2041 34.4549 72.0573 33.0502 72.2516 31.6027C72.3853 30.6061 72.7012 29.6862 73.2052 28.8418C73.6165 28.152 74.1947 27.903 74.9175 28.0332C75.5037 28.1388 76.0111 28.4218 76.407 28.9166C76.487 29.0166 76.5499 29.1417 76.595 29.2662C76.6847 29.5133 76.6144 29.7007 76.4167 29.856C76.0871 30.1144 75.7625 30.3817 75.4369 30.647C75.3134 30.7476 75.2409 30.8872 75.182 31.0413C74.4416 32.9886 75.0238 35.1603 76.6081 36.3424C76.7584 36.4544 76.9201 36.5487 77.0858 36.6568L77.0864 36.6574Z" fill="#F5EBE0"/>
</svg>
