<svg width="116" height="66" viewBox="0 0 116 66" fill="none" xmlns="http://www.w3.org/2000/svg">
<path d="M20.5202 41.2255C20.499 41.2177 20.4777 41.204 20.4565 41.2027C20.0935 41.1865 19.7337 41.1371 19.3816 41.0481C18.6851 40.8726 18.0432 40.5756 17.4643 40.1447C16.8005 39.6507 16.2615 39.0444 15.8682 38.3106C15.5964 37.8024 15.4178 37.2591 15.3099 36.6923C15.2186 36.2166 15.1852 35.7356 15.2231 35.2541C15.3189 34.0231 15.7359 32.9235 16.5512 31.9889C17.116 31.3409 17.7862 30.8418 18.5759 30.511C19.0102 30.329 19.4619 30.2062 19.9284 30.1366C20.3325 30.0762 20.7393 30.0703 21.144 30.0996C21.8059 30.147 22.4387 30.3225 23.0421 30.6026C23.6589 30.8886 24.1954 31.2876 24.669 31.7764C24.8707 31.9843 25.0763 32.1884 25.28 32.3944C25.3076 32.4224 25.3327 32.4516 25.368 32.49C23.3344 34.5444 21.306 36.5935 19.2691 38.6518C19.4574 38.7532 19.6405 38.826 19.8301 38.8773C20.7804 39.1367 21.6729 39.0002 22.5036 38.4672C22.7144 38.3321 22.9007 38.1663 23.0781 37.9902C23.2978 37.7718 23.5137 37.5502 23.7322 37.3305C23.7598 37.3032 23.7887 37.2773 23.8073 37.2597C24.3226 37.7803 24.8322 38.295 25.3468 38.8149C25.3282 38.8351 25.3025 38.865 25.2755 38.8923C25.0191 39.1523 24.7641 39.4142 24.5045 39.6702C24.1434 40.0257 23.7379 40.3202 23.292 40.558C22.7973 40.8225 22.2768 41.0143 21.7243 41.1098C21.4801 41.152 21.2321 41.1702 20.986 41.2008C20.9564 41.2047 20.9282 41.2157 20.8992 41.2235H20.5202V41.2255ZM22.1316 32.6427C21.1627 32.0916 19.4715 32.0519 18.2732 33.331C17.1893 34.4885 17.1867 36.123 17.7232 37.0725C19.1933 35.5953 20.6622 34.1193 22.1316 32.6421V32.6427Z" fill="#F5EBE0"/>
<path d="M31.3989 41.2253C31.3777 41.2175 31.3565 41.2038 31.3353 41.2025C30.9485 41.1843 30.5662 41.1291 30.1923 41.0284C29.4315 40.823 28.7427 40.472 28.1329 39.9671C27.4853 39.4302 26.9854 38.7758 26.6269 38.0115C26.3686 37.4603 26.1996 36.8826 26.136 36.2742C26.1064 35.9883 26.0878 35.7023 26.1 35.4157C26.1334 34.6514 26.2985 33.9202 26.6333 33.2294C26.8954 32.6874 27.2276 32.196 27.6433 31.7645C28.2884 31.0944 29.055 30.6206 29.9359 30.336C30.2861 30.2229 30.644 30.1494 31.0102 30.1124C31.3572 30.0773 31.7048 30.076 32.0505 30.1C32.6885 30.1442 33.3002 30.3035 33.8817 30.5777C34.3822 30.8136 34.8397 31.1133 35.256 31.4798C35.7611 31.925 36.1691 32.4475 36.4846 33.0442C36.7422 33.5322 36.924 34.0483 37.0211 34.5942C37.1007 35.0394 37.1239 35.4872 37.1027 35.9382C37.0763 36.4991 36.9671 37.0431 36.7711 37.5682C36.5244 38.2318 36.1678 38.8284 35.6981 39.3561C35.1487 39.9736 34.4966 40.4447 33.7435 40.7749C33.2218 41.003 32.6763 41.1375 32.1102 41.185C32.0241 41.1921 31.9374 41.1967 31.8513 41.2045C31.8339 41.2058 31.8179 41.2188 31.8012 41.2266H31.3983L31.3989 41.2253ZM31.591 39.0032C33.4402 38.9896 34.8975 37.5513 34.9277 35.6906C34.9585 33.7766 33.4653 32.3572 31.7324 32.2903C29.774 32.2149 28.2974 33.7734 28.2595 35.5418C28.2184 37.4597 29.6956 38.9876 31.5904 39.0026L31.591 39.0032Z" fill="#F5EBE0"/>
<path d="M72.7803 41.2253C72.7604 41.2143 72.7417 41.1961 72.7205 41.1935C72.6389 41.1831 72.5567 41.1746 72.4744 41.1694C72.1031 41.148 71.7413 41.0732 71.386 40.9641C70.5963 40.7216 69.8915 40.3232 69.2836 39.7585C68.6822 39.2002 68.2247 38.5366 67.9067 37.7762C67.7216 37.333 67.5957 36.8735 67.5315 36.3978C67.4865 36.0624 67.4646 35.7231 67.4826 35.3845C67.5225 34.6456 67.6812 33.9365 68.0005 33.2652C68.325 32.5834 68.7574 31.9861 69.319 31.4877C70.0701 30.8208 70.9375 30.3873 71.9219 30.1937C72.3703 30.1053 72.8233 30.0819 73.277 30.104C74.0146 30.1397 74.7194 30.3191 75.3806 30.6558C76.5802 31.2667 77.4695 32.1811 78.0201 33.4237C78.2109 33.8553 78.3349 34.307 78.4063 34.7736C78.4699 35.1889 78.4808 35.6081 78.4525 36.026C78.4075 36.6909 78.2482 37.3284 77.97 37.9361C77.6667 38.6003 77.2549 39.1846 76.728 39.6844C76.0026 40.3726 75.1544 40.838 74.1829 41.0635C73.942 41.1194 73.6972 41.1629 73.4479 41.1701C73.3656 41.1727 73.2834 41.1837 73.2018 41.1941C73.1857 41.1961 73.1722 41.2143 73.1574 41.2253H72.7784H72.7803ZM69.6171 35.6315C69.6055 37.4558 71.023 39.0156 72.9595 39.0163C74.864 39.0163 76.3129 37.5182 76.3116 35.6257C76.3103 33.6915 74.7606 32.3286 73.0668 32.2779C71.1052 32.2188 69.5869 33.8332 69.6171 35.6315Z" fill="#F5EBE0"/>
<path d="M113 27.9118C112.957 27.9281 112.91 27.9391 112.871 27.9612C111.88 28.5078 110.891 29.0557 109.902 29.6036C109.234 29.9734 108.567 30.3445 107.899 30.7149C107.879 30.726 107.857 30.7344 107.839 30.7435C107.763 30.6733 105.047 25.6514 105.004 25.5247C105.055 25.4935 105.107 25.4584 105.162 25.4285C105.985 24.9723 106.809 24.5167 107.633 24.0611C108.446 23.6107 109.26 23.161 110.072 22.7106C110.157 22.6638 110.166 22.6657 110.216 22.7593C110.41 23.1161 110.602 23.4729 110.795 23.8291C111.177 24.5316 111.559 25.2329 111.94 25.9354C112.191 26.3969 112.44 26.859 112.689 27.3204C112.779 27.4881 112.87 27.6564 112.962 27.8234C112.97 27.839 112.987 27.8507 113 27.8637V27.9118H113Z" fill="#F5EBE0"/>
<path d="M59.296 30.0441C60.4018 30.0441 61.5082 30.0441 62.614 30.0441C62.7357 30.0441 62.7965 30.105 62.7965 30.2268C62.7965 30.837 62.7965 31.448 62.7965 32.0582C62.7965 32.0862 62.7978 32.1141 62.7965 32.1421C62.792 32.222 62.7843 32.2305 62.7059 32.2344C62.6744 32.2363 62.6429 32.2344 62.6108 32.2344C60.45 32.2344 58.2898 32.2389 56.129 32.2311C55.6233 32.2292 55.1407 32.6536 55.0624 33.1553C54.9833 33.6609 55.2307 34.1445 55.6342 34.3706C55.8038 34.4655 55.9863 34.5065 56.1791 34.5065C57.6485 34.5065 59.118 34.5019 60.5875 34.5078C61.5969 34.5117 62.4354 34.9133 63.1023 35.6711C63.4943 36.1157 63.7275 36.6453 63.829 37.2309C63.8612 37.4142 63.8811 37.6027 63.8791 37.7892C63.8689 38.7108 63.5592 39.5102 62.9109 40.1685C62.4347 40.6521 61.8648 40.9575 61.2043 41.0882C60.9993 41.1285 60.7918 41.146 60.5817 41.146C58.4292 41.1447 56.2761 41.1453 54.1236 41.1453C54.1076 41.1453 54.0921 41.1453 54.0761 41.1453C53.9816 41.1421 53.9739 41.1362 53.9733 41.0427C53.9713 40.8951 53.9733 40.7476 53.9733 40.5994C53.9733 40.1087 53.9733 39.6174 53.9733 39.1267C53.9733 39.0988 53.9746 39.0708 53.9733 39.0429C53.9713 38.9896 53.9938 38.9597 54.0497 38.961C54.0851 38.9616 54.121 38.961 54.1564 38.961C56.305 38.961 58.4543 38.9577 60.6029 38.9636C61.0745 38.9649 61.5448 38.6464 61.6778 38.1512C61.8513 37.5058 61.5069 36.891 60.9107 36.7305C60.8053 36.7019 60.6928 36.6908 60.5843 36.6908C59.091 36.6882 57.5978 36.6973 56.1052 36.6856C55.3123 36.6791 54.6062 36.4055 54.0112 35.87C53.4278 35.3449 53.0564 34.6891 52.9394 33.9092C52.7859 32.8875 53.0178 31.9588 53.6983 31.1692C54.2451 30.5348 54.9409 30.1735 55.7666 30.0727C55.9381 30.0519 56.1129 30.0454 56.2864 30.0454C57.2894 30.0428 58.293 30.0441 59.296 30.0441Z" fill="#F5EBE0"/>
<path d="M14.4515 41.1786H12.2765C12.2752 41.1253 12.2733 41.0753 12.2733 41.0246C12.2733 39.225 12.2772 37.4254 12.2714 35.6257C12.2682 34.6515 11.9122 33.8216 11.208 33.1567C10.683 32.6608 10.054 32.3742 9.33823 32.2891C8.75032 32.2195 8.1804 32.2891 7.63746 32.5308C6.74177 32.9299 6.13008 33.6006 5.79982 34.5293C5.6816 34.8608 5.62698 35.2065 5.62698 35.5607C5.62698 37.3766 5.62698 39.1918 5.62698 41.0077V41.1578C5.53317 41.189 3.59852 41.1975 3.44495 41.1682C3.44303 41.1286 3.43853 41.0857 3.43853 41.0434C3.43853 39.1678 3.43146 37.2921 3.44238 35.4171C3.4456 34.8211 3.56254 34.2382 3.77264 33.6786C4.02452 33.0085 4.38497 32.4054 4.86302 31.8738C5.47792 31.1901 6.21747 30.6987 7.07396 30.3816C7.49032 30.2275 7.91889 30.1314 8.36095 30.0878C8.71562 30.0527 9.07159 30.0501 9.42498 30.0774C10.0624 30.1268 10.6728 30.2893 11.2536 30.5681C11.785 30.8235 12.2675 31.1485 12.7012 31.5501C13.4022 32.2007 13.8976 32.9845 14.1958 33.8957C14.3223 34.2824 14.4046 34.6795 14.429 35.087C14.4399 35.2735 14.4515 35.4607 14.4521 35.6478C14.4541 37.4358 14.4534 39.223 14.4534 41.0109C14.4534 41.0623 14.4534 41.1136 14.4534 41.1793L14.4515 41.1786Z" fill="#F5EBE0"/>
<path d="M79.2333 38.1362C79.2333 37.266 79.2314 36.3964 79.2333 35.5262C79.2371 34.3693 79.586 33.3249 80.2465 32.3845C80.7831 31.6202 81.4744 31.0392 82.3059 30.6278C82.8379 30.3645 83.3975 30.1897 83.9874 30.1189C84.8381 30.0162 85.674 30.0779 86.4874 30.3613C87.2051 30.6115 87.8451 30.9969 88.4112 31.509C88.8899 31.9419 89.2779 32.4443 89.5812 33.0162C89.8684 33.5589 90.0612 34.1321 90.1486 34.7417C90.1891 35.0257 90.2141 35.3104 90.2141 35.5977C90.2141 37.3732 90.2141 39.1494 90.2141 40.925C90.2141 40.953 90.2141 40.9809 90.2141 41.0088C90.2141 41.1141 90.1625 41.167 90.0593 41.1674C89.4431 41.1674 88.8269 41.1674 88.2107 41.1674C88.1792 41.1674 88.1477 41.1674 88.1163 41.1661C88.079 41.1642 88.0584 41.1434 88.0565 41.1057C88.0552 41.0699 88.0552 41.0342 88.0552 40.9978C88.0552 39.1819 88.0571 37.3667 88.0546 35.5509C88.0533 34.771 87.7905 34.0834 87.3054 33.4822C86.8048 32.8622 86.1578 32.4807 85.3868 32.3156C85.0218 32.2376 84.6517 32.2389 84.281 32.2798C83.9 32.3221 83.5414 32.4371 83.2028 32.6145C82.4106 33.0311 81.8644 33.6661 81.565 34.5162C81.4667 34.795 81.4044 35.0823 81.398 35.3799C81.3922 35.6347 81.38 35.8895 81.38 36.1442C81.378 37.7567 81.3793 39.3685 81.3793 40.9809C81.3793 41.1863 81.387 41.1668 81.1917 41.1674C80.5954 41.1674 79.9992 41.1674 79.4023 41.1674C79.3708 41.1674 79.3393 41.1668 79.3072 41.1668C79.2577 41.1668 79.2359 41.1401 79.2359 41.092C79.2359 41.0563 79.2352 41.0199 79.2352 40.9842C79.2352 40.0346 79.2352 39.0844 79.2352 38.1349L79.2333 38.1362Z" fill="#F5EBE0"/>
<path d="M43.6041 41.0907C43.4916 40.8723 43.385 40.6683 43.2802 40.4635C42.9018 39.7233 42.5233 38.9824 42.1449 38.2421C41.9239 37.8099 41.7015 37.3784 41.4805 36.9462C41.1252 36.2521 40.7699 35.558 40.4139 34.8639C40.1922 34.4317 39.9706 34.0001 39.7495 33.5679C39.3974 32.881 39.046 32.194 38.6932 31.5071C38.4478 31.0294 38.201 30.5523 37.955 30.0747C37.9466 30.0584 37.9434 30.0389 37.9331 30.0051C37.9807 30.0019 38.0186 29.9973 38.0558 29.9973C38.7748 29.9973 39.4932 29.9986 40.2122 29.9954C40.3028 29.9954 40.3548 30.022 40.3972 30.1058C40.5733 30.4581 40.759 30.8052 40.9376 31.1561C41.3893 32.0419 41.8378 32.9297 42.2901 33.8149C42.5471 34.3179 42.8093 34.8177 43.0695 35.3195C43.2288 35.6269 43.3875 35.9343 43.5469 36.241C43.5623 36.2709 43.5816 36.2995 43.6118 36.3483C43.6632 36.2599 43.7069 36.1916 43.7441 36.1195C43.9369 35.7445 44.1271 35.3682 44.3186 34.9926C44.6854 34.2731 45.0536 33.5549 45.4205 32.8355C45.5721 32.5378 45.7231 32.2395 45.8748 31.9419C46.153 31.3959 46.4306 30.85 46.7094 30.3047C46.7493 30.2267 46.7955 30.152 46.8341 30.074C46.8598 30.0214 46.8958 29.9967 46.9542 29.9967C47.7285 29.998 48.5021 29.9986 49.2763 29.9993C49.2834 29.9993 49.2911 30.0045 49.2982 30.0077C49.2795 30.0987 43.7262 40.9133 43.6041 41.0907Z" fill="#F5EBE0"/>
<path d="M94.8398 40.7898C93.8875 39.0337 92.9411 37.2881 91.9895 35.534C93.7243 34.5734 95.4514 33.6173 97.1914 32.6542C98.143 34.4083 99.0894 36.154 100.042 37.91C98.3081 38.87 96.581 39.826 94.8404 40.7898H94.8398Z" fill="#F5EBE0"/>
<path d="M103.393 27.3283C102.601 29.1637 101.813 30.9873 101.022 32.8208C99.2084 32.022 97.4042 31.2265 95.5852 30.4252C96.3762 28.5931 97.1633 26.7707 97.9568 24.9327C99.7687 25.7315 101.572 26.5263 103.393 27.3283Z" fill="#F5EBE0"/>
<path d="M106.531 38.9963C104.718 38.1969 102.926 37.4072 101.122 36.6124C101.909 34.7907 102.691 32.9787 103.472 31.1687C103.571 31.1797 108.782 33.4694 108.884 33.5467C108.103 35.3581 107.319 37.1713 106.532 38.9969L106.531 38.9963Z" fill="#F5EBE0"/>
<path d="M66.7496 35.6062C66.7496 37.3974 66.7496 39.1885 66.7496 40.9797C66.7496 41.0898 66.6964 41.145 66.5902 41.1454C65.9824 41.1454 65.3739 41.1454 64.7661 41.1454C64.7384 41.1454 64.7108 41.1454 64.6832 41.1448C64.6408 41.1448 64.6163 41.124 64.6151 41.0798C64.6138 41.0518 64.6144 41.0239 64.6144 40.996C64.6144 37.398 64.6144 33.7994 64.6144 30.2015C64.6144 30.1898 64.6144 30.1775 64.6144 30.1658C64.6163 30.0559 64.6228 30.0462 64.7269 30.0455C65.3623 30.0442 65.9984 30.0442 66.6339 30.0455C66.7412 30.0455 66.7476 30.0546 66.7502 30.1619C66.7508 30.1937 66.7502 30.2256 66.7502 30.2574V35.6069L66.7496 35.6062Z" fill="#F5EBE0"/>
<path d="M50.0573 35.5939C50.0573 33.8066 50.0573 32.0194 50.0573 30.2327C50.0573 30.0423 50.0432 30.0449 50.2469 30.0449C50.8271 30.0449 51.4079 30.0449 51.9881 30.0449C52.0119 30.0449 52.0357 30.0449 52.0595 30.0449C52.1674 30.0482 52.1751 30.0553 52.1777 30.16C52.1783 30.1918 52.1777 30.2236 52.1777 30.2555C52.1777 33.8177 52.1777 37.3799 52.1777 40.942C52.1777 41.165 52.1944 41.1442 51.9824 41.1442C51.3983 41.1442 50.8136 41.1442 50.2295 41.1442C50.1981 41.1442 50.1666 41.1429 50.1351 41.1442C50.0792 41.1455 50.0573 41.1156 50.058 41.0623C50.058 41.0226 50.058 40.9823 50.058 40.9427C50.058 39.1593 50.058 37.3766 50.058 35.5932L50.0573 35.5939Z" fill="#F5EBE0"/>
</svg>
