<svg width="116" height="66" viewBox="0 0 116 66" fill="none" xmlns="http://www.w3.org/2000/svg">
<path d="M1 24H9.19C10.5073 24 11.582 24.1907 12.414 24.572C13.246 24.9533 13.8873 25.43 14.338 26.002C14.7887 26.574 15.092 27.198 15.248 27.874C15.4213 28.55 15.508 29.174 15.508 29.746C15.508 30.318 15.4213 30.942 15.248 31.618C15.092 32.2767 14.7887 32.892 14.338 33.464C13.8873 34.036 13.246 34.5127 12.414 34.894C11.582 35.258 10.5073 35.44 9.19 35.44H4.25V42.564H1V24ZM4.25 32.788H9.008C9.372 32.788 9.74467 32.736 10.126 32.632C10.5073 32.528 10.854 32.3633 11.166 32.138C11.4953 31.8953 11.7553 31.5833 11.946 31.202C12.154 30.8033 12.258 30.3093 12.258 29.72C12.258 29.1133 12.1713 28.6107 11.998 28.212C11.8247 27.8133 11.5907 27.5013 11.296 27.276C11.0013 27.0333 10.6633 26.8687 10.282 26.782C9.90067 26.6953 9.49333 26.652 9.06 26.652H4.25V32.788Z" fill="#F5EBE0"/>
<path d="M24.4778 35.284L17.5098 24H21.2798L26.1938 32.32L31.0298 24H34.6698L27.7278 35.284V42.564H24.4778V35.284Z" fill="#F5EBE0"/>
<path d="M37.7492 24H42.3252L47.4472 38.534H47.4992L52.4912 24H57.0152V42.564H53.9212V28.238H53.8692L48.7212 42.564H46.0432L40.8952 28.238H40.8432V42.564H37.7492V24Z" fill="#F5EBE0"/>
<path d="M60.2066 24H73.5706V26.808H63.4566V31.67H72.8166V34.322H63.4566V39.756H73.7526V42.564H60.2066V24Z" fill="#F5EBE0"/>
<path d="M99.5 24H114.528V26.808H108.626V42.564H105.376V26.808H99.5V24Z" fill="#F5EBE0"/>
<path d="M77.234 24H81.81L86.932 38.534H86.984L91.976 24H96.5V42.564H93.406V28.238H93.354L88.206 42.564H85.528L80.38 28.238H80.328V42.564H77.234V24Z" fill="#F5EBE0"/>
</svg>
